SplineFontDB: 3.2
FontName: Architalia-Regular
FullName: Architalia Text Regular
FamilyName: Architalia Text
Weight: Regular
Copyright: Copyright (c) 2023 Architalia.
Version: 1.00
ItalicAngle: 0
UnderlinePosition: -204
UnderlineWidth: 102
Ascent: 1638
Descent: 410
InvalidEm: 0
sfntRevision: 0x00010000
woffMajor: 1
woffMinor: 0
LayerCount: 2
Layer: 0 1 "Back" 1
Layer: 1 1 "Fore" 0
XUID: [1021 754 2037647438 16533741]
StyleMap: 0x0040
FSType: 4
OS2Version: 3
OS2_WeightWidthSlopeOnly: 0
OS2_UseTypoMetrics: 0
CreationTime: 1257940518
ModificationTime: 1689341389
PfmFamily: 17
TTFWeight: 400
TTFWidth: 5
LineGap: 0
VLineGap: 0
Panose: 2 11 5 6 4 2 2 2 2 4
OS2TypoAscent: 1638
OS2TypoAOffset: 0
OS2TypoDescent: -410
OS2TypoDOffset: 0
OS2TypoLinegap: 0
OS2WinAscent: 1800
OS2WinAOffset: 0
OS2WinDescent: 470
OS2WinDOffset: 0
HheadAscent: 1800
HheadAOffset: 0
HheadDescent: -470
HheadDOffset: 0
OS2SubXSize: 1434
OS2SubYSize: 1331
OS2SubXOff: 0
OS2SubYOff: 287
OS2SupXSize: 1434
OS2SupYSize: 1331
OS2SupXOff: 0
OS2SupYOff: 977
OS2StrikeYSize: 102
OS2StrikeYPos: 512
OS2CapHeight: 1331
OS2XHeight: 973
OS2Vendor: 'DAMA'
OS2CodePages: 00000001.00000000
OS2UnicodeRanges: 8000002f.0000000a.00000000.00000000
MarkAttachClasses: 1
DEI: 91125
TtTable: prep
PUSHW_1
 511
SCANCTRL
PUSHB_1
 1
SCANTYPE
SVTCA[y-axis]
MPPEM
PUSHB_1
 8
LT
IF
PUSHB_2
 1
 1
INSTCTRL
EIF
PUSHB_2
 70
 6
CALL
IF
POP
PUSHB_1
 16
EIF
MPPEM
PUSHB_1
 20
GT
IF
POP
PUSHB_1
 128
EIF
SCVTCI
PUSHB_1
 6
CALL
NOT
IF
SVTCA[y-axis]
PUSHB_1
 3
DUP
RCVT
PUSHB_1
 3
CALL
WCVTP
PUSHB_1
 4
DUP
RCVT
PUSHB_3
 3
 24
 2
CALL
PUSHB_1
 3
CALL
WCVTP
PUSHB_1
 5
DUP
RCVT
PUSHB_3
 4
 29
 2
CALL
PUSHB_1
 3
CALL
WCVTP
PUSHB_1
 6
DUP
RCVT
PUSHB_3
 5
 228
 2
CALL
PUSHB_1
 3
CALL
WCVTP
PUSHB_1
 7
DUP
RCVT
PUSHB_3
 6
 109
 2
CALL
PUSHB_1
 3
CALL
WCVTP
PUSHB_1
 8
DUP
RCVT
PUSHB_3
 7
 108
 2
CALL
PUSHB_1
 3
CALL
WCVTP
PUSHB_1
 9
DUP
RCVT
PUSHB_3
 8
 87
 2
CALL
PUSHB_1
 3
CALL
WCVTP
PUSHB_1
 10
DUP
RCVT
PUSHB_3
 9
 48
 2
CALL
PUSHB_1
 3
CALL
WCVTP
PUSHB_1

StartChar: .notdef
Encoding: 65536 -1 0
Width: 748
GlyphClass: 1
Flags: W
LayerCount: 2
Fore
SplineSet
68 0 m 1,0,-1
 68 1365 l 1,1,-1
 612 1365 l 1,2,-1
 612 0 l 1,3,-1
 68 0 l 1,0,-1
136 68 m 1,4,-1
 544 68 l 1,5,-1
 544 1297 l 1,6,-1
 136 1297 l 1,7,-1
 136 68 l 1,4,-1
EndSplineSet
EndChar

StartChar: exclam
Encoding: 33 33 4
Width: 522
GlyphClass: 2
Flags: W
LayerCount: 2
Fore
SplineSet
162 84 m 256,0,1
 162 125 162 125 190.5 154.5 c 128,-1,2
 219 184 219 184 260 184 c 256,3,4
 301 184 301 184 330.5 154.5 c 128,-1,5
 360 125 360 125 360 84 c 256,6,7
 360 43 360 43 330.5 13.5 c 128,-1,8
 301 -16 301 -16 260 -16 c 256,9,10
 219 -16 219 -16 190.5 13.5 c 128,-1,11
 162 43 162 43 162 84 c 256,0,1
176 1262 m 2,12,13
 172 1336 172 1336 266 1335 c 0,14,15
 313 1335 313 1335 344 1325 c 1,16,-1
 313 469 l 2,17,18
 311 442 311 442 299 433 c 128,-1,19
 287 424 287 424 266 424 c 0,20,21
 242 424 242 424 215 434 c 1,22,-1
 176 1262 l 2,12,13
EndSplineSet
EndChar

StartChar: quotedbl
Encoding: 34 34 5
Width: 694
GlyphClass: 2
Flags: W
LayerCount: 2
Fore
SplineSet
123 1270 m 2,0,1
 119 1336 119 1336 203 1335 c 0,2,3
 221 1335 221 1335 239.5 1333 c 128,-1,4
 258 1331 258 1331 270 1327 c 1,5,-1
 242 860 l 2,6,7
 240 842 240 842 231 831.5 c 128,-1,8
 222 821 222 821 195 821 c 0,9,10
 175 821 175 821 154 825 c 1,11,-1
 123 1270 l 2,0,1
428 1270 m 2,12,13
 424 1336 424 1336 508 1335 c 0,14,15
 526 1335 526 1335 544.5 1333 c 128,-1,16
 563 1331 563 1331 575 1327 c 1,17,-1
 547 860 l 2,18,19
 545 842 545 842 536 831.5 c 128,-1,20
 527 821 527 821 500 821 c 0,21,22
 480 821 480 821 459 825 c 1,23,-1
 428 1270 l 2,12,13
EndSplineSet
EndChar

StartChar: numbersign
Encoding: 35 35 6
Width: 1232
GlyphClass: 2
Flags: W
LayerCount: 2
Fore
SplineSet
61 420 m 0,0,1
 61 453 61 453 74.5 465 c 128,-1,2
 88 477 88 477 109 477 c 2,3,-1
 287 477 l 1,4,-1
 375 846 l 1,5,-1
 168 846 l 1,6,7
 164 866 164 866 164 895 c 0,8,9
 164 930 164 930 178.5 942 c 128,-1,10
 193 954 193 954 209 954 c 2,11,-1
 397 954 l 1,12,-1
 481 1309 l 2,13,14
 487 1329 487 1329 502.5 1334 c 128,-1,15
 518 1339 518 1339 541 1339 c 0,16,17
 580 1339 580 1339 602 1331 c 1,18,-1
 514 954 l 1,19,-1
 840 954 l 1,20,-1
 924 1309 l 2,21,22
 930 1329 930 1329 945.5 1334 c 128,-1,23
 961 1339 961 1339 983 1339 c 0,24,25
 1022 1339 1022 1339 1044 1331 c 1,26,-1
 956 954 l 1,27,-1
 1161 954 l 1,28,29
 1165 934 1165 934 1165 903 c 0,30,31
 1165 868 1165 868 1152 857 c 128,-1,32
 1139 846 1139 846 1120 846 c 2,33,-1
 934 846 l 1,34,-1
 844 477 l 1,35,-1
 1063 477 l 1,36,37
 1065 467 1065 467 1066 453.5 c 128,-1,38
 1067 440 1067 440 1067 424 c 0,39,40
 1067 393 1067 393 1052.5 381 c 128,-1,41
 1038 369 1038 369 1022 369 c 2,42,-1
 819 369 l 1,43,-1
 735 25 l 2,44,45
 731 5 731 5 714.5 -1.5 c 128,-1,46
 698 -8 698 -8 678 -8 c 0,47,48
 643 -8 643 -8 618 2 c 1,49,-1
 705 369 l 1,50,-1
 377 369 l 1,51,-1
 297 25 l 2,52,53
 291 5 291 5 274.5 -1.5 c 128,-1,54
 258 -8 258 -8 238 -8 c 0,55,56
 201 -8 201 -8 174 2 c 1,57,-1
 262 369 l 1,58,-1
 68 369 l 1,59,60
 64 377 64 377 62.5 390 c 128,-1,61
 61 403 61 403 61 420 c 0,0,1
401 477 m 1,62,-1
 729 477 l 1,63,-1
 817 846 l 1,64,-1
 492 846 l 1,65,-1
 401 477 l 1,62,-1
EndSplineSet
EndChar

StartChar: dollar
Encoding: 36 36 7
Width: 1232
GlyphClass: 2
Flags: W
LayerCount: 2
Fore
SplineSet
147 55 m 1,0,1
 145 106 145 106 159.5 137 c 128,-1,2
 174 168 174 168 213 168 c 0,3,4
 233 168 233 168 265 159 c 128,-1,5
 297 150 297 150 338 138.5 c 128,-1,6
 379 127 379 127 431 116.5 c 128,-1,7
 483 106 483 106 547 102 c 1,8,-1
 547 625 l 1,9,-1
 496 639 l 2,10,11
 308 692 308 692 232 784.5 c 128,-1,12
 156 877 156 877 156 1001 c 0,13,14
 156 1058 156 1058 175.5 1118 c 128,-1,15
 195 1178 195 1178 240 1227 c 128,-1,16
 285 1276 285 1276 359.5 1311 c 128,-1,17
 434 1346 434 1346 547 1352 c 1,18,-1
 547 1493 l 2,19,20
 547 1516 547 1516 559 1528 c 128,-1,21
 571 1540 571 1540 602 1540 c 0,22,23
 635 1540 635 1540 655 1530 c 1,24,-1
 655 1352 l 1,25,26
 739 1348 739 1348 824 1329.5 c 128,-1,27
 909 1311 909 1311 1004 1276 c 1,28,29
 1010 1165 1010 1165 934 1165 c 0,30,31
 899 1165 899 1165 831.5 1189.5 c 128,-1,32
 764 1214 764 1214 655 1223 c 1,33,-1
 655 741 l 1,34,-1
 733 721 l 1,35,36
 905 672 905 672 986 582 c 128,-1,37
 1067 492 1067 492 1067 362 c 0,38,39
 1067 204 1067 204 966.5 101 c 128,-1,40
 866 -2 866 -2 655 -18 c 1,41,-1
 655 -160 l 2,42,43
 655 -183 655 -183 642 -195 c 128,-1,44
 629 -207 629 -207 594 -207 c 0,45,46
 578 -207 578 -207 566.5 -205 c 128,-1,47
 555 -203 555 -203 547 -201 c 1,48,-1
 547 -23 l 1,49,50
 457 -19 457 -19 357.5 -2.5 c 128,-1,51
 258 14 258 14 147 55 c 1,0,1
293 1004 m 0,52,53
 293 918 293 918 348.5 865.5 c 128,-1,54
 404 813 404 813 547 772 c 1,55,-1
 547 1225 l 1,56,57
 475 1219 475 1219 426 1197.5 c 128,-1,58
 377 1176 377 1176 347 1144 c 128,-1,59
 317 1112 317 1112 305 1075 c 128,-1,60
 293 1038 293 1038 293 1004 c 0,52,53
655 104 m 1,61,62
 796 118 796 118 859 189 c 128,-1,63
 922 260 922 260 922 352 c 0,64,65
 922 454 922 454 856.5 504.5 c 128,-1,66
 791 555 791 555 680 586 c 1,67,-1
 655 592 l 1,68,-1
 655 104 l 1,61,62
EndSplineSet
EndChar

StartChar: percent
Encoding: 37 37 8
Width: 1429
GlyphClass: 2
Flags: W
LayerCount: 2
Fore
SplineSet
61 997 m 256,0,1
 61 1177 61 1177 138 1265.5 c 128,-1,2
 215 1354 215 1354 334 1354 c 0,3,4
 451 1354 451 1354 529.5 1266 c 128,-1,5
 608 1178 608 1178 608 997 c 0,6,7
 608 817 608 817 529.5 728 c 128,-1,8
 451 639 451 639 334 639 c 0,9,10
 215 639 215 639 138 728 c 128,-1,11
 61 817 61 817 61 997 c 256,0,1
174 997 m 256,12,13
 174 864 174 864 218 801.5 c 128,-1,14
 262 739 262 739 334 739 c 256,15,16
 406 739 406 739 451 801.5 c 128,-1,17
 496 864 496 864 496 997 c 256,18,19
 496 1130 496 1130 451 1191.5 c 128,-1,20
 406 1253 406 1253 334 1253 c 256,21,22
 262 1253 262 1253 218 1191.5 c 128,-1,23
 174 1130 174 1130 174 997 c 256,12,13
266 14 m 1,24,-1
 1012 1296 l 2,25,26
 1022 1312 1022 1312 1038.5 1324.5 c 128,-1,27
 1055 1337 1055 1337 1081 1337 c 0,28,29
 1108 1337 1108 1337 1124.5 1327 c 128,-1,30
 1141 1317 1141 1317 1151 1313 c 1,31,-1
 408 31 l 2,32,33
 385 -10 385 -10 334 -10 c 0,34,35
 314 -10 314 -10 297.5 -3 c 128,-1,36
 281 4 281 4 266 14 c 1,24,-1
821 350 m 256,37,38
 821 530 821 530 898 618.5 c 128,-1,39
 975 707 975 707 1094 707 c 0,40,41
 1211 707 1211 707 1289.5 618.5 c 128,-1,42
 1368 530 1368 530 1368 350 c 256,43,44
 1368 170 1368 170 1289.5 81 c 128,-1,45
 1211 -8 1211 -8 1094 -8 c 0,46,47
 975 -8 975 -8 898 81 c 128,-1,48
 821 170 821 170 821 350 c 256,37,38
934 350 m 256,49,50
 934 217 934 217 978 154.5 c 128,-1,51
 1022 92 1022 92 1094 92 c 256,52,53
 1166 92 1166 92 1210.5 154.5 c 128,-1,54
 1255 217 1255 217 1255 350 c 256,55,56
 1255 483 1255 483 1210 544.5 c 128,-1,57
 1165 606 1165 606 1094 606 c 0,58,59
 1022 606 1022 606 978 544.5 c 128,-1,60
 934 483 934 483 934 350 c 256,49,50
EndSplineSet
EndChar

StartChar: ampersand
Encoding: 38 38 9
Width: 1308
GlyphClass: 2
Flags: W
LayerCount: 2
Fore
SplineSet
70 375 m 0,0,1
 70 512 70 512 149.5 609.5 c 128,-1,2
 229 707 229 707 371 762 c 1,3,4
 316 821 316 821 285 886.5 c 128,-1,5
 254 952 254 952 254 1036 c 0,6,7
 254 1095 254 1095 277.5 1152.5 c 128,-1,8
 301 1210 301 1210 349 1254 c 128,-1,9
 397 1298 397 1298 467 1326 c 128,-1,10
 537 1354 537 1354 629 1354 c 0,11,12
 731 1354 731 1354 814 1329.5 c 128,-1,13
 897 1305 897 1305 958 1270 c 1,14,15
 962 1219 962 1219 943 1198.5 c 128,-1,16
 924 1178 924 1178 897 1178 c 0,17,18
 874 1178 874 1178 851.5 1187 c 128,-1,19
 829 1196 829 1196 799.5 1207.5 c 128,-1,20
 770 1219 770 1219 730 1228 c 128,-1,21
 690 1237 690 1237 633 1237 c 0,22,23
 510 1237 510 1237 450.5 1174.5 c 128,-1,24
 391 1112 391 1112 391 1020 c 0,25,26
 391 967 391 967 420 910.5 c 128,-1,27
 449 854 449 854 532 770 c 2,28,-1
 901 410 l 1,29,-1
 1100 778 l 2,30,31
 1123 821 1123 821 1178 821 c 0,32,33
 1219 821 1219 821 1251 807 c 1,34,-1
 989 326 l 1,35,-1
 1303 12 l 1,36,37
 1285 6 1285 6 1264 1 c 128,-1,38
 1243 -4 1243 -4 1210 -4 c 0,39,40
 1169 -4 1169 -4 1144.5 6 c 128,-1,41
 1120 16 1120 16 1100 37 c 2,42,-1
 920 219 l 1,43,44
 889 170 889 170 848 126 c 128,-1,45
 807 82 807 82 754.5 49 c 128,-1,46
 702 16 702 16 640 -3.5 c 128,-1,47
 578 -23 578 -23 502 -23 c 0,48,49
 400 -23 400 -23 320 12 c 128,-1,50
 240 47 240 47 184.5 102.5 c 128,-1,51
 129 158 129 158 99.5 229.5 c 128,-1,52
 70 301 70 301 70 375 c 0,0,1
205 381 m 0,53,54
 205 328 205 328 224.5 276.5 c 128,-1,55
 244 225 244 225 283 185 c 128,-1,56
 322 145 322 145 378 120.5 c 128,-1,57
 434 96 434 96 506 96 c 0,58,59
 567 96 567 96 617.5 112.5 c 128,-1,60
 668 129 668 129 708 157.5 c 128,-1,61
 748 186 748 186 779.5 224 c 128,-1,62
 811 262 811 262 834 305 c 1,63,-1
 453 682 l 1,64,65
 338 639 338 639 271.5 566.5 c 128,-1,66
 205 494 205 494 205 381 c 0,53,54
EndSplineSet
EndChar

StartChar: quotesingle
Encoding: 39 39 10
Width: 389
GlyphClass: 2
Flags: W
LayerCount: 2
Fore
SplineSet
123 1270 m 2,0,1
 119 1336 119 1336 203 1335 c 0,2,3
 221 1335 221 1335 239.5 1333 c 128,-1,4
 258 1331 258 1331 270 1327 c 1,5,-1
 242 860 l 2,6,7
 240 842 240 842 231 831.5 c 128,-1,8
 222 821 222 821 195 821 c 0,9,10
 175 821 175 821 154 825 c 1,11,-1
 123 1270 l 2,0,1
EndSplineSet
EndChar

StartChar: parenleft
Encoding: 40 40 11
Width: 704
GlyphClass: 2
Flags: W
LayerCount: 2
Fore
SplineSet
82 473 m 0,0,1
 82 616 82 616 119 747.5 c 128,-1,2
 156 879 156 879 222.5 992.5 c 128,-1,3
 289 1106 289 1106 383 1198 c 128,-1,4
 477 1290 477 1290 594 1354 c 1,5,6
 617 1342 617 1342 631 1323.5 c 128,-1,7
 645 1305 645 1305 645 1282 c 0,8,9
 645 1264 645 1264 639 1250.5 c 128,-1,10
 633 1237 633 1237 618 1229 c 0,11,12
 430 1112 430 1112 322.5 922.5 c 128,-1,13
 215 733 215 733 215 473 c 0,14,15
 215 217 215 217 317.5 29.5 c 128,-1,16
 420 -158 420 -158 618 -283 c 0,17,18
 630 -291 630 -291 637.5 -305 c 128,-1,19
 645 -319 645 -319 645 -338 c 0,20,21
 645 -358 645 -358 631 -376 c 128,-1,22
 617 -394 617 -394 594 -406 c 1,23,24
 352 -267 352 -267 217 -40.5 c 128,-1,25
 82 186 82 186 82 473 c 0,0,1
EndSplineSet
EndChar

StartChar: parenright
Encoding: 41 41 12
Width: 704
GlyphClass: 2
Flags: W
LayerCount: 2
Fore
SplineSet
53 1286 m 256,0,1
 53 1300 53 1300 60.5 1311.5 c 128,-1,2
 68 1323 68 1323 78 1332 c 128,-1,3
 88 1341 88 1341 111 1354 c 1,4,5
 228 1291 228 1291 322 1198.5 c 128,-1,6
 416 1106 416 1106 483.5 992.5 c 128,-1,7
 551 879 551 879 588 747.5 c 128,-1,8
 625 616 625 616 625 473 c 0,9,10
 625 186 625 186 489 -40.5 c 128,-1,11
 353 -267 353 -267 111 -406 c 1,12,13
 88 -394 88 -394 77 -380.5 c 128,-1,14
 66 -367 66 -367 62.5 -356.5 c 128,-1,15
 59 -346 59 -346 59 -332 c 256,16,17
 59 -318 59 -318 65.5 -305.5 c 128,-1,18
 72 -293 72 -293 86 -283 c 0,19,20
 285 -158 285 -158 387 29.5 c 128,-1,21
 489 217 489 217 489 473 c 0,22,23
 489 733 489 733 382.5 922.5 c 128,-1,24
 276 1112 276 1112 86 1229 c 0,25,26
 66 1245 66 1245 59.5 1258.5 c 128,-1,27
 53 1272 53 1272 53 1286 c 256,0,1
EndSplineSet
EndChar

StartChar: asterisk
Encoding: 42 42 13
Width: 651
GlyphClass: 2
Flags: W
LayerCount: 2
Fore
SplineSet
4 1065 m 1,0,1
 -10 1108 -10 1108 14.5 1139.5 c 128,-1,2
 39 1171 39 1171 100 1151 c 2,3,-1
 289 1090 l 1,4,-1
 272 1356 l 1,5,6
 290 1368 290 1368 312 1370 c 128,-1,7
 334 1372 334 1372 350.5 1364 c 128,-1,8
 367 1356 367 1356 377 1338.5 c 128,-1,9
 387 1321 387 1321 383 1290 c 2,10,-1
 367 1090 l 1,11,-1
 623 1157 l 1,12,13
 650 1134 650 1134 649 1102 c 0,14,15
 649 1082 649 1082 635 1066.5 c 128,-1,16
 621 1051 621 1051 586 1047 c 2,17,-1
 385 1020 l 1,18,-1
 569 786 l 1,19,20
 549 735 549 735 502 735 c 0,21,22
 463 735 463 735 440 780 c 2,23,-1
 326 971 l 1,24,-1
 178 737 l 1,25,26
 147 733 147 733 124.5 750.5 c 128,-1,27
 102 768 102 768 102 797 c 0,28,29
 102 828 102 828 131 856 c 1,30,-1
 262 1018 l 1,31,-1
 4 1065 l 1,0,1
EndSplineSet
EndChar

StartChar: plus
Encoding: 43 43 14
Width: 1232
GlyphClass: 2
Flags: W
LayerCount: 2
Fore
SplineSet
113 535 m 0,0,1
 113 572 113 572 128 586 c 128,-1,2
 143 600 143 600 170 600 c 2,3,-1
 547 600 l 1,4,-1
 547 999 l 2,5,6
 547 1022 547 1022 562.5 1036.5 c 128,-1,7
 578 1051 578 1051 614 1051 c 0,8,9
 632 1051 632 1051 648 1049 c 128,-1,10
 664 1047 664 1047 674 1042 c 1,11,-1
 674 600 l 1,12,-1
 1114 600 l 1,13,14
 1116 590 1116 590 1118 573.5 c 128,-1,15
 1120 557 1120 557 1120 539 c 0,16,17
 1120 502 1120 502 1105 487.5 c 128,-1,18
 1090 473 1090 473 1063 473 c 2,19,-1
 674 473 l 1,20,-1
 674 47 l 2,21,22
 674 24 674 24 658.5 10 c 128,-1,23
 643 -4 643 -4 606 -4 c 0,24,25
 588 -4 588 -4 572.5 -2 c 128,-1,26
 557 0 557 0 547 4 c 1,27,-1
 547 473 l 1,28,-1
 119 473 l 1,29,30
 117 483 117 483 115 499.5 c 128,-1,31
 113 516 113 516 113 535 c 0,0,1
EndSplineSet
EndChar

StartChar: comma
Encoding: 44 44 15
Width: 317
GlyphClass: 2
Flags: W
LayerCount: 2
Fore
SplineSet
10 -248 m 1,0,-1
 135 125 l 2,1,2
 143 152 143 152 159.5 163 c 128,-1,3
 176 174 176 174 193 174 c 0,4,5
 213 174 213 174 229.5 158.5 c 128,-1,6
 246 143 246 143 246 115 c 0,7,8
 246 80 246 80 235.5 42 c 128,-1,9
 225 4 225 4 215 -25 c 0,10,11
 174 -131 174 -131 125 -187.5 c 128,-1,12
 76 -244 76 -244 10 -248 c 1,0,-1
EndSplineSet
EndChar

StartChar: hyphen
Encoding: 45 45 16
Width: 694
GlyphClass: 2
Flags: W
LayerCount: 2
Fore
SplineSet
53 518 m 0,0,1
 53 553 53 553 69.5 568.5 c 128,-1,2
 86 584 86 584 109 584 c 2,3,-1
 633 584 l 1,4,5
 637 574 637 574 638 557.5 c 128,-1,6
 639 541 639 541 639 524 c 0,7,8
 639 485 639 485 623.5 471 c 128,-1,9
 608 457 608 457 586 457 c 2,10,-1
 61 457 l 1,11,12
 59 467 59 467 56 484.5 c 128,-1,13
 53 502 53 502 53 518 c 0,0,1
EndSplineSet
EndChar

StartChar: period
Encoding: 46 46 17
Width: 358
GlyphClass: 2
Flags: W
LayerCount: 2
Fore
SplineSet
78 84 m 0,0,1
 78 125 78 125 107.5 154.5 c 128,-1,2
 137 184 137 184 176 184 c 0,3,4
 219 184 219 184 249 154.5 c 128,-1,5
 279 125 279 125 279 84 c 0,6,7
 279 45 279 45 249 15.5 c 128,-1,8
 219 -14 219 -14 176 -14 c 0,9,10
 137 -14 137 -14 107.5 15.5 c 128,-1,11
 78 45 78 45 78 84 c 0,0,1
EndSplineSet
EndChar

StartChar: slash
Encoding: 47 47 18
Width: 620
GlyphClass: 2
Flags: W
LayerCount: 2
Fore
SplineSet
51 -72 m 1,0,-1
 446 1325 l 2,1,2
 456 1348 456 1348 475 1356 c 128,-1,3
 494 1364 494 1364 518 1364 c 0,4,5
 541 1364 541 1364 556 1360 c 128,-1,6
 571 1356 571 1356 588 1350 c 1,7,-1
 193 -45 l 2,8,9
 185 -70 185 -70 165.5 -77 c 128,-1,10
 146 -84 146 -84 121 -84 c 0,11,12
 98 -84 98 -84 83 -80 c 128,-1,13
 68 -76 68 -76 51 -72 c 1,0,-1
EndSplineSet
EndChar

StartChar: zero
Encoding: 48 48 19
Width: 1245
GlyphClass: 2
Flags: W
LayerCount: 2
Fore
SplineSet
113 666 m 256,0,1
 113 838 113 838 149.5 967 c 128,-1,2
 186 1096 186 1096 252.5 1182 c 128,-1,3
 319 1268 319 1268 412.5 1311 c 128,-1,4
 506 1354 506 1354 618 1354 c 0,5,6
 731 1354 731 1354 825.5 1311 c 128,-1,7
 920 1268 920 1268 988.5 1182 c 128,-1,8
 1057 1096 1057 1096 1095 967 c 128,-1,9
 1133 838 1133 838 1133 666 c 256,10,11
 1133 494 1133 494 1095 365 c 128,-1,12
 1057 236 1057 236 988.5 149.5 c 128,-1,13
 920 63 920 63 825.5 20 c 128,-1,14
 731 -23 731 -23 618 -23 c 256,15,16
 505 -23 505 -23 412 20 c 128,-1,17
 319 63 319 63 252.5 149.5 c 128,-1,18
 186 236 186 236 149.5 365 c 128,-1,19
 113 494 113 494 113 666 c 256,0,1
258 666 m 0,20,21
 258 375 258 375 356 237.5 c 128,-1,22
 454 100 454 100 618 100 c 0,23,24
 700 100 700 100 768 134 c 128,-1,25
 836 168 836 168 885 237.5 c 128,-1,26
 934 307 934 307 960.5 413.5 c 128,-1,27
 987 520 987 520 987 666 c 0,28,29
 987 811 987 811 960.5 917.5 c 128,-1,30
 934 1024 934 1024 885 1093.5 c 128,-1,31
 836 1163 836 1163 768 1197 c 128,-1,32
 700 1231 700 1231 618 1231 c 0,33,34
 454 1231 454 1231 356 1093.5 c 128,-1,35
 258 956 258 956 258 666 c 0,20,21
EndSplineSet
EndChar

StartChar: one
Encoding: 49 49 20
Width: 708
GlyphClass: 2
Flags: W
LayerCount: 2
Fore
SplineSet
39 1108 m 256,0,1
 39 1155 39 1155 90 1180 c 2,2,-1
 379 1331 l 1,3,-1
 487 1331 l 1,4,-1
 487 43 l 2,5,6
 487 18 487 18 470 3 c 128,-1,7
 453 -12 453 -12 412 -12 c 0,8,9
 394 -12 394 -12 375 -10 c 128,-1,10
 356 -8 356 -8 346 -4 c 1,11,-1
 346 1167 l 1,12,-1
 76 1026 l 1,13,14
 39 1061 39 1061 39 1108 c 256,0,1
EndSplineSet
EndChar

StartChar: two
Encoding: 50 50 21
Width: 1021
GlyphClass: 2
Flags: W
LayerCount: 2
Fore
SplineSet
39 59 m 0,0,1
 39 82 39 82 48 110.5 c 128,-1,2
 57 139 57 139 80 160 c 2,3,-1
 532 573 l 2,4,5
 583 620 583 620 627.5 665.5 c 128,-1,6
 672 711 672 711 704.5 757 c 128,-1,7
 737 803 737 803 755.5 851 c 128,-1,8
 774 899 774 899 774 952 c 0,9,10
 774 1081 774 1081 691 1155 c 128,-1,11
 608 1229 608 1229 463 1229 c 0,12,13
 389 1229 389 1229 334 1210.5 c 128,-1,14
 279 1192 279 1192 238 1170.5 c 128,-1,15
 197 1149 197 1149 167 1131.5 c 128,-1,16
 137 1114 137 1114 117 1114 c 0,17,18
 88 1114 88 1114 70.5 1139.5 c 128,-1,19
 53 1165 53 1165 49 1208 c 1,20,21
 80 1233 80 1233 123 1258.5 c 128,-1,22
 166 1284 166 1284 219 1305.5 c 128,-1,23
 272 1327 272 1327 333.5 1340.5 c 128,-1,24
 395 1354 395 1354 463 1354 c 0,25,26
 569 1354 569 1354 653 1325 c 128,-1,27
 737 1296 737 1296 795.5 1243 c 128,-1,28
 854 1190 854 1190 886 1116 c 128,-1,29
 918 1042 918 1042 918 954 c 0,30,31
 918 884 918 884 894 823 c 128,-1,32
 870 762 870 762 830.5 705.5 c 128,-1,33
 791 649 791 649 738.5 597 c 128,-1,34
 686 545 686 545 631 496 c 2,35,-1
 227 133 l 1,36,-1
 227 129 l 1,37,-1
 936 129 l 1,38,39
 938 119 938 119 940 102.5 c 128,-1,40
 942 86 942 86 942 68 c 0,41,42
 942 29 942 29 925.5 14.5 c 128,-1,43
 909 0 909 0 885 0 c 2,44,-1
 45 0 l 1,45,46
 43 10 43 10 41 25.5 c 128,-1,47
 39 41 39 41 39 59 c 0,0,1
EndSplineSet
EndChar

StartChar: three
Encoding: 51 51 22
Width: 1093
GlyphClass: 2
Flags: W
LayerCount: 2
Fore
SplineSet
90 94 m 1,0,1
 90 143 90 143 108.5 166.5 c 128,-1,2
 127 190 127 190 158 190 c 0,3,4
 183 190 183 190 211.5 177 c 128,-1,5
 240 164 240 164 282 147.5 c 128,-1,6
 324 131 324 131 385 117.5 c 128,-1,7
 446 104 446 104 537 104 c 0,8,9
 697 104 697 104 779.5 180 c 128,-1,10
 862 256 862 256 862 371 c 0,11,12
 862 420 862 420 843.5 465 c 128,-1,13
 825 510 825 510 785 545 c 128,-1,14
 745 580 745 580 681.5 600.5 c 128,-1,15
 618 621 618 621 530 621 c 2,16,-1
 332 621 l 2,17,18
 312 621 312 621 296.5 635 c 128,-1,19
 281 649 281 649 281 684 c 0,20,21
 281 700 281 700 284 715.5 c 128,-1,22
 287 731 287 731 289 741 c 1,23,-1
 500 741 l 2,24,25
 662 741 662 741 740.5 804.5 c 128,-1,26
 819 868 819 868 819 985 c 0,27,28
 819 1030 819 1030 805 1072 c 128,-1,29
 791 1114 791 1114 757 1148 c 128,-1,30
 723 1182 723 1182 668.5 1202.5 c 128,-1,31
 614 1223 614 1223 535 1223 c 0,32,33
 451 1223 451 1223 394.5 1209.5 c 128,-1,34
 338 1196 338 1196 299 1180.5 c 128,-1,35
 260 1165 260 1165 233.5 1153 c 128,-1,36
 207 1141 207 1141 182 1141 c 0,37,38
 151 1141 151 1141 133 1168.5 c 128,-1,39
 115 1196 115 1196 113 1243 c 1,40,41
 187 1282 187 1282 290 1317 c 128,-1,42
 393 1352 393 1352 541 1352 c 0,43,44
 652 1352 652 1352 730.5 1323 c 128,-1,45
 809 1294 809 1294 861 1246 c 128,-1,46
 913 1198 913 1198 938 1133.5 c 128,-1,47
 963 1069 963 1069 963 997 c 0,48,49
 963 880 963 880 896 799.5 c 128,-1,50
 829 719 829 719 723 690 c 1,51,52
 780 680 780 680 832.5 654.5 c 128,-1,53
 885 629 885 629 924 588 c 128,-1,54
 963 547 963 547 985.5 491.5 c 128,-1,55
 1008 436 1008 436 1008 367 c 0,56,57
 1008 275 1008 275 973 203 c 128,-1,58
 938 131 938 131 874.5 81 c 128,-1,59
 811 31 811 31 725 4 c 128,-1,60
 639 -23 639 -23 537 -23 c 0,61,62
 383 -23 383 -23 278.5 11 c 128,-1,63
 174 45 174 45 90 94 c 1,0,1
EndSplineSet
EndChar

StartChar: four
Encoding: 52 52 23
Width: 1136
GlyphClass: 2
Flags: W
LayerCount: 2
Fore
SplineSet
51 377 m 0,0,1
 51 400 51 400 57 421 c 128,-1,2
 63 442 63 442 80 465 c 2,3,-1
 719 1331 l 1,4,-1
 862 1331 l 1,5,-1
 862 444 l 1,6,-1
 1081 444 l 1,7,8
 1083 434 1083 434 1084 417.5 c 128,-1,9
 1085 401 1085 401 1085 385 c 0,10,11
 1085 350 1085 350 1070 336 c 128,-1,12
 1055 322 1055 322 1032 322 c 2,13,-1
 862 322 l 1,14,-1
 862 43 l 2,15,16
 863 -8 863 -8 791 -8 c 0,17,18
 775 -8 775 -8 755 -7 c 128,-1,19
 735 -6 735 -6 725 -2 c 1,20,-1
 725 319 l 1,21,-1
 57 319 l 1,22,23
 55 329 55 329 53 344.5 c 128,-1,24
 51 360 51 360 51 377 c 0,0,1
213 442 m 1,25,-1
 725 442 l 1,26,-1
 725 1130 l 1,27,-1
 213 442 l 1,25,-1
EndSplineSet
EndChar

StartChar: five
Encoding: 53 53 24
Width: 1071
GlyphClass: 2
Flags: W
LayerCount: 2
Fore
SplineSet
76 82 m 1,0,1
 76 135 76 135 96.5 160.5 c 128,-1,2
 117 186 117 186 147 186 c 0,3,4
 167 186 167 186 197 173 c 128,-1,5
 227 160 227 160 269 144.5 c 128,-1,6
 311 129 311 129 368.5 115.5 c 128,-1,7
 426 102 426 102 502 102 c 0,8,9
 590 102 590 102 655.5 128 c 128,-1,10
 721 154 721 154 765 196 c 128,-1,11
 809 238 809 238 830.5 292 c 128,-1,12
 852 346 852 346 852 401 c 0,13,14
 852 475 852 475 824.5 531.5 c 128,-1,15
 797 588 797 588 751 625 c 128,-1,16
 705 662 705 662 643.5 680 c 128,-1,17
 582 698 582 698 516 698 c 0,18,19
 438 698 438 698 359.5 672.5 c 128,-1,20
 281 647 281 647 215 594 c 1,21,-1
 115 635 l 1,22,-1
 186 1331 l 1,23,-1
 928 1331 l 1,24,25
 934 1308 934 1308 934 1270 c 0,26,27
 934 1233 934 1233 918.5 1218.5 c 128,-1,28
 903 1204 903 1204 879 1204 c 2,29,-1
 303 1204 l 1,30,-1
 250 737 l 1,31,-1
 252 735 l 1,32,33
 315 780 315 780 393 800.5 c 128,-1,34
 471 821 471 821 545 821 c 0,35,36
 635 821 635 821 717 791.5 c 128,-1,37
 799 762 799 762 861.5 707.5 c 128,-1,38
 924 653 924 653 960.5 576.5 c 128,-1,39
 997 500 997 500 997 406 c 0,40,41
 997 326 997 326 966.5 249 c 128,-1,42
 936 172 936 172 874.5 111.5 c 128,-1,43
 813 51 813 51 720 14 c 128,-1,44
 627 -23 627 -23 502 -23 c 0,45,46
 373 -23 373 -23 267.5 8 c 128,-1,47
 162 39 162 39 76 82 c 1,0,1
EndSplineSet
EndChar

StartChar: six
Encoding: 54 54 25
Width: 1163
GlyphClass: 2
Flags: W
LayerCount: 2
Fore
SplineSet
111 637 m 0,0,1
 111 821 111 821 157 956.5 c 128,-1,2
 203 1092 203 1092 281.5 1180 c 128,-1,3
 360 1268 360 1268 462.5 1311 c 128,-1,4
 565 1354 565 1354 678 1354 c 0,5,6
 774 1354 774 1354 851 1334.5 c 128,-1,7
 928 1315 928 1315 995 1284 c 1,8,9
 999 1225 999 1225 977.5 1200.5 c 128,-1,10
 956 1176 956 1176 928 1176 c 0,11,12
 903 1176 903 1176 882.5 1183 c 128,-1,13
 862 1190 862 1190 835.5 1199 c 128,-1,14
 809 1208 809 1208 771 1215.5 c 128,-1,15
 733 1223 733 1223 676 1223 c 0,16,17
 486 1223 486 1223 375 1082.5 c 128,-1,18
 264 942 264 942 254 688 c 1,19,20
 287 717 287 717 324.5 745.5 c 128,-1,21
 362 774 362 774 408.5 796.5 c 128,-1,22
 455 819 455 819 512 833.5 c 128,-1,23
 569 848 569 848 641 848 c 0,24,25
 747 848 747 848 832.5 814 c 128,-1,26
 918 780 918 780 977 722 c 128,-1,27
 1036 664 1036 664 1069 586 c 128,-1,28
 1102 508 1102 508 1102 422 c 0,29,30
 1102 334 1102 334 1069 253 c 128,-1,31
 1036 172 1036 172 973.5 110.5 c 128,-1,32
 911 49 911 49 821 13 c 128,-1,33
 731 -23 731 -23 618 -23 c 0,34,35
 509 -23 509 -23 417.5 18 c 128,-1,36
 326 59 326 59 257 141 c 128,-1,37
 188 223 188 223 149.5 347 c 128,-1,38
 111 471 111 471 111 637 c 0,0,1
258 559 m 1,39,40
 258 457 258 457 285.5 372 c 128,-1,41
 313 287 313 287 362.5 226.5 c 128,-1,42
 412 166 412 166 478.5 133 c 128,-1,43
 545 100 545 100 623 100 c 0,44,45
 697 100 697 100 758 123.5 c 128,-1,46
 819 147 819 147 864 190 c 128,-1,47
 909 233 909 233 933.5 292.5 c 128,-1,48
 958 352 958 352 958 424 c 0,49,50
 958 498 958 498 932.5 553 c 128,-1,51
 907 608 907 608 861 647 c 128,-1,52
 815 686 815 686 753.5 705.5 c 128,-1,53
 692 725 692 725 623 725 c 0,54,55
 555 725 555 725 499.5 710.5 c 128,-1,56
 444 696 444 696 400 672.5 c 128,-1,57
 356 649 356 649 321.5 619.5 c 128,-1,58
 287 590 287 590 258 559 c 1,39,40
EndSplineSet
EndChar

StartChar: seven
Encoding: 55 55 26
Width: 987
GlyphClass: 2
Flags: W
LayerCount: 2
Fore
SplineSet
51 1270 m 0,0,1
 51 1288 51 1288 52 1304.5 c 128,-1,2
 53 1321 53 1321 55 1331 c 1,3,-1
 950 1331 l 1,4,-1
 950 1231 l 1,5,-1
 350 27 l 2,6,7
 340 2 340 2 317.5 -5 c 128,-1,8
 295 -12 295 -12 266 -12 c 0,9,10
 248 -12 248 -12 224.5 -8 c 128,-1,11
 201 -4 201 -4 186 2 c 1,12,-1
 791 1198 l 1,13,-1
 104 1198 l 2,14,15
 51 1198 51 1198 51 1270 c 0,0,1
EndSplineSet
EndChar

StartChar: eight
Encoding: 56 56 27
Width: 1163
GlyphClass: 2
Flags: W
LayerCount: 2
Fore
SplineSet
84 352 m 0,0,1
 84 491 84 491 164 578.5 c 128,-1,2
 244 666 244 666 365 696 c 1,3,4
 322 710 322 710 281 738 c 128,-1,5
 240 766 240 766 206 804 c 128,-1,6
 172 842 172 842 151.5 892 c 128,-1,7
 131 942 131 942 131 1001 c 0,8,9
 131 1075 131 1075 160.5 1138.5 c 128,-1,10
 190 1202 190 1202 246.5 1250 c 128,-1,11
 303 1298 303 1298 387 1326 c 128,-1,12
 471 1354 471 1354 582 1354 c 256,13,14
 693 1354 693 1354 777.5 1326 c 128,-1,15
 862 1298 862 1298 918.5 1250 c 128,-1,16
 975 1202 975 1202 1003.5 1138.5 c 128,-1,17
 1032 1075 1032 1075 1032 1001 c 0,18,19
 1032 942 1032 942 1011.5 892 c 128,-1,20
 991 842 991 842 958.5 804 c 128,-1,21
 926 766 926 766 883 738.5 c 128,-1,22
 840 711 840 711 797 696 c 1,23,24
 920 665 920 665 999.5 577 c 128,-1,25
 1079 489 1079 489 1079 354 c 0,26,27
 1079 272 1079 272 1045.5 202.5 c 128,-1,28
 1012 133 1012 133 948.5 83 c 128,-1,29
 885 33 885 33 792 4 c 128,-1,30
 699 -25 699 -25 582 -25 c 256,31,32
 465 -25 465 -25 372 4 c 128,-1,33
 279 33 279 33 215.5 83 c 128,-1,34
 152 133 152 133 118 201.5 c 128,-1,35
 84 270 84 270 84 352 c 0,0,1
229 358 m 0,36,37
 229 301 229 301 255 254 c 128,-1,38
 281 207 281 207 328 172 c 128,-1,39
 375 137 375 137 439.5 117.5 c 128,-1,40
 504 98 504 98 582 98 c 0,41,42
 658 98 658 98 722 117.5 c 128,-1,43
 786 137 786 137 833.5 172 c 128,-1,44
 881 207 881 207 907.5 254 c 128,-1,45
 934 301 934 301 934 358 c 0,46,47
 934 409 934 409 912.5 458.5 c 128,-1,48
 891 508 891 508 848 545 c 128,-1,49
 805 582 805 582 738.5 604.5 c 128,-1,50
 672 627 672 627 582 627 c 0,51,52
 490 627 490 627 423 604.5 c 128,-1,53
 356 582 356 582 313 545 c 128,-1,54
 270 508 270 508 249.5 459 c 128,-1,55
 229 410 229 410 229 358 c 0,36,37
274 995 m 0,56,57
 274 940 274 940 298 895 c 128,-1,58
 322 850 322 850 362.5 818 c 128,-1,59
 403 786 403 786 459.5 768 c 128,-1,60
 516 750 516 750 582 750 c 256,61,62
 648 750 648 750 704 768 c 128,-1,63
 760 786 760 786 801 818 c 128,-1,64
 842 850 842 850 865.5 895 c 128,-1,65
 889 940 889 940 889 995 c 0,66,67
 889 1104 889 1104 807 1167.5 c 128,-1,68
 725 1231 725 1231 582 1231 c 0,69,70
 441 1231 441 1231 357.5 1167.5 c 128,-1,71
 274 1104 274 1104 274 995 c 0,56,57
EndSplineSet
EndChar

StartChar: nine
Encoding: 57 57 28
Width: 1153
GlyphClass: 2
Flags: W
LayerCount: 2
Fore
SplineSet
61 920 m 0,0,1
 61 1014 61 1014 96 1092.5 c 128,-1,2
 131 1171 131 1171 194.5 1229.5 c 128,-1,3
 258 1288 258 1288 344 1321 c 128,-1,4
 430 1354 430 1354 535 1354 c 0,5,6
 771 1354 771 1354 905.5 1185 c 128,-1,7
 1040 1016 1040 1016 1040 682 c 0,8,9
 1040 510 1040 510 999 378 c 128,-1,10
 958 246 958 246 882.5 157 c 128,-1,11
 807 68 807 68 700.5 22.5 c 128,-1,12
 594 -23 594 -23 463 -23 c 0,13,14
 424 -23 424 -23 381 -17.5 c 128,-1,15
 338 -12 338 -12 295 -3 c 128,-1,16
 252 6 252 6 213 19.5 c 128,-1,17
 174 33 174 33 143 47 c 1,18,19
 139 98 139 98 157.5 126 c 128,-1,20
 176 154 176 154 211 154 c 0,21,22
 234 154 234 154 258.5 146.5 c 128,-1,23
 283 139 283 139 312.5 131 c 128,-1,24
 342 123 342 123 378 116 c 128,-1,25
 414 109 414 109 461 109 c 0,26,27
 656 109 656 109 772.5 238 c 128,-1,28
 889 367 889 367 899 643 c 1,29,30
 823 575 823 575 731 528 c 128,-1,31
 639 481 639 481 510 481 c 0,32,33
 404 481 404 481 321 517 c 128,-1,34
 238 553 238 553 180.5 613.5 c 128,-1,35
 123 674 123 674 92 754 c 128,-1,36
 61 834 61 834 61 920 c 0,0,1
205 920 m 0,37,38
 205 785 205 785 288.5 695.5 c 128,-1,39
 372 606 372 606 526 606 c 0,40,41
 643 606 643 606 733 650 c 128,-1,42
 823 694 823 694 893 772 c 1,43,44
 893 872 893 872 870.5 956 c 128,-1,45
 848 1040 848 1040 804 1101.5 c 128,-1,46
 760 1163 760 1163 692.5 1197 c 128,-1,47
 625 1231 625 1231 535 1231 c 0,48,49
 465 1231 465 1231 404.5 1208.5 c 128,-1,50
 344 1186 344 1186 300 1145 c 128,-1,51
 256 1104 256 1104 230.5 1046.5 c 128,-1,52
 205 989 205 989 205 920 c 0,37,38
EndSplineSet
EndChar

StartChar: colon
Encoding: 58 58 29
Width: 485
GlyphClass: 2
Flags: W
LayerCount: 2
Fore
SplineSet
133 809 m 256,0,1
 133 850 133 850 163 879.5 c 128,-1,2
 193 909 193 909 231 909 c 0,3,4
 272 909 272 909 302 879.5 c 128,-1,5
 332 850 332 850 332 809 c 256,6,7
 332 768 332 768 302 738.5 c 128,-1,8
 272 709 272 709 231 709 c 0,9,10
 192 709 192 709 162.5 738.5 c 128,-1,11
 133 768 133 768 133 809 c 256,0,1
135 84 m 0,12,13
 135 125 135 125 165 154.5 c 128,-1,14
 195 184 195 184 233 184 c 0,15,16
 274 184 274 184 304 154.5 c 128,-1,17
 334 125 334 125 334 84 c 0,18,19
 334 45 334 45 304 14.5 c 128,-1,20
 274 -16 274 -16 233 -16 c 0,21,22
 194 -16 194 -16 164.5 14.5 c 128,-1,23
 135 45 135 45 135 84 c 0,12,13
EndSplineSet
EndChar

StartChar: semicolon
Encoding: 59 59 30
Width: 485
GlyphClass: 2
Flags: W
LayerCount: 2
Fore
SplineSet
129 -248 m 1,0,-1
 254 125 l 2,1,2
 262 152 262 152 279.5 163 c 128,-1,3
 297 174 297 174 313 174 c 0,4,5
 336 174 336 174 351.5 158.5 c 128,-1,6
 367 143 367 143 367 115 c 0,7,8
 367 80 367 80 355.5 42 c 128,-1,9
 344 4 344 4 334 -25 c 0,10,11
 293 -131 293 -131 244 -187.5 c 128,-1,12
 195 -244 195 -244 129 -248 c 1,0,-1
199 809 m 256,13,14
 199 850 199 850 228.5 879.5 c 128,-1,15
 258 909 258 909 297 909 c 0,16,17
 338 909 338 909 367.5 879.5 c 128,-1,18
 397 850 397 850 397 809 c 256,19,20
 397 768 397 768 367.5 738.5 c 128,-1,21
 338 709 338 709 297 709 c 0,22,23
 258 709 258 709 228.5 738.5 c 128,-1,24
 199 768 199 768 199 809 c 256,13,14
EndSplineSet
EndChar

StartChar: less
Encoding: 60 60 31
Width: 1232
GlyphClass: 2
Flags: W
LayerCount: 2
Fore
SplineSet
170 475 m 1,0,-1
 170 586 l 1,1,-1
 971 1044 l 1,2,3
 975 1030 975 1030 980 1008.5 c 128,-1,4
 985 987 985 987 985 971 c 0,5,6
 985 916 985 916 952 897 c 2,7,-1
 313 532 l 1,8,-1
 952 154 l 2,9,10
 985 136 985 136 985 78 c 0,11,12
 985 62 985 62 980 39 c 128,-1,13
 975 16 975 16 971 2 c 1,14,-1
 170 475 l 1,0,-1
EndSplineSet
EndChar

StartChar: equal
Encoding: 61 61 32
Width: 1232
GlyphClass: 2
Flags: W
LayerCount: 2
Fore
SplineSet
160 322 m 0,0,1
 160 359 160 359 175 373 c 128,-1,2
 190 387 190 387 217 387 c 2,3,-1
 1051 387 l 1,4,5
 1053 377 1053 377 1055 360.5 c 128,-1,6
 1057 344 1057 344 1057 326 c 0,7,8
 1057 289 1057 289 1041.5 274.5 c 128,-1,9
 1026 260 1026 260 999 260 c 2,10,-1
 166 260 l 1,11,12
 164 270 164 270 162 286.5 c 128,-1,13
 160 303 160 303 160 322 c 0,0,1
160 727 m 0,14,15
 160 764 160 764 175 778.5 c 128,-1,16
 190 793 190 793 217 793 c 2,17,-1
 1051 793 l 1,18,19
 1053 783 1053 783 1055 766.5 c 128,-1,20
 1057 750 1057 750 1057 731 c 0,21,22
 1057 694 1057 694 1041.5 680 c 128,-1,23
 1026 666 1026 666 999 666 c 2,24,-1
 166 666 l 1,25,26
 164 676 164 676 162 692.5 c 128,-1,27
 160 709 160 709 160 727 c 0,14,15
EndSplineSet
EndChar

StartChar: greater
Encoding: 62 62 33
Width: 1232
GlyphClass: 2
Flags: W
LayerCount: 2
Fore
SplineSet
248 80 m 0,0,1
 248 135 248 135 281 154 c 2,2,-1
 920 524 l 1,3,-1
 281 897 l 2,4,5
 248 915 248 915 248 973 c 0,6,7
 248 989 248 989 253 1011.5 c 128,-1,8
 258 1034 258 1034 262 1049 c 1,9,-1
 1063 582 l 1,10,-1
 1063 471 l 1,11,-1
 262 6 l 1,12,13
 258 20 258 20 253 41.5 c 128,-1,14
 248 63 248 63 248 80 c 0,0,1
EndSplineSet
EndChar

StartChar: question
Encoding: 63 63 34
Width: 907
GlyphClass: 2
Flags: W
LayerCount: 2
Fore
SplineSet
41 1233 m 1,0,1
 72 1256 72 1256 116 1277 c 128,-1,2
 160 1298 160 1298 212 1315.5 c 128,-1,3
 264 1333 264 1333 322.5 1343.5 c 128,-1,4
 381 1354 381 1354 440 1354 c 0,5,6
 534 1354 534 1354 609 1329.5 c 128,-1,7
 684 1305 684 1305 736 1259.5 c 128,-1,8
 788 1214 788 1214 815 1154 c 128,-1,9
 842 1094 842 1094 842 1022 c 0,10,11
 842 963 842 963 823.5 915.5 c 128,-1,12
 805 868 805 868 778.5 831.5 c 128,-1,13
 752 795 752 795 720 769 c 128,-1,14
 688 743 688 743 662 729 c 0,15,16
 599 690 599 690 554.5 659.5 c 128,-1,17
 510 629 510 629 482.5 600 c 128,-1,18
 455 571 455 571 440.5 538.5 c 128,-1,19
 426 506 426 506 422 463 c 0,20,21
 420 438 420 438 404.5 428 c 128,-1,22
 389 418 389 418 362 418 c 0,23,24
 336 418 336 418 311 430 c 1,25,26
 305 520 305 520 331.5 582.5 c 128,-1,27
 358 645 358 645 401 689 c 128,-1,28
 444 733 444 733 496.5 766 c 128,-1,29
 549 799 549 799 595 832.5 c 128,-1,30
 641 866 641 866 671.5 908 c 128,-1,31
 702 950 702 950 702 1012 c 0,32,33
 702 1108 702 1108 634.5 1168.5 c 128,-1,34
 567 1229 567 1229 440 1229 c 0,35,36
 362 1229 362 1229 309 1214.5 c 128,-1,37
 256 1200 256 1200 218 1183.5 c 128,-1,38
 180 1167 180 1167 153.5 1153 c 128,-1,39
 127 1139 127 1139 102 1139 c 0,40,41
 75 1139 75 1139 58 1164.5 c 128,-1,42
 41 1190 41 1190 41 1233 c 1,0,1
266 84 m 0,43,44
 266 125 266 125 296 154.5 c 128,-1,45
 326 184 326 184 367 184 c 256,46,47
 408 184 408 184 437.5 154.5 c 128,-1,48
 467 125 467 125 467 84 c 0,49,50
 467 45 467 45 437.5 14.5 c 128,-1,51
 408 -16 408 -16 367 -16 c 256,52,53
 326 -16 326 -16 296 14.5 c 128,-1,54
 266 45 266 45 266 84 c 0,43,44
EndSplineSet
EndChar

StartChar: at
Encoding: 64 64 35
Width: 1411
GlyphClass: 2
Flags: W
LayerCount: 2
Fore
SplineSet
61 567 m 0,0,1
 61 710 61 710 113.5 833 c 128,-1,2
 166 956 166 956 256 1047.5 c 128,-1,3
 346 1139 346 1139 470 1190 c 128,-1,4
 594 1241 594 1241 739 1241 c 0,5,6
 889 1241 889 1241 1003.5 1190 c 128,-1,7
 1118 1139 1118 1139 1196 1056 c 128,-1,8
 1274 973 1274 973 1314 867.5 c 128,-1,9
 1354 762 1354 762 1354 653 c 0,10,11
 1354 559 1354 559 1329.5 485.5 c 128,-1,12
 1305 412 1305 412 1264 359.5 c 128,-1,13
 1223 307 1223 307 1169.5 279.5 c 128,-1,14
 1116 252 1116 252 1059 252 c 0,15,16
 989 252 989 252 948 284.5 c 128,-1,17
 907 317 907 317 895 365 c 1,18,19
 864 318 864 318 816 282 c 128,-1,20
 768 246 768 246 674 246 c 0,21,22
 619 246 619 246 569.5 266.5 c 128,-1,23
 520 287 520 287 481 327 c 128,-1,24
 442 367 442 367 419.5 423 c 128,-1,25
 397 479 397 479 397 553 c 0,26,27
 397 621 397 621 419.5 677 c 128,-1,28
 442 733 442 733 481 773 c 128,-1,29
 520 813 520 813 570.5 835.5 c 128,-1,30
 621 858 621 858 676 858 c 0,31,32
 744 858 744 858 794 829.5 c 128,-1,33
 844 801 844 801 874 754 c 1,34,-1
 877 754 l 1,35,36
 879 797 879 797 889 822.5 c 128,-1,37
 899 848 899 848 940 848 c 0,38,39
 950 848 950 848 961.5 846 c 128,-1,40
 973 844 973 844 981 842 c 1,41,-1
 981 446 l 2,42,43
 981 387 981 387 1006.5 366.5 c 128,-1,44
 1032 346 1032 346 1063 346 c 0,45,46
 1098 346 1098 346 1131.5 364.5 c 128,-1,47
 1165 383 1165 383 1193 421 c 128,-1,48
 1221 459 1221 459 1237 517 c 128,-1,49
 1253 575 1253 575 1253 653 c 0,50,51
 1253 751 1253 751 1217.5 840.5 c 128,-1,52
 1182 930 1182 930 1114.5 996.5 c 128,-1,53
 1047 1063 1047 1063 951.5 1102 c 128,-1,54
 856 1141 856 1141 737 1141 c 0,55,56
 628 1141 628 1141 527 1102 c 128,-1,57
 426 1063 426 1063 347 989 c 128,-1,58
 268 915 268 915 221 808.5 c 128,-1,59
 174 702 174 702 174 567 c 0,60,61
 174 428 174 428 218 319.5 c 128,-1,62
 262 211 262 211 337 136 c 128,-1,63
 412 61 412 61 510 22.5 c 128,-1,64
 608 -16 608 -16 717 -16 c 0,65,66
 789 -16 789 -16 843 -5 c 128,-1,67
 897 6 897 6 938 18.5 c 128,-1,68
 979 31 979 31 1006.5 42 c 128,-1,69
 1034 53 1034 53 1051 53 c 0,70,71
 1074 53 1074 53 1091 36.5 c 128,-1,72
 1108 20 1108 20 1104 -37 c 1,73,74
 1020 -72 1020 -72 921.5 -96.5 c 128,-1,75
 823 -121 823 -121 719 -121 c 0,76,77
 574 -121 574 -121 454 -68.5 c 128,-1,78
 334 -16 334 -16 246 76 c 128,-1,79
 158 168 158 168 109.5 294 c 128,-1,80
 61 420 61 420 61 567 c 0,0,1
512 551 m 0,81,82
 512 465 512 465 559 405.5 c 128,-1,83
 606 346 606 346 698 346 c 0,84,85
 753 346 753 346 800.5 377 c 128,-1,86
 848 408 848 408 874 455 c 1,87,-1
 874 645 l 1,88,89
 856 688 856 688 809 724 c 128,-1,90
 762 760 762 760 698 760 c 0,91,92
 651 760 651 760 616.5 742.5 c 128,-1,93
 582 725 582 725 559.5 696.5 c 128,-1,94
 537 668 537 668 524.5 630 c 128,-1,95
 512 592 512 592 512 551 c 0,81,82
EndSplineSet
EndChar

StartChar: A
Encoding: 65 65 36
Width: 1179
GlyphClass: 2
Flags: W
LayerCount: 2
Fore
SplineSet
12 6 m 1,0,-1
 496 1327 l 1,1,2
 547 1339 547 1339 592 1339 c 0,3,4
 653 1339 653 1339 677.5 1321 c 128,-1,5
 702 1303 702 1303 719 1255 c 2,6,-1
 1167 6 l 1,7,8
 1155 -2 1155 -2 1134.5 -6 c 128,-1,9
 1114 -10 1114 -10 1096 -10 c 0,10,11
 1069 -10 1069 -10 1045.5 0 c 128,-1,12
 1022 10 1022 10 1012 39 c 2,13,-1
 877 414 l 1,14,-1
 303 414 l 1,15,-1
 170 39 l 2,16,17
 160 10 160 10 136.5 0 c 128,-1,18
 113 -10 113 -10 86 -10 c 0,19,20
 68 -10 68 -10 47.5 -5 c 128,-1,21
 27 0 27 0 12 6 c 1,0,-1
346 541 m 1,22,-1
 834 541 l 1,23,-1
 594 1214 l 1,24,-1
 588 1214 l 1,25,-1
 346 541 l 1,22,-1
EndSplineSet
EndChar

StartChar: B
Encoding: 66 66 37
Width: 1169
GlyphClass: 2
Flags: W
LayerCount: 2
Fore
SplineSet
164 57 m 2,0,-1
 164 1274 l 2,1,2
 164 1299 164 1299 175 1315 c 128,-1,3
 186 1331 186 1331 227 1331 c 2,4,-1
 559 1331 l 2,5,6
 811 1331 811 1331 926.5 1241 c 128,-1,7
 1042 1151 1042 1151 1042 987 c 0,8,9
 1042 881 1042 881 977.5 799 c 128,-1,10
 913 717 913 717 807 688 c 1,11,12
 881 672 881 672 935 641 c 128,-1,13
 989 610 989 610 1023 568 c 128,-1,14
 1057 526 1057 526 1073.5 476 c 128,-1,15
 1090 426 1090 426 1090 375 c 0,16,17
 1090 193 1090 193 967 96.5 c 128,-1,18
 844 0 844 0 588 0 c 2,19,-1
 227 0 l 2,20,21
 186 0 186 0 175 16.5 c 128,-1,22
 164 33 164 33 164 57 c 2,0,-1
303 125 m 1,23,-1
 569 125 l 2,24,25
 762 125 762 125 853 185.5 c 128,-1,26
 944 246 944 246 944 381 c 0,27,28
 944 422 944 422 929.5 464 c 128,-1,29
 915 506 915 506 876.5 540.5 c 128,-1,30
 838 575 838 575 767 596.5 c 128,-1,31
 696 618 696 618 586 618 c 2,32,-1
 303 618 l 1,33,-1
 303 125 l 1,23,-1
303 739 m 1,34,-1
 586 739 l 2,35,36
 672 739 672 739 731.5 759.5 c 128,-1,37
 791 780 791 780 827.5 813 c 128,-1,38
 864 846 864 846 881.5 889 c 128,-1,39
 899 932 899 932 899 977 c 0,40,41
 899 1090 899 1090 818 1148 c 128,-1,42
 737 1206 737 1206 559 1206 c 2,43,-1
 303 1206 l 1,44,-1
 303 739 l 1,34,-1
EndSplineSet
EndChar

StartChar: C
Encoding: 67 67 38
Width: 1142
GlyphClass: 2
Flags: W
LayerCount: 2
Fore
SplineSet
68 655 m 0,0,1
 68 798 68 798 115 923.5 c 128,-1,2
 162 1049 162 1049 246 1141 c 128,-1,3
 330 1233 330 1233 448.5 1285 c 128,-1,4
 567 1337 567 1337 713 1337 c 0,5,6
 817 1337 817 1337 915.5 1312.5 c 128,-1,7
 1014 1288 1014 1288 1098 1253 c 1,8,9
 1099 1242 1099 1242 1099 1232 c 0,10,11
 1098 1183 1098 1183 1082 1164 c 0,12,13
 1062 1141 1062 1141 1034 1141 c 0,14,15
 1018 1141 1018 1141 991.5 1151 c 128,-1,16
 965 1161 965 1161 926 1173.5 c 128,-1,17
 887 1186 887 1186 834.5 1196 c 128,-1,18
 782 1206 782 1206 715 1206 c 0,19,20
 613 1206 613 1206 520.5 1168 c 128,-1,21
 428 1130 428 1130 359.5 1058.5 c 128,-1,22
 291 987 291 987 251 884.5 c 128,-1,23
 211 782 211 782 211 655 c 0,24,25
 211 522 211 522 251 420.5 c 128,-1,26
 291 319 291 319 359.5 248.5 c 128,-1,27
 428 178 428 178 520 142 c 128,-1,28
 612 106 612 106 715 106 c 0,29,30
 783 106 783 106 835 116.5 c 128,-1,31
 887 127 887 127 927 139.5 c 128,-1,32
 967 152 967 152 993.5 162 c 128,-1,33
 1020 172 1020 172 1038 172 c 0,34,35
 1068 172 1068 172 1086 148 c 0,36,37
 1101 129 1101 129 1101 81 c 0,38,39
 1101 71 1101 71 1100 59 c 1,40,41
 1016 24 1016 24 916.5 -0.5 c 128,-1,42
 817 -25 817 -25 713 -25 c 0,43,44
 568 -25 568 -25 449 25.5 c 128,-1,45
 330 76 330 76 246 167 c 128,-1,46
 162 258 162 258 115 383 c 128,-1,47
 68 508 68 508 68 655 c 0,0,1
EndSplineSet
EndChar

StartChar: D
Encoding: 68 68 39
Width: 1298
GlyphClass: 2
Flags: W
LayerCount: 2
Fore
SplineSet
164 57 m 2,0,-1
 164 1274 l 2,1,2
 164 1299 164 1299 175 1315 c 128,-1,3
 186 1331 186 1331 227 1331 c 2,4,-1
 532 1331 l 2,5,6
 692 1331 692 1331 821 1285 c 128,-1,7
 950 1239 950 1239 1041.5 1154 c 128,-1,8
 1133 1069 1133 1069 1182 948 c 128,-1,9
 1231 827 1231 827 1231 678 c 0,10,11
 1231 537 1231 537 1182 414 c 128,-1,12
 1133 291 1133 291 1041.5 198.5 c 128,-1,13
 950 106 950 106 821 53 c 128,-1,14
 692 0 692 0 532 0 c 2,15,-1
 227 0 l 2,16,17
 186 0 186 0 175 16.5 c 128,-1,18
 164 33 164 33 164 57 c 2,0,-1
305 125 m 1,19,-1
 539 125 l 2,20,21
 650 125 650 125 749 160 c 128,-1,22
 848 195 848 195 922.5 264.5 c 128,-1,23
 997 334 997 334 1041 437.5 c 128,-1,24
 1085 541 1085 541 1085 680 c 0,25,26
 1085 805 1085 805 1041 903 c 128,-1,27
 997 1001 997 1001 922.5 1069 c 128,-1,28
 848 1137 848 1137 748.5 1171.5 c 128,-1,29
 649 1206 649 1206 537 1206 c 2,30,-1
 305 1206 l 1,31,-1
 305 125 l 1,19,-1
EndSplineSet
EndChar

StartChar: E
Encoding: 69 69 40
Width: 1028
GlyphClass: 2
Flags: W
LayerCount: 2
Fore
SplineSet
164 57 m 2,0,-1
 164 1274 l 2,1,2
 164 1299 164 1299 175 1315 c 128,-1,3
 186 1331 186 1331 227 1331 c 2,4,-1
 924 1331 l 1,5,6
 928 1321 928 1321 930 1304.5 c 128,-1,7
 932 1288 932 1288 932 1270 c 0,8,9
 932 1233 932 1233 915.5 1219.5 c 128,-1,10
 899 1206 899 1206 877 1206 c 2,11,-1
 305 1206 l 1,12,-1
 305 727 l 1,13,-1
 868 727 l 1,14,15
 876 707 876 707 877 668 c 0,16,17
 877 631 877 631 862.5 617.5 c 128,-1,18
 848 604 848 604 825 604 c 2,19,-1
 305 604 l 1,20,-1
 305 125 l 1,21,-1
 936 125 l 1,22,23
 940 115 940 115 942 99.5 c 128,-1,24
 944 84 944 84 944 68 c 0,25,26
 944 29 944 29 928.5 14.5 c 128,-1,27
 913 0 913 0 891 0 c 2,28,-1
 227 0 l 2,29,30
 186 0 186 0 175 16.5 c 128,-1,31
 164 33 164 33 164 57 c 2,0,-1
EndSplineSet
EndChar

StartChar: F
Encoding: 70 70 41
Width: 989
GlyphClass: 2
Flags: W
LayerCount: 2
Fore
SplineSet
164 -4 m 1,0,-1
 164 1274 l 2,1,2
 164 1299 164 1299 175 1315 c 128,-1,3
 186 1331 186 1331 227 1331 c 2,4,-1
 956 1331 l 1,5,6
 960 1321 960 1321 962.5 1303.5 c 128,-1,7
 965 1286 965 1286 965 1270 c 0,8,9
 965 1229 965 1229 948.5 1217.5 c 128,-1,10
 932 1206 932 1206 907 1206 c 2,11,-1
 305 1206 l 1,12,-1
 305 721 l 1,13,-1
 901 721 l 1,14,15
 905 711 905 711 907 694.5 c 128,-1,16
 909 678 909 678 909 659 c 0,17,18
 909 622 909 622 894 607 c 128,-1,19
 879 592 879 592 856 592 c 2,20,-1
 305 592 l 1,21,-1
 305 43 l 2,22,23
 305 18 305 18 287.5 3 c 128,-1,24
 270 -12 270 -12 229 -12 c 0,25,26
 211 -12 211 -12 192.5 -10 c 128,-1,27
 174 -8 174 -8 164 -4 c 1,0,-1
EndSplineSet
EndChar

StartChar: G
Encoding: 71 71 42
Width: 1316
GlyphClass: 2
Flags: W
LayerCount: 2
Fore
SplineSet
68 670 m 0,0,1
 68 811 68 811 116 935 c 128,-1,2
 164 1059 164 1059 251 1151 c 128,-1,3
 338 1243 338 1243 460 1296.5 c 128,-1,4
 582 1350 582 1350 729 1350 c 0,5,6
 786 1350 786 1350 837.5 1344.5 c 128,-1,7
 889 1339 889 1339 941 1328 c 128,-1,8
 993 1317 993 1317 1047.5 1296.5 c 128,-1,9
 1102 1276 1102 1276 1163 1245 c 1,10,11
 1164 1235 1164 1235 1164 1226 c 0,12,13
 1164 1192 1164 1192 1152 1170 c 0,14,15
 1137 1141 1137 1141 1096 1141 c 0,16,17
 1078 1141 1078 1141 1052 1153 c 128,-1,18
 1026 1165 1026 1165 985 1180.5 c 128,-1,19
 944 1196 944 1196 883.5 1209.5 c 128,-1,20
 823 1223 823 1223 731 1223 c 0,21,22
 620 1223 620 1223 525 1181 c 128,-1,23
 430 1139 430 1139 360.5 1065 c 128,-1,24
 291 991 291 991 252 889.5 c 128,-1,25
 213 788 213 788 213 670 c 0,26,27
 213 551 213 551 252 447.5 c 128,-1,28
 291 344 291 344 360.5 267 c 128,-1,29
 430 190 430 190 526.5 146 c 128,-1,30
 623 102 623 102 737 102 c 0,31,32
 841 102 841 102 920 128 c 128,-1,33
 999 154 999 154 1065 190 c 1,34,-1
 1065 586 l 1,35,-1
 729 586 l 2,36,37
 704 586 704 586 689 600 c 128,-1,38
 674 614 674 614 674 653 c 0,39,40
 674 669 674 669 676 685.5 c 128,-1,41
 678 702 678 702 680 713 c 1,42,-1
 1137 713 l 2,43,44
 1178 713 1178 713 1189 696.5 c 128,-1,45
 1200 680 1200 680 1200 655 c 2,46,-1
 1200 115 l 1,47,48
 1145 82 1145 82 1093.5 56.5 c 128,-1,49
 1042 31 1042 31 987 13.5 c 128,-1,50
 932 -4 932 -4 870.5 -13.5 c 128,-1,51
 809 -23 809 -23 733 -23 c 0,52,53
 581 -23 581 -23 458.5 32.5 c 128,-1,54
 336 88 336 88 249 182 c 128,-1,55
 162 276 162 276 115 402 c 128,-1,56
 68 528 68 528 68 670 c 0,0,1
EndSplineSet
EndChar

StartChar: H
Encoding: 72 72 43
Width: 1347
GlyphClass: 2
Flags: W
LayerCount: 2
Fore
SplineSet
164 -4 m 1,0,-1
 164 1280 l 2,1,2
 164 1305 164 1305 181.5 1320 c 128,-1,3
 199 1335 199 1335 240 1335 c 0,4,5
 258 1335 258 1335 276.5 1333 c 128,-1,6
 295 1331 295 1331 305 1327 c 1,7,-1
 305 731 l 1,8,-1
 1042 731 l 1,9,-1
 1042 1280 l 2,10,11
 1042 1305 1042 1305 1059.5 1320 c 128,-1,12
 1077 1335 1077 1335 1118 1335 c 0,13,14
 1136 1335 1136 1335 1155 1333 c 128,-1,15
 1174 1331 1174 1331 1184 1327 c 1,16,-1
 1184 43 l 2,17,18
 1184 18 1184 18 1166.5 3 c 128,-1,19
 1149 -12 1149 -12 1108 -12 c 0,20,21
 1090 -12 1090 -12 1071.5 -10 c 128,-1,22
 1053 -8 1053 -8 1042 -4 c 1,23,-1
 1042 606 l 1,24,-1
 305 606 l 1,25,-1
 305 43 l 2,26,27
 305 18 305 18 287.5 3 c 128,-1,28
 270 -12 270 -12 229 -12 c 0,29,30
 211 -12 211 -12 192.5 -10 c 128,-1,31
 174 -8 174 -8 164 -4 c 1,0,-1
EndSplineSet
EndChar

StartChar: I
Encoding: 73 73 44
Width: 468
GlyphClass: 2
Flags: W
LayerCount: 2
Fore
SplineSet
164 -4 m 1,0,-1
 164 1280 l 2,1,2
 164 1305 164 1305 181.5 1320 c 128,-1,3
 199 1335 199 1335 240 1335 c 0,4,5
 258 1335 258 1335 276.5 1333 c 128,-1,6
 295 1331 295 1331 305 1327 c 1,7,-1
 305 43 l 2,8,9
 305 18 305 18 287.5 3 c 128,-1,10
 270 -12 270 -12 229 -12 c 0,11,12
 211 -12 211 -12 192.5 -10 c 128,-1,13
 174 -8 174 -8 164 -4 c 1,0,-1
EndSplineSet
EndChar

StartChar: J
Encoding: 74 74 45
Width: 864
GlyphClass: 2
Flags: W
LayerCount: 2
Fore
SplineSet
23 80 m 1,0,1
 22 90 22 90 22 100 c 0,2,3
 22 140 22 140 36 160 c 0,4,5
 53 184 53 184 82 184 c 0,6,7
 102 184 102 184 126 173 c 128,-1,8
 150 162 150 162 179.5 148.5 c 128,-1,9
 209 135 209 135 247 124 c 128,-1,10
 285 113 285 113 338 113 c 0,11,12
 440 113 440 113 504.5 171 c 128,-1,13
 569 229 569 229 569 352 c 2,14,-1
 569 1280 l 2,15,16
 569 1305 569 1305 586.5 1320 c 128,-1,17
 604 1335 604 1335 645 1335 c 0,18,19
 663 1335 663 1335 681.5 1333 c 128,-1,20
 700 1331 700 1331 711 1327 c 1,21,-1
 711 352 l 2,22,23
 711 170 711 170 612.5 78 c 128,-1,24
 514 -14 514 -14 358 -14 c 0,25,26
 254 -14 254 -14 174 10.5 c 128,-1,27
 94 35 94 35 23 80 c 1,0,1
EndSplineSet
EndChar

StartChar: K
Encoding: 75 75 46
Width: 1085
GlyphClass: 2
Flags: W
LayerCount: 2
Fore
SplineSet
164 -4 m 1,0,-1
 164 1280 l 2,1,2
 164 1305 164 1305 181.5 1320 c 128,-1,3
 199 1335 199 1335 240 1335 c 0,4,5
 258 1335 258 1335 276.5 1333 c 128,-1,6
 295 1331 295 1331 305 1327 c 1,7,-1
 305 694 l 1,8,-1
 877 1300 l 2,9,10
 889 1314 889 1314 907.5 1324.5 c 128,-1,11
 926 1335 926 1335 956 1335 c 0,12,13
 1013 1335 1013 1335 1061 1315 c 1,14,-1
 461 676 l 1,15,-1
 1083 12 l 1,16,17
 1040 -10 1040 -10 978 -10 c 0,18,19
 975 -10 975 -10 973 -10 c 0,20,21
 940 -10 940 -10 921.5 0 c 128,-1,22
 903 10 903 10 889 27 c 2,23,-1
 305 647 l 1,24,-1
 305 43 l 2,25,26
 305 18 305 18 287.5 3 c 128,-1,27
 270 -12 270 -12 229 -12 c 0,28,29
 211 -12 211 -12 192.5 -10 c 128,-1,30
 174 -8 174 -8 164 -4 c 1,0,-1
EndSplineSet
EndChar

StartChar: L
Encoding: 76 76 47
Width: 1003
GlyphClass: 2
Flags: W
LayerCount: 2
Fore
SplineSet
164 57 m 2,0,-1
 164 1280 l 2,1,2
 164 1305 164 1305 181.5 1320 c 128,-1,3
 199 1335 199 1335 240 1335 c 0,4,5
 258 1335 258 1335 276.5 1333 c 128,-1,6
 295 1331 295 1331 305 1327 c 1,7,-1
 305 125 l 1,8,-1
 977 125 l 1,9,10
 983 100 983 100 983 68 c 0,11,12
 983 27 983 27 966.5 13.5 c 128,-1,13
 950 0 950 0 920 0 c 2,14,-1
 227 0 l 2,15,16
 186 0 186 0 175 16.5 c 128,-1,17
 164 33 164 33 164 57 c 2,0,-1
EndSplineSet
EndChar

StartChar: M
Encoding: 77 77 48
Width: 1540
GlyphClass: 2
Flags: W
LayerCount: 2
Fore
SplineSet
88 4 m 1,0,-1
 227 1319 l 1,1,2
 245 1327 245 1327 277 1331 c 128,-1,3
 309 1335 309 1335 332 1335 c 0,4,5
 393 1335 393 1335 421 1317.5 c 128,-1,6
 449 1300 449 1300 463 1255 c 2,7,-1
 598 817 l 2,8,9
 637 694 637 694 680 553 c 128,-1,10
 723 412 723 412 770 250 c 1,11,12
 823 408 823 408 865 550 c 128,-1,13
 907 692 907 692 946 813 c 2,14,-1
 1087 1255 l 2,15,16
 1101 1300 1101 1300 1128 1317.5 c 128,-1,17
 1155 1335 1155 1335 1210 1335 c 0,18,19
 1239 1335 1239 1335 1267.5 1331 c 128,-1,20
 1296 1327 1296 1327 1315 1321 c 1,21,-1
 1452 4 l 1,22,23
 1440 0 1440 0 1422.5 -5 c 128,-1,24
 1405 -10 1405 -10 1382 -10 c 0,25,26
 1353 -10 1353 -10 1334 0 c 128,-1,27
 1315 10 1315 10 1311 39 c 2,28,-1
 1253 629 l 2,29,30
 1239 762 1239 762 1223.5 910.5 c 128,-1,31
 1208 1059 1208 1059 1194 1192 c 1,32,33
 1174 1131 1174 1131 1151 1061 c 128,-1,34
 1128 991 1128 991 1105.5 920.5 c 128,-1,35
 1083 850 1083 850 1061.5 781.5 c 128,-1,36
 1040 713 1040 713 1020 653 c 2,37,-1
 858 158 l 2,38,39
 848 125 848 125 827.5 110.5 c 128,-1,40
 807 96 807 96 766 96 c 0,41,42
 743 96 743 96 727 100 c 128,-1,43
 711 104 711 104 694 111 c 1,44,-1
 518 649 l 2,45,46
 473 790 473 790 430 924.5 c 128,-1,47
 387 1059 387 1059 344 1196 c 1,48,49
 326 1003 326 1003 309.5 851.5 c 128,-1,50
 293 700 293 700 281 584 c 2,51,-1
 227 39 l 2,52,53
 223 10 223 10 204 0 c 128,-1,54
 185 -10 185 -10 156 -10 c 0,55,56
 133 -10 133 -10 116.5 -5 c 128,-1,57
 100 0 100 0 88 4 c 1,0,-1
EndSplineSet
EndChar

StartChar: N
Encoding: 78 78 49
Width: 1351
GlyphClass: 2
Flags: W
LayerCount: 2
Fore
SplineSet
164 -2 m 1,0,-1
 164 1321 l 1,1,2
 203 1335 203 1335 246 1335 c 0,3,4
 301 1335 301 1335 326.5 1321 c 128,-1,5
 352 1307 352 1307 369 1278 c 2,6,-1
 1057 186 l 1,7,-1
 1057 1284 l 2,8,9
 1057 1307 1057 1307 1074.5 1321 c 128,-1,10
 1092 1335 1092 1335 1126 1335 c 0,11,12
 1144 1335 1144 1335 1161 1333 c 128,-1,13
 1178 1331 1178 1331 1188 1327 c 1,14,-1
 1188 6 l 1,15,16
 1172 0 1172 0 1151 -3 c 128,-1,17
 1130 -6 1130 -6 1110 -6 c 0,18,19
 1059 -6 1059 -6 1037.5 7 c 128,-1,20
 1016 20 1016 20 999 47 c 2,21,-1
 299 1157 l 1,22,-1
 299 43 l 2,23,24
 299 20 299 20 281.5 5 c 128,-1,25
 264 -10 264 -10 227 -10 c 0,26,27
 209 -10 209 -10 191.5 -8 c 128,-1,28
 174 -6 174 -6 164 -2 c 1,0,-1
EndSplineSet
EndChar

StartChar: O
Encoding: 79 79 50
Width: 1406
GlyphClass: 2
Flags: W
LayerCount: 2
Fore
SplineSet
68 670 m 0,0,1
 68 813 68 813 115 938 c 128,-1,2
 162 1063 162 1063 246 1155 c 128,-1,3
 330 1247 330 1247 447.5 1300.5 c 128,-1,4
 565 1354 565 1354 705 1354 c 0,5,6
 842 1354 842 1354 958.5 1301.5 c 128,-1,7
 1075 1249 1075 1249 1160 1157 c 128,-1,8
 1245 1065 1245 1065 1292 939 c 128,-1,9
 1339 813 1339 813 1339 670 c 0,10,11
 1339 525 1339 525 1292 398.5 c 128,-1,12
 1245 272 1245 272 1160 179 c 128,-1,13
 1075 86 1075 86 958.5 31.5 c 128,-1,14
 842 -23 842 -23 705 -23 c 0,15,16
 566 -23 566 -23 448 31.5 c 128,-1,17
 330 86 330 86 246 179 c 128,-1,18
 162 272 162 272 115 398 c 128,-1,19
 68 524 68 524 68 670 c 0,0,1
215 670 m 0,20,21
 215 547 215 547 254 442.5 c 128,-1,22
 293 338 293 338 358.5 262 c 128,-1,23
 424 186 424 186 513 144 c 128,-1,24
 602 102 602 102 702 102 c 256,25,26
 802 102 802 102 891.5 146 c 128,-1,27
 981 190 981 190 1047.5 266 c 128,-1,28
 1114 342 1114 342 1153 445.5 c 128,-1,29
 1192 549 1192 549 1192 670 c 0,30,31
 1192 789 1192 789 1153 891 c 128,-1,32
 1114 993 1114 993 1047.5 1068 c 128,-1,33
 981 1143 981 1143 892 1186 c 128,-1,34
 803 1229 803 1229 705 1229 c 0,35,36
 605 1229 605 1229 515.5 1187 c 128,-1,37
 426 1145 426 1145 359.5 1070 c 128,-1,38
 293 995 293 995 254 893 c 128,-1,39
 215 791 215 791 215 670 c 0,20,21
EndSplineSet
EndChar

StartChar: P
Encoding: 80 80 51
Width: 1083
GlyphClass: 2
Flags: W
LayerCount: 2
Fore
SplineSet
164 -4 m 1,0,-1
 164 1274 l 2,1,2
 164 1299 164 1299 175 1315 c 128,-1,3
 186 1331 186 1331 227 1331 c 2,4,-1
 543 1331 l 2,5,6
 662 1331 662 1331 753 1297.5 c 128,-1,7
 844 1264 844 1264 907.5 1205.5 c 128,-1,8
 971 1147 971 1147 1003.5 1067 c 128,-1,9
 1036 987 1036 987 1036 895 c 0,10,11
 1036 801 1036 801 1002.5 722 c 128,-1,12
 969 643 969 643 905.5 586.5 c 128,-1,13
 842 530 842 530 752 498.5 c 128,-1,14
 662 467 662 467 549 467 c 2,15,-1
 305 467 l 1,16,-1
 305 43 l 2,17,18
 305 18 305 18 287.5 3 c 128,-1,19
 270 -12 270 -12 229 -12 c 0,20,21
 211 -12 211 -12 192.5 -10 c 128,-1,22
 174 -8 174 -8 164 -4 c 1,0,-1
305 592 m 1,23,-1
 530 592 l 2,24,25
 706 592 706 592 798.5 672 c 128,-1,26
 891 752 891 752 891 895 c 0,27,28
 891 1040 891 1040 798 1123 c 128,-1,29
 705 1206 705 1206 535 1206 c 2,30,-1
 305 1206 l 1,31,-1
 305 592 l 1,23,-1
EndSplineSet
EndChar

StartChar: Q
Encoding: 81 81 52
Width: 1411
GlyphClass: 2
Flags: W
LayerCount: 2
Fore
SplineSet
68 670 m 0,0,1
 68 813 68 813 115 938 c 128,-1,2
 162 1063 162 1063 246 1155 c 128,-1,3
 330 1247 330 1247 447.5 1300.5 c 128,-1,4
 565 1354 565 1354 705 1354 c 0,5,6
 842 1354 842 1354 958.5 1300.5 c 128,-1,7
 1075 1247 1075 1247 1160 1155 c 128,-1,8
 1245 1063 1245 1063 1292 938 c 128,-1,9
 1339 813 1339 813 1339 670 c 0,10,11
 1339 541 1339 541 1302.5 430 c 128,-1,12
 1266 319 1266 319 1202.5 233 c 128,-1,13
 1139 147 1139 147 1052 88 c 128,-1,14
 965 29 965 29 864 2 c 1,15,-1
 864 -2 l 1,16,-1
 1333 -166 l 1,17,18
 1331 -219 1331 -219 1303.5 -244.5 c 128,-1,19
 1276 -270 1276 -270 1237 -270 c 0,20,21
 1204 -270 1204 -270 1174.5 -259 c 128,-1,22
 1145 -248 1145 -248 1128 -242 c 2,23,-1
 508 4 l 2,24,25
 295 90 295 90 181.5 261 c 128,-1,26
 68 432 68 432 68 670 c 0,0,1
215 670 m 0,27,28
 215 547 215 547 254 442.5 c 128,-1,29
 293 338 293 338 358.5 263 c 128,-1,30
 424 188 424 188 513 146 c 128,-1,31
 602 104 602 104 702 104 c 256,32,33
 802 104 802 104 891.5 147 c 128,-1,34
 981 190 981 190 1047.5 267 c 128,-1,35
 1114 344 1114 344 1153 446.5 c 128,-1,36
 1192 549 1192 549 1192 670 c 0,37,38
 1192 789 1192 789 1153 891 c 128,-1,39
 1114 993 1114 993 1047.5 1068 c 128,-1,40
 981 1143 981 1143 892 1185 c 128,-1,41
 803 1227 803 1227 705 1227 c 0,42,43
 605 1227 605 1227 515.5 1185 c 128,-1,44
 426 1143 426 1143 359.5 1069 c 128,-1,45
 293 995 293 995 254 893 c 128,-1,46
 215 791 215 791 215 670 c 0,27,28
EndSplineSet
EndChar

StartChar: R
Encoding: 82 82 53
Width: 1105
GlyphClass: 2
Flags: W
LayerCount: 2
Fore
SplineSet
164 -4 m 1,0,-1
 164 1274 l 2,1,2
 164 1299 164 1299 175 1315 c 128,-1,3
 186 1331 186 1331 227 1331 c 2,4,-1
 580 1331 l 2,5,6
 686 1331 686 1331 767 1301.5 c 128,-1,7
 848 1272 848 1272 902 1219.5 c 128,-1,8
 956 1167 956 1167 984 1097.5 c 128,-1,9
 1012 1028 1012 1028 1012 946 c 0,10,11
 1012 784 1012 784 903.5 679.5 c 128,-1,12
 795 575 795 575 569 559 c 1,13,-1
 1063 12 l 1,14,15
 1043 2 1043 2 1017 -5 c 128,-1,16
 991 -12 991 -12 961 -12 c 0,17,18
 902 -12 902 -12 870 29 c 2,19,-1
 406 557 l 1,20,-1
 305 557 l 1,21,-1
 305 43 l 2,22,23
 305 18 305 18 287.5 3 c 128,-1,24
 270 -12 270 -12 229 -12 c 0,25,26
 211 -12 211 -12 192.5 -10 c 128,-1,27
 174 -8 174 -8 164 -4 c 1,0,-1
305 680 m 1,28,-1
 522 680 l 2,29,30
 706 680 706 680 788 750.5 c 128,-1,31
 870 821 870 821 870 944 c 0,32,33
 870 1061 870 1061 796.5 1133.5 c 128,-1,34
 723 1206 723 1206 575 1206 c 2,35,-1
 305 1206 l 1,36,-1
 305 680 l 1,28,-1
EndSplineSet
EndChar

StartChar: S
Encoding: 83 83 54
Width: 1075
GlyphClass: 2
Flags: W
LayerCount: 2
Fore
SplineSet
82 55 m 1,0,1
 81 63 81 63 81 70 c 0,2,3
 80 110 80 110 100 134 c 0,4,5
 122 162 122 162 162 162 c 0,6,7
 187 162 187 162 219.5 152.5 c 128,-1,8
 252 143 252 143 296 132 c 128,-1,9
 340 121 340 121 397.5 111.5 c 128,-1,10
 455 102 455 102 528 102 c 0,11,12
 614 102 614 102 676.5 122.5 c 128,-1,13
 739 143 739 143 778 177 c 128,-1,14
 817 211 817 211 835.5 257 c 128,-1,15
 854 303 854 303 854 352 c 0,16,17
 854 454 854 454 788.5 504.5 c 128,-1,18
 723 555 723 555 612 586 c 2,19,-1
 428 639 l 2,20,21
 334 666 334 666 269.5 702.5 c 128,-1,22
 205 739 205 739 165 785 c 128,-1,23
 125 831 125 831 106.5 885.5 c 128,-1,24
 88 940 88 940 88 1001 c 0,25,26
 88 1060 88 1060 109.5 1123 c 128,-1,27
 131 1186 131 1186 182 1236 c 128,-1,28
 233 1286 233 1286 318 1319 c 128,-1,29
 403 1352 403 1352 530 1352 c 0,30,31
 630 1352 630 1352 728.5 1334.5 c 128,-1,32
 827 1317 827 1317 936 1276 c 1,33,34
 937 1268 937 1268 937 1261 c 0,35,36
 938 1221 938 1221 918 1197 c 0,37,38
 896 1169 896 1169 856 1169 c 0,39,40
 836 1169 836 1169 807 1178.5 c 128,-1,41
 778 1188 778 1188 738 1198 c 128,-1,42
 698 1208 698 1208 645 1217.5 c 128,-1,43
 592 1227 592 1227 524 1227 c 0,44,45
 440 1227 440 1227 383 1206.5 c 128,-1,46
 326 1186 326 1186 291 1153 c 128,-1,47
 256 1120 256 1120 241.5 1080 c 128,-1,48
 227 1040 227 1040 227 1004 c 0,49,50
 227 918 227 918 281.5 865.5 c 128,-1,51
 336 813 336 813 477 774 c 2,52,-1
 666 721 l 2,53,54
 838 672 838 672 918.5 582 c 128,-1,55
 999 492 999 492 999 362 c 0,56,57
 999 276 999 276 969.5 205.5 c 128,-1,58
 940 135 940 135 880.5 85 c 128,-1,59
 821 35 821 35 729 6 c 128,-1,60
 637 -23 637 -23 512 -23 c 0,61,62
 418 -23 418 -23 309.5 -5.5 c 128,-1,63
 201 12 201 12 82 55 c 1,0,1
EndSplineSet
EndChar

StartChar: T
Encoding: 84 84 55
Width: 1017
GlyphClass: 2
Flags: W
LayerCount: 2
Fore
SplineSet
2 1266 m 0,0,1
 2 1307 2 1307 17.5 1319 c 128,-1,2
 33 1331 33 1331 61 1331 c 2,3,-1
 1010 1331 l 1,4,5
 1012 1321 1012 1321 1014 1306.5 c 128,-1,6
 1016 1292 1016 1292 1016 1272 c 0,7,8
 1016 1235 1016 1235 999.5 1220.5 c 128,-1,9
 983 1206 983 1206 954 1206 c 2,10,-1
 580 1206 l 1,11,-1
 580 43 l 2,12,13
 580 18 580 18 562.5 3 c 128,-1,14
 545 -12 545 -12 504 -12 c 0,15,16
 486 -12 486 -12 467.5 -10 c 128,-1,17
 449 -8 449 -8 438 -4 c 1,18,-1
 438 1206 l 1,19,-1
 10 1206 l 1,20,21
 6 1216 6 1216 4 1231.5 c 128,-1,22
 2 1247 2 1247 2 1266 c 0,0,1
EndSplineSet
EndChar

StartChar: U
Encoding: 85 85 56
Width: 1323
GlyphClass: 2
Flags: W
LayerCount: 2
Fore
SplineSet
135 551 m 2,0,-1
 135 1280 l 2,1,2
 135 1305 135 1305 152.5 1320 c 128,-1,3
 170 1335 170 1335 211 1335 c 0,4,5
 229 1335 229 1335 247.5 1333 c 128,-1,6
 266 1331 266 1331 276 1327 c 1,7,-1
 276 541 l 2,8,9
 276 445 276 445 301 364 c 128,-1,10
 326 283 326 283 374 225.5 c 128,-1,11
 422 168 422 168 493.5 136 c 128,-1,12
 565 104 565 104 659 104 c 0,13,14
 749 104 749 104 822 136 c 128,-1,15
 895 168 895 168 945 224.5 c 128,-1,16
 995 281 995 281 1022 361.5 c 128,-1,17
 1049 442 1049 442 1049 541 c 2,18,-1
 1049 1280 l 2,19,20
 1049 1305 1049 1305 1065 1320 c 128,-1,21
 1081 1335 1081 1335 1122 1335 c 0,22,23
 1140 1335 1140 1335 1159 1333 c 128,-1,24
 1178 1331 1178 1331 1188 1327 c 1,25,-1
 1188 549 l 2,26,27
 1188 430 1188 430 1154 325.5 c 128,-1,28
 1120 221 1120 221 1053.5 143.5 c 128,-1,29
 987 66 987 66 887.5 20.5 c 128,-1,30
 788 -25 788 -25 659 -25 c 0,31,32
 528 -25 528 -25 430 20.5 c 128,-1,33
 332 66 332 66 266.5 143.5 c 128,-1,34
 201 221 201 221 168 325.5 c 128,-1,35
 135 430 135 430 135 551 c 2,0,-1
EndSplineSet
EndChar

StartChar: V
Encoding: 86 86 57
Width: 1177
GlyphClass: 2
Flags: W
LayerCount: 2
Fore
SplineSet
18 1323 m 1,0,1
 30 1331 30 1331 52 1335 c 128,-1,2
 74 1339 74 1339 92 1339 c 0,3,4
 119 1339 119 1339 144.5 1329 c 128,-1,5
 170 1319 170 1319 180 1290 c 2,6,-1
 354 780 l 2,7,8
 411 608 411 608 469.5 448.5 c 128,-1,9
 528 289 528 289 588 109 c 1,10,-1
 594 109 l 1,11,12
 623 201 623 201 651.5 283 c 128,-1,13
 680 365 680 365 708.5 445.5 c 128,-1,14
 737 526 737 526 767 608 c 128,-1,15
 797 690 797 690 827 782 c 2,16,-1
 1006 1290 l 2,17,18
 1016 1319 1016 1319 1039.5 1329 c 128,-1,19
 1063 1339 1063 1339 1090 1339 c 0,20,21
 1108 1339 1108 1339 1128.5 1334 c 128,-1,22
 1149 1329 1149 1329 1163 1323 c 1,23,-1
 702 47 l 2,24,25
 688 6 688 6 660.5 -7 c 128,-1,26
 633 -20 633 -20 580 -20 c 0,27,28
 529 -20 529 -20 489 -4 c 1,29,-1
 18 1323 l 1,0,1
EndSplineSet
EndChar

StartChar: W
Encoding: 87 87 58
Width: 1712
GlyphClass: 2
Flags: W
LayerCount: 2
Fore
SplineSet
39 1319 m 1,0,1
 53 1325 53 1325 71.5 1330 c 128,-1,2
 90 1335 90 1335 113 1335 c 0,3,4
 144 1335 144 1335 164 1323 c 128,-1,5
 184 1311 184 1311 190 1282 c 2,6,-1
 340 608 l 2,7,8
 367 483 367 483 391.5 362.5 c 128,-1,9
 416 242 416 242 440 117 c 1,10,-1
 444 117 l 1,11,12
 475 242 475 242 505 359.5 c 128,-1,13
 535 477 535 477 575 616 c 2,14,-1
 776 1321 l 1,15,16
 819 1333 819 1333 856 1333 c 0,17,18
 909 1333 909 1333 928.5 1318 c 128,-1,19
 948 1303 948 1303 961 1262 c 2,20,-1
 1147 616 l 2,21,22
 1184 487 1184 487 1215.5 360 c 128,-1,23
 1247 233 1247 233 1276 117 c 1,24,-1
 1280 117 l 1,25,26
 1292 174 1292 174 1305.5 240.5 c 128,-1,27
 1319 307 1319 307 1333.5 374.5 c 128,-1,28
 1348 442 1348 442 1361 507.5 c 128,-1,29
 1374 573 1374 573 1386 629 c 2,30,-1
 1528 1284 l 2,31,32
 1540 1335 1540 1335 1602 1335 c 0,33,34
 1625 1335 1625 1335 1642 1330 c 128,-1,35
 1659 1325 1659 1325 1671 1321 c 1,36,-1
 1384 51 l 2,37,38
 1374 10 1374 10 1346.5 -2 c 128,-1,39
 1319 -14 1319 -14 1276 -14 c 0,40,41
 1253 -14 1253 -14 1228.5 -10 c 128,-1,42
 1204 -6 1204 -6 1186 0 c 1,43,-1
 952 811 l 2,44,45
 932 883 932 883 906.5 983 c 128,-1,46
 881 1083 881 1083 858 1178 c 1,47,-1
 854 1178 l 1,48,49
 831 1080 831 1080 805.5 983.5 c 128,-1,50
 780 887 780 887 758 811 c 2,51,-1
 539 53 l 2,52,53
 529 12 529 12 506 -1 c 128,-1,54
 483 -14 483 -14 440 -14 c 0,55,56
 420 -14 420 -14 389 -11 c 128,-1,57
 358 -8 358 -8 340 0 c 1,58,-1
 39 1319 l 1,0,1
EndSplineSet
EndChar

StartChar: X
Encoding: 88 88 59
Width: 1118
GlyphClass: 2
Flags: W
LayerCount: 2
Fore
SplineSet
23 8 m 1,0,-1
 473 676 l 1,1,-1
 43 1315 l 1,2,3
 59 1325 59 1325 81.5 1330 c 128,-1,4
 104 1335 104 1335 127 1335 c 0,5,6
 156 1335 156 1335 178.5 1326 c 128,-1,7
 201 1317 201 1317 217 1294 c 2,8,-1
 561 774 l 1,9,-1
 899 1284 l 2,10,11
 934 1335 934 1335 995 1335 c 0,12,13
 1038 1335 1038 1335 1071 1319 c 1,14,-1
 641 674 l 1,15,-1
 1092 10 l 1,16,17
 1076 0 1076 0 1052 -5 c 128,-1,18
 1028 -10 1028 -10 1006 -10 c 0,19,20
 977 -10 977 -10 954.5 -1 c 128,-1,21
 932 8 932 8 915 31 c 2,22,-1
 553 571 l 1,23,-1
 201 41 l 2,24,25
 165 -10 165 -10 104 -10 c 0,26,27
 84 -10 84 -10 61.5 -5 c 128,-1,28
 39 0 39 0 23 8 c 1,0,-1
EndSplineSet
EndChar

StartChar: Y
Encoding: 89 89 60
Width: 1093
GlyphClass: 2
Flags: W
LayerCount: 2
Fore
SplineSet
-2 1315 m 1,0,1
 14 1325 14 1325 36.5 1330 c 128,-1,2
 59 1335 59 1335 82 1335 c 0,3,4
 111 1335 111 1335 133.5 1326 c 128,-1,5
 156 1317 156 1317 172 1294 c 2,6,-1
 551 707 l 1,7,-1
 926 1290 l 2,8,9
 944 1319 944 1319 967.5 1329 c 128,-1,10
 991 1339 991 1339 1022 1339 c 0,11,12
 1067 1339 1067 1339 1100 1323 c 1,13,-1
 621 584 l 1,14,-1
 621 43 l 2,15,16
 621 18 621 18 603.5 3 c 128,-1,17
 586 -12 586 -12 545 -12 c 0,18,19
 527 -12 527 -12 508 -10 c 128,-1,20
 489 -8 489 -8 479 -4 c 1,21,-1
 479 582 l 1,22,-1
 -2 1315 l 1,0,1
EndSplineSet
EndChar

StartChar: Z
Encoding: 90 90 61
Width: 1062
GlyphClass: 2
Flags: W
LayerCount: 2
Fore
SplineSet
78 1272 m 0,0,1
 78 1290 78 1290 80 1305.5 c 128,-1,2
 82 1321 82 1321 84 1331 c 1,3,-1
 973 1331 l 1,4,5
 975 1321 975 1321 978 1299.5 c 128,-1,6
 981 1278 981 1278 981 1260 c 0,7,8
 981 1233 981 1233 974 1201 c 128,-1,9
 967 1169 967 1169 944 1145 c 1,10,-1
 229 125 l 1,11,-1
 981 125 l 1,12,13
 985 115 985 115 987 100.5 c 128,-1,14
 989 86 989 86 989 68 c 0,15,16
 989 29 989 29 972.5 14.5 c 128,-1,17
 956 0 956 0 934 0 c 2,18,-1
 96 0 l 1,19,20
 92 12 92 12 89 35.5 c 128,-1,21
 86 59 86 59 86 80 c 0,22,23
 86 113 86 113 95 140.5 c 128,-1,24
 104 168 104 168 127 201 c 2,25,-1
 829 1206 l 1,26,-1
 135 1206 l 2,27,28
 110 1206 110 1206 94 1219.5 c 128,-1,29
 78 1233 78 1233 78 1272 c 0,0,1
EndSplineSet
EndChar

StartChar: bracketleft
Encoding: 91 91 62
Width: 761
GlyphClass: 2
Flags: W
LayerCount: 2
Fore
SplineSet
131 -350 m 2,0,-1
 131 1444 l 2,1,2
 131 1469 131 1469 142.5 1485 c 128,-1,3
 154 1501 154 1501 195 1501 c 2,4,-1
 573 1501 l 1,5,6
 579 1472 579 1472 580 1446 c 0,7,8
 580 1405 580 1405 564.5 1389.5 c 128,-1,9
 549 1374 549 1374 524 1374 c 2,10,-1
 266 1374 l 1,11,-1
 266 -283 l 1,12,-1
 573 -283 l 1,13,14
 575 -293 575 -293 577.5 -307.5 c 128,-1,15
 580 -322 580 -322 580 -336 c 0,16,17
 580 -377 580 -377 564.5 -392.5 c 128,-1,18
 549 -408 549 -408 524 -408 c 2,19,-1
 195 -408 l 2,20,21
 154 -408 154 -408 142.5 -391.5 c 128,-1,22
 131 -375 131 -375 131 -350 c 2,0,-1
EndSplineSet
EndChar

StartChar: backslash
Encoding: 92 92 63
Width: 714
GlyphClass: 2
Flags: W
LayerCount: 2
Fore
SplineSet
51 1350 m 1,0,1
 67 1356 67 1356 82.5 1360 c 128,-1,2
 98 1364 98 1364 121 1364 c 0,3,4
 148 1364 148 1364 166 1356 c 128,-1,5
 184 1348 184 1348 193 1325 c 2,6,-1
 588 -72 l 1,7,8
 572 -76 572 -76 556.5 -80 c 128,-1,9
 541 -84 541 -84 518 -84 c 256,10,11
 495 -84 495 -84 476 -77 c 128,-1,12
 457 -70 457 -70 446 -45 c 2,13,-1
 51 1350 l 1,0,1
EndSplineSet
EndChar

StartChar: bracketright
Encoding: 93 93 64
Width: 761
GlyphClass: 2
Flags: W
LayerCount: 2
Fore
SplineSet
129 -352 m 0,0,1
 129 -311 129 -311 144.5 -296 c 128,-1,2
 160 -281 160 -281 184 -281 c 2,3,-1
 442 -281 l 1,4,-1
 442 1376 l 1,5,-1
 135 1376 l 1,6,7
 133 1386 133 1386 131 1400.5 c 128,-1,8
 129 1415 129 1415 129 1430 c 0,9,10
 129 1471 129 1471 144.5 1486 c 128,-1,11
 160 1501 160 1501 184 1501 c 2,12,-1
 514 1501 l 2,13,14
 555 1501 555 1501 566.5 1484.5 c 128,-1,15
 578 1468 578 1468 578 1444 c 2,16,-1
 578 -350 l 2,17,18
 578 -375 578 -375 566.5 -391.5 c 128,-1,19
 555 -408 555 -408 514 -408 c 2,20,-1
 135 -408 l 1,21,22
 129 -381 129 -381 129 -352 c 0,0,1
EndSplineSet
EndChar

StartChar: asciicircum
Encoding: 94 94 65
Width: 1232
GlyphClass: 2
Flags: W
LayerCount: 2
Fore
SplineSet
328 928 m 1,0,-1
 543 1233 l 1,1,2
 582 1249 582 1249 625 1249 c 0,3,4
 666 1249 666 1249 687.5 1238 c 128,-1,5
 709 1227 709 1227 725 1206 c 2,6,-1
 924 930 l 1,7,8
 912 924 912 924 894.5 919.5 c 128,-1,9
 877 915 877 915 848 915 c 256,10,11
 819 915 819 915 801.5 923.5 c 128,-1,12
 784 932 784 932 768 954 c 2,13,-1
 625 1161 l 1,14,-1
 475 950 l 2,15,16
 448 915 448 915 401 915 c 0,17,18
 383 915 383 915 362.5 918.5 c 128,-1,19
 342 922 342 922 328 928 c 1,0,-1
EndSplineSet
EndChar

StartChar: underscore
Encoding: 95 95 66
Width: 956
GlyphClass: 2
Flags: W
LayerCount: 2
Fore
SplineSet
-18 -154 m 1,0,-1
 975 -154 l 1,1,-1
 975 -256 l 1,2,-1
 -18 -256 l 1,3,-1
 -18 -154 l 1,0,-1
EndSplineSet
EndChar

StartChar: grave
Encoding: 96 96 67
Width: 946
GlyphClass: 2
Flags: W
LayerCount: 2
Fore
SplineSet
348 1352 m 0,0,1
 348 1409 348 1409 418 1432 c 1,2,-1
 721 1143 l 1,3,4
 709 1129 709 1129 688.5 1119.5 c 128,-1,5
 668 1110 668 1110 643 1110 c 0,6,7
 623 1110 623 1110 600.5 1117 c 128,-1,8
 578 1124 578 1124 553 1143 c 2,9,-1
 412 1255 l 2,10,11
 349 1300 349 1300 348 1352 c 0,0,1
EndSplineSet
EndChar

StartChar: a
Encoding: 97 97 68
Width: 1048
GlyphClass: 2
Flags: W
LayerCount: 2
Fore
SplineSet
76 279 m 0,0,1
 76 420 76 420 175 506 c 128,-1,2
 274 592 274 592 496 592 c 0,3,4
 621 592 621 592 786 561 c 1,5,-1
 786 645 l 2,6,7
 786 770 786 770 729 824.5 c 128,-1,8
 672 879 672 879 532 879 c 0,9,10
 458 879 458 879 407 870.5 c 128,-1,11
 356 862 356 862 320.5 852 c 128,-1,12
 285 842 285 842 260.5 833.5 c 128,-1,13
 236 825 236 825 215 825 c 0,14,15
 184 825 184 825 168 853 c 0,16,17
 157 872 157 872 157 901 c 0,18,19
 157 916 157 916 160 934 c 1,20,21
 211 950 211 950 312.5 972.5 c 128,-1,22
 414 995 414 995 537 995 c 0,23,24
 650 995 650 995 723.5 968.5 c 128,-1,25
 797 942 797 942 840 892 c 128,-1,26
 883 842 883 842 900.5 769 c 128,-1,27
 918 696 918 696 918 604 c 2,28,-1
 918 391 l 2,29,30
 918 323 918 323 920 272 c 128,-1,31
 922 221 922 221 929 178 c 128,-1,32
 936 135 936 135 948.5 94 c 128,-1,33
 961 53 961 53 979 6 c 1,34,35
 965 -2 965 -2 949.5 -7 c 128,-1,36
 934 -12 934 -12 911 -12 c 0,37,38
 882 -12 882 -12 864 0 c 128,-1,39
 846 12 846 12 838 31 c 0,40,41
 828 51 828 51 818.5 89 c 128,-1,42
 809 127 809 127 803 180 c 1,43,-1
 799 180 l 1,44,45
 746 96 746 96 652.5 39 c 128,-1,46
 559 -18 559 -18 418 -18 c 0,47,48
 332 -18 332 -18 267.5 5.5 c 128,-1,49
 203 29 203 29 160 70 c 128,-1,50
 117 111 117 111 96.5 165 c 128,-1,51
 76 219 76 219 76 279 c 0,0,1
211 285 m 0,52,53
 211 201 211 201 272.5 148.5 c 128,-1,54
 334 96 334 96 440 96 c 0,55,56
 559 96 559 96 645 151.5 c 128,-1,57
 731 207 731 207 786 311 c 1,58,-1
 786 465 l 1,59,60
 630 494 630 494 524 494 c 0,61,62
 364 494 364 494 287.5 438.5 c 128,-1,63
 211 383 211 383 211 285 c 0,52,53
EndSplineSet
EndChar

StartChar: b
Encoding: 98 98 69
Width: 1140
GlyphClass: 2
Flags: W
LayerCount: 2
Fore
SplineSet
133 4 m 1,0,1
 137 70 137 70 140 167 c 128,-1,2
 143 264 143 264 143 379 c 2,3,-1
 143 1337 l 2,4,5
 143 1362 143 1362 158.5 1377.5 c 128,-1,6
 174 1393 174 1393 215 1393 c 0,7,8
 233 1393 233 1393 250.5 1391 c 128,-1,9
 268 1389 268 1389 279 1384 c 1,10,-1
 279 840 l 1,11,12
 324 899 324 899 411 947 c 128,-1,13
 498 995 498 995 621 995 c 0,14,15
 709 995 709 995 790.5 962.5 c 128,-1,16
 872 930 872 930 934.5 867.5 c 128,-1,17
 997 805 997 805 1035 711.5 c 128,-1,18
 1073 618 1073 618 1073 498 c 0,19,20
 1073 387 1073 387 1040.5 293 c 128,-1,21
 1008 199 1008 199 947.5 130 c 128,-1,22
 887 61 887 61 802.5 21.5 c 128,-1,23
 718 -18 718 -18 614 -18 c 0,24,25
 501 -18 501 -18 410 33 c 128,-1,26
 319 84 319 84 272 166 c 1,27,-1
 270 166 l 1,28,29
 270 148 270 148 270 122 c 128,-1,30
 270 96 270 96 268 74 c 0,31,32
 264 37 264 37 250 16.5 c 128,-1,33
 236 -4 236 -4 190 -4 c 0,34,35
 155 -4 155 -4 133 4 c 1,0,1
279 410 m 2,36,37
 279 344 279 344 303.5 287.5 c 128,-1,38
 328 231 328 231 371 189 c 128,-1,39
 414 147 414 147 471 123.5 c 128,-1,40
 528 100 528 100 596 100 c 0,41,42
 666 100 666 100 726 126 c 128,-1,43
 786 152 786 152 832.5 201 c 128,-1,44
 879 250 879 250 905.5 323.5 c 128,-1,45
 932 397 932 397 932 494 c 0,46,47
 932 586 932 586 905.5 656.5 c 128,-1,48
 879 727 879 727 832.5 776 c 128,-1,49
 786 825 786 825 725 851 c 128,-1,50
 664 877 664 877 592 877 c 0,51,52
 488 877 488 877 403.5 825.5 c 128,-1,53
 319 774 319 774 279 688 c 1,54,-1
 279 410 l 2,36,37
EndSplineSet
EndChar

StartChar: c
Encoding: 99 99 70
Width: 919
GlyphClass: 2
Flags: W
LayerCount: 2
Fore
SplineSet
68 485 m 256,0,1
 68 589 68 589 101.5 681.5 c 128,-1,2
 135 774 135 774 198.5 842.5 c 128,-1,3
 262 911 262 911 352 950 c 128,-1,4
 442 989 442 989 553 989 c 0,5,6
 657 989 657 989 730 967.5 c 128,-1,7
 803 946 803 946 862 913 c 1,8,9
 863 905 863 905 863 897 c 0,10,11
 864 862 864 862 848 840 c 0,12,13
 830 814 830 814 801 813 c 0,14,15
 783 813 783 813 763 822 c 128,-1,16
 743 831 743 831 716.5 841.5 c 128,-1,17
 690 852 690 852 652 861 c 128,-1,18
 614 870 614 870 559 870 c 0,19,20
 487 870 487 870 423.5 844.5 c 128,-1,21
 360 819 360 819 312 770 c 128,-1,22
 264 721 264 721 235.5 649.5 c 128,-1,23
 207 578 207 578 207 485 c 0,24,25
 207 395 207 395 235.5 324.5 c 128,-1,26
 264 254 264 254 312 205 c 128,-1,27
 360 156 360 156 423.5 130 c 128,-1,28
 487 104 487 104 559 104 c 0,29,30
 616 104 616 104 658 113.5 c 128,-1,31
 700 123 700 123 730 134 c 128,-1,32
 760 145 760 145 780.5 154.5 c 128,-1,33
 801 164 801 164 817 164 c 0,34,35
 850 164 850 164 866 138 c 0,36,37
 879 117 879 117 880 80 c 0,38,39
 880 71 880 71 879 61 c 1,40,41
 844 43 844 43 809 28.5 c 128,-1,42
 774 14 774 14 735 4 c 128,-1,43
 696 -6 696 -6 652 -11 c 128,-1,44
 608 -16 608 -16 553 -16 c 0,45,46
 442 -16 442 -16 352 22.5 c 128,-1,47
 262 61 262 61 198.5 130 c 128,-1,48
 135 199 135 199 101.5 290 c 128,-1,49
 68 381 68 381 68 485 c 256,0,1
EndSplineSet
EndChar

StartChar: d
Encoding: 100 100 71
Width: 1136
GlyphClass: 2
Flags: W
LayerCount: 2
Fore
SplineSet
68 500 m 0,0,1
 68 627 68 627 109 720 c 128,-1,2
 150 813 150 813 214.5 874.5 c 128,-1,3
 279 936 279 936 360.5 965.5 c 128,-1,4
 442 995 442 995 524 995 c 0,5,6
 628 995 628 995 714.5 954 c 128,-1,7
 801 913 801 913 860 842 c 1,8,-1
 860 1337 l 2,9,10
 860 1362 860 1362 875.5 1377.5 c 128,-1,11
 891 1393 891 1393 932 1393 c 0,12,13
 950 1393 950 1393 967.5 1391 c 128,-1,14
 985 1389 985 1389 995 1384 c 1,15,-1
 995 330 l 2,16,17
 995 230 995 230 998 148 c 128,-1,18
 1001 66 1001 66 1006 0 c 1,19,20
 979 -10 979 -10 942 -10 c 0,21,22
 874 -10 874 -10 874 61 c 2,23,-1
 874 154 l 1,24,-1
 872 154 l 1,25,26
 806 62 806 62 716 21 c 128,-1,27
 626 -20 626 -20 522 -20 c 0,28,29
 432 -20 432 -20 350 14.5 c 128,-1,30
 268 49 268 49 204.5 114.5 c 128,-1,31
 141 180 141 180 104.5 277.5 c 128,-1,32
 68 375 68 375 68 500 c 0,0,1
207 500 m 0,33,34
 207 318 207 318 299 208 c 128,-1,35
 391 98 391 98 549 98 c 0,36,37
 641 98 641 98 727 143 c 128,-1,38
 813 188 813 188 860 283 c 1,39,-1
 860 694 l 1,40,41
 813 786 813 786 727 832.5 c 128,-1,42
 641 879 641 879 547 879 c 0,43,44
 471 879 471 879 408.5 851 c 128,-1,45
 346 823 346 823 301 773 c 128,-1,46
 256 723 256 723 231.5 653.5 c 128,-1,47
 207 584 207 584 207 500 c 0,33,34
EndSplineSet
EndChar

StartChar: e
Encoding: 101 101 72
Width: 1042
GlyphClass: 2
Flags: W
LayerCount: 2
Fore
SplineSet
68 487 m 0,0,1
 68 596 68 596 103.5 689 c 128,-1,2
 139 782 139 782 202.5 850 c 128,-1,3
 266 918 266 918 351 956.5 c 128,-1,4
 436 995 436 995 535 995 c 0,5,6
 648 995 648 995 731.5 951 c 128,-1,7
 815 907 815 907 869.5 839.5 c 128,-1,8
 924 772 924 772 950.5 690 c 128,-1,9
 977 608 977 608 977 532 c 0,10,11
 977 466 977 466 971 442 c 1,12,-1
 203 442 l 1,13,14
 207 358 207 358 236.5 294.5 c 128,-1,15
 266 231 266 231 315.5 187 c 128,-1,16
 365 143 365 143 429.5 120.5 c 128,-1,17
 494 98 494 98 567 98 c 0,18,19
 628 98 628 98 674.5 108.5 c 128,-1,20
 721 119 721 119 757 131 c 128,-1,21
 793 143 793 143 819.5 153.5 c 128,-1,22
 846 164 846 164 868 164 c 0,23,24
 898 164 898 164 916 136 c 0,25,26
 929 117 929 117 928 89 c 0,27,28
 928 77 928 77 926 63 c 1,29,30
 871 34 871 34 777.5 5.5 c 128,-1,31
 684 -23 684 -23 571 -23 c 0,32,33
 452 -23 452 -23 358 16 c 128,-1,34
 264 55 264 55 199.5 125 c 128,-1,35
 135 195 135 195 101.5 287 c 128,-1,36
 68 379 68 379 68 487 c 0,0,1
205 545 m 1,37,-1
 848 545 l 1,38,39
 844 615 844 615 820.5 676 c 128,-1,40
 797 737 797 737 757 783 c 128,-1,41
 717 829 717 829 660.5 856 c 128,-1,42
 604 883 604 883 535 883 c 0,43,44
 465 883 465 883 406.5 857 c 128,-1,45
 348 831 348 831 305 785 c 128,-1,46
 262 739 262 739 236.5 678 c 128,-1,47
 211 617 211 617 205 545 c 1,37,-1
EndSplineSet
EndChar

StartChar: f
Encoding: 102 102 73
Width: 673
GlyphClass: 2
Flags: W
LayerCount: 2
Fore
SplineSet
45 907 m 0,0,1
 45 942 45 942 59.5 955.5 c 128,-1,2
 74 969 74 969 96 969 c 2,3,-1
 184 969 l 1,4,-1
 184 1079 l 2,5,6
 184 1165 184 1165 207.5 1228.5 c 128,-1,7
 231 1292 231 1292 274 1333 c 128,-1,8
 317 1374 317 1374 375.5 1394.5 c 128,-1,9
 434 1415 434 1415 502 1415 c 0,10,11
 574 1415 574 1415 646.5 1400.5 c 128,-1,12
 719 1386 719 1386 762 1370 c 1,13,14
 763 1359 763 1359 763 1350 c 0,15,16
 763 1310 763 1310 750 1292 c 0,17,18
 733 1268 733 1268 700 1268 c 0,19,20
 671 1268 671 1268 626.5 1282 c 128,-1,21
 582 1296 582 1296 504 1296 c 0,22,23
 418 1296 418 1296 370 1245 c 128,-1,24
 322 1194 322 1194 322 1071 c 2,25,-1
 322 969 l 1,26,-1
 674 969 l 1,27,28
 680 951 680 951 680 918 c 0,29,30
 680 883 680 883 665.5 869.5 c 128,-1,31
 651 856 651 856 629 856 c 2,32,-1
 322 856 l 1,33,-1
 322 43 l 2,34,35
 322 18 322 18 306.5 3 c 128,-1,36
 291 -12 291 -12 250 -12 c 0,37,38
 232 -12 232 -12 213.5 -10 c 128,-1,39
 195 -8 195 -8 184 -4 c 1,40,-1
 184 856 l 1,41,-1
 51 856 l 1,42,43
 49 866 49 866 47 879.5 c 128,-1,44
 45 893 45 893 45 907 c 0,0,1
EndSplineSet
EndChar

StartChar: g
Encoding: 103 103 74
Width: 1013
GlyphClass: 2
Flags: W
LayerCount: 2
Fore
SplineSet
55 -117 m 0,0,1
 55 -43 55 -43 97 21.5 c 128,-1,2
 139 86 139 86 219 127 c 1,3,4
 203 143 203 143 188.5 166.5 c 128,-1,5
 174 190 174 190 174 225 c 0,6,7
 174 264 174 264 197.5 300 c 128,-1,8
 221 336 221 336 264 348 c 1,9,10
 235 360 235 360 203.5 384 c 128,-1,11
 172 408 172 408 144.5 443.5 c 128,-1,12
 117 479 117 479 98.5 528.5 c 128,-1,13
 80 578 80 578 80 643 c 0,14,15
 80 719 80 719 107.5 784.5 c 128,-1,16
 135 850 135 850 187.5 896 c 128,-1,17
 240 942 240 942 313.5 968.5 c 128,-1,18
 387 995 387 995 479 995 c 0,19,20
 594 995 594 995 682 954 c 1,21,22
 750 966 750 966 823.5 980.5 c 128,-1,23
 897 995 897 995 963 1006 c 1,24,25
 973 996 973 996 981 979.5 c 128,-1,26
 989 963 989 963 989 944 c 0,27,28
 989 915 989 915 971.5 899 c 128,-1,29
 954 883 954 883 920 881 c 0,30,31
 897 880 897 880 872 880 c 0,32,33
 860 880 860 880 848 880 c 0,34,35
 811 881 811 881 778 881 c 1,36,-1
 776 879 l 1,37,38
 823 834 823 834 852 774.5 c 128,-1,39
 881 715 881 715 881 637 c 0,40,41
 881 487 881 487 775.5 395 c 128,-1,42
 670 303 670 303 479 303 c 0,43,44
 440 303 440 303 408.5 309 c 128,-1,45
 377 315 377 315 360 313 c 0,46,47
 331 309 331 309 313 294 c 128,-1,48
 295 279 295 279 295 250 c 0,49,50
 295 215 295 215 332 196.5 c 128,-1,51
 369 178 369 178 432 170 c 2,52,-1
 705 133 l 2,53,54
 855 113 855 113 916 49.5 c 128,-1,55
 977 -14 977 -14 977 -113 c 0,56,57
 977 -181 977 -181 947.5 -239 c 128,-1,58
 918 -297 918 -297 857.5 -339 c 128,-1,59
 797 -381 797 -381 707 -405.5 c 128,-1,60
 617 -430 617 -430 496 -430 c 0,61,62
 394 -430 394 -430 312.5 -405.5 c 128,-1,63
 231 -381 231 -381 174 -338 c 128,-1,64
 117 -295 117 -295 86 -237.5 c 128,-1,65
 55 -180 55 -180 55 -117 c 0,0,1
182 -100 m 0,66,67
 186 -192 186 -192 271 -254.5 c 128,-1,68
 356 -317 356 -317 514 -317 c 0,69,70
 596 -317 596 -317 657.5 -301 c 128,-1,71
 719 -285 719 -285 760 -257 c 128,-1,72
 801 -229 801 -229 820.5 -193.5 c 128,-1,73
 840 -158 840 -158 840 -121 c 0,74,75
 840 -66 840 -66 805 -35 c 128,-1,76
 770 -4 770 -4 672 10 c 2,77,-1
 422 45 l 2,78,79
 371 51 371 51 340 61.5 c 128,-1,80
 309 72 309 72 289 82 c 1,81,82
 238 53 238 53 208 6 c 0,83,84
 182 -35 182 -35 182 -86 c 0,85,86
 182 -93 182 -93 182 -100 c 0,66,67
215 643 m 256,87,88
 215 526 215 526 287.5 467 c 128,-1,89
 360 408 360 408 479 408 c 0,90,91
 604 408 604 408 677 467 c 128,-1,92
 750 526 750 526 750 643 c 256,93,94
 750 760 750 760 676 823.5 c 128,-1,95
 602 887 602 887 479 887 c 0,96,97
 358 887 358 887 286.5 823.5 c 128,-1,98
 215 760 215 760 215 643 c 256,87,88
EndSplineSet
EndChar

StartChar: h
Encoding: 104 104 75
Width: 1105
GlyphClass: 2
Flags: W
LayerCount: 2
Fore
SplineSet
137 -4 m 1,0,-1
 137 1337 l 2,1,2
 137 1362 137 1362 152.5 1377.5 c 128,-1,3
 168 1393 168 1393 209 1393 c 0,4,5
 227 1393 227 1393 245.5 1391 c 128,-1,6
 264 1389 264 1389 274 1384 c 1,7,-1
 274 834 l 1,8,9
 327 900 327 900 409.5 947.5 c 128,-1,10
 492 995 492 995 608 995 c 0,11,12
 682 995 682 995 748.5 970.5 c 128,-1,13
 815 946 815 946 865 896 c 128,-1,14
 915 846 915 846 945 767 c 128,-1,15
 975 688 975 688 975 580 c 2,16,-1
 975 43 l 2,17,18
 975 18 975 18 959.5 3 c 128,-1,19
 944 -12 944 -12 903 -12 c 0,20,21
 885 -12 885 -12 866.5 -10 c 128,-1,22
 848 -8 848 -8 838 -4 c 1,23,-1
 838 565 l 2,24,25
 838 723 838 723 765 800 c 128,-1,26
 692 877 692 877 569 877 c 0,27,28
 477 877 477 877 395 825.5 c 128,-1,29
 313 774 313 774 274 698 c 1,30,-1
 274 43 l 2,31,32
 274 18 274 18 259 3 c 128,-1,33
 244 -12 244 -12 203 -12 c 0,34,35
 185 -12 185 -12 166 -10 c 128,-1,36
 147 -8 147 -8 137 -4 c 1,0,-1
EndSplineSet
EndChar

StartChar: i
Encoding: 105 105 76
Width: 438
GlyphClass: 2
Flags: W
LayerCount: 2
Fore
SplineSet
131 1300 m 0,0,1
 131 1337 131 1337 156.5 1363 c 128,-1,2
 182 1389 182 1389 219 1389 c 256,3,4
 256 1389 256 1389 281.5 1363 c 128,-1,5
 307 1337 307 1337 307 1300 c 0,6,7
 307 1265 307 1265 281.5 1238.5 c 128,-1,8
 256 1212 256 1212 219 1212 c 256,9,10
 182 1212 182 1212 156.5 1239 c 128,-1,11
 131 1266 131 1266 131 1300 c 0,0,1
147 -4 m 1,12,-1
 147 924 l 2,13,14
 147 949 147 949 162.5 964 c 128,-1,15
 178 979 178 979 219 979 c 0,16,17
 237 979 237 979 255.5 977 c 128,-1,18
 274 975 274 975 285 971 c 1,19,-1
 285 43 l 2,20,21
 285 18 285 18 269.5 3 c 128,-1,22
 254 -12 254 -12 213 -12 c 0,23,24
 195 -12 195 -12 176.5 -10 c 128,-1,25
 158 -8 158 -8 147 -4 c 1,12,-1
EndSplineSet
EndChar

StartChar: j
Encoding: 106 106 77
Width: 450
GlyphClass: 2
Flags: W
LayerCount: 2
Fore
SplineSet
-78 -332 m 0,0,1
 -78 -299 -78 -299 -41 -281 c 0,2,3
 20 -250 20 -250 59 -224.5 c 128,-1,4
 98 -199 98 -199 120.5 -166 c 128,-1,5
 143 -133 143 -133 151.5 -89 c 128,-1,6
 160 -45 160 -45 160 20 c 2,7,-1
 160 924 l 2,8,9
 160 949 160 949 175 964 c 128,-1,10
 190 979 190 979 231 979 c 0,11,12
 249 979 249 979 268 977 c 128,-1,13
 287 975 287 975 297 971 c 1,14,-1
 297 37 l 2,15,16
 297 -55 297 -55 278.5 -125 c 128,-1,17
 260 -195 260 -195 220 -247 c 128,-1,18
 180 -299 180 -299 118.5 -338 c 128,-1,19
 57 -377 57 -377 -29 -408 c 1,20,21
 -78 -371 -78 -371 -78 -332 c 0,0,1
143 1300 m 0,22,23
 143 1337 143 1337 170 1363 c 128,-1,24
 197 1389 197 1389 231 1389 c 0,25,26
 268 1389 268 1389 295 1363 c 128,-1,27
 322 1337 322 1337 322 1300 c 0,28,29
 322 1265 322 1265 295 1238.5 c 128,-1,30
 268 1212 268 1212 231 1212 c 0,31,32
 196 1212 196 1212 169.5 1239 c 128,-1,33
 143 1266 143 1266 143 1300 c 0,22,23
EndSplineSet
EndChar

StartChar: k
Encoding: 107 107 78
Width: 940
GlyphClass: 2
Flags: W
LayerCount: 2
Fore
SplineSet
137 -4 m 1,0,-1
 137 1337 l 2,1,2
 137 1362 137 1362 152.5 1377.5 c 128,-1,3
 168 1393 168 1393 209 1393 c 0,4,5
 227 1393 227 1393 245.5 1389.5 c 128,-1,6
 264 1386 264 1386 274 1382 c 1,7,-1
 274 526 l 1,8,-1
 715 942 l 2,9,10
 733 960 733 960 757.5 970.5 c 128,-1,11
 782 981 782 981 821 981 c 0,12,13
 852 981 852 981 875.5 976 c 128,-1,14
 899 971 899 971 915 967 c 1,15,-1
 424 506 l 1,16,-1
 948 12 l 1,17,18
 930 6 930 6 906.5 1 c 128,-1,19
 883 -4 883 -4 850 -4 c 0,20,21
 809 -4 809 -4 784.5 6 c 128,-1,22
 760 16 760 16 739 37 c 2,23,-1
 274 485 l 1,24,-1
 274 43 l 2,25,26
 274 18 274 18 259 3 c 128,-1,27
 244 -12 244 -12 203 -12 c 0,28,29
 185 -12 185 -12 166 -10 c 128,-1,30
 147 -8 147 -8 137 -4 c 1,0,-1
EndSplineSet
EndChar

StartChar: l
Encoding: 108 108 79
Width: 411
GlyphClass: 2
Flags: W
LayerCount: 2
Fore
SplineSet
137 -4 m 1,0,-1
 137 1337 l 2,1,2
 137 1362 137 1362 152.5 1377.5 c 128,-1,3
 168 1393 168 1393 209 1393 c 0,4,5
 227 1393 227 1393 245.5 1389.5 c 128,-1,6
 264 1386 264 1386 274 1382 c 1,7,-1
 274 43 l 2,8,9
 274 18 274 18 259 3 c 128,-1,10
 244 -12 244 -12 203 -12 c 0,11,12
 185 -12 185 -12 166 -10 c 128,-1,13
 147 -8 147 -8 137 -4 c 1,0,-1
EndSplineSet
EndChar

StartChar: m
Encoding: 109 109 80
Width: 1601
GlyphClass: 2
Flags: W
LayerCount: 2
Fore
SplineSet
137 -4 m 1,0,-1
 137 969 l 1,1,2
 168 979 168 979 195 979 c 0,3,4
 273 979 273 979 272 889 c 2,5,-1
 272 842 l 1,6,-1
 274 842 l 1,7,8
 315 908 315 908 390 951.5 c 128,-1,9
 465 995 465 995 549 995 c 0,10,11
 645 995 645 995 726 946 c 128,-1,12
 807 897 807 897 840 799 c 1,13,14
 895 893 895 893 974 944 c 128,-1,15
 1053 995 1053 995 1157 995 c 0,16,17
 1243 995 1243 995 1303.5 966.5 c 128,-1,18
 1364 938 1364 938 1401 890 c 128,-1,19
 1438 842 1438 842 1454 777.5 c 128,-1,20
 1470 713 1470 713 1470 641 c 2,21,-1
 1470 43 l 2,22,23
 1470 18 1470 18 1455 3 c 128,-1,24
 1440 -12 1440 -12 1399 -12 c 0,25,26
 1381 -12 1381 -12 1362 -10 c 128,-1,27
 1343 -8 1343 -8 1333 -4 c 1,28,-1
 1333 635 l 2,29,30
 1333 752 1333 752 1277 814.5 c 128,-1,31
 1221 877 1221 877 1128 877 c 0,32,33
 1030 877 1030 877 967.5 825.5 c 128,-1,34
 905 774 905 774 872 705 c 1,35,-1
 872 43 l 2,36,37
 872 18 872 18 857 3 c 128,-1,38
 842 -12 842 -12 801 -12 c 0,39,40
 783 -12 783 -12 764 -10 c 128,-1,41
 745 -8 745 -8 735 -4 c 1,42,-1
 735 635 l 2,43,44
 735 752 735 752 678 814.5 c 128,-1,45
 621 877 621 877 522 877 c 0,46,47
 436 877 436 877 370.5 825.5 c 128,-1,48
 305 774 305 774 274 707 c 1,49,-1
 274 43 l 2,50,51
 274 18 274 18 259 3 c 128,-1,52
 244 -12 244 -12 203 -12 c 0,53,54
 185 -12 185 -12 166 -10 c 128,-1,55
 147 -8 147 -8 137 -4 c 1,0,-1
EndSplineSet
EndChar

StartChar: n
Encoding: 110 110 81
Width: 1105
GlyphClass: 2
Flags: W
LayerCount: 2
Fore
SplineSet
137 -4 m 1,0,-1
 137 969 l 1,1,2
 168 979 168 979 195 979 c 0,3,4
 273 979 273 979 272 889 c 2,5,-1
 272 831 l 1,6,-1
 276 831 l 1,7,8
 329 903 329 903 412.5 949 c 128,-1,9
 496 995 496 995 608 995 c 0,10,11
 786 995 786 995 880.5 881.5 c 128,-1,12
 975 768 975 768 975 582 c 2,13,-1
 975 43 l 2,14,15
 975 18 975 18 959.5 3 c 128,-1,16
 944 -12 944 -12 903 -12 c 0,17,18
 885 -12 885 -12 866.5 -10 c 128,-1,19
 848 -8 848 -8 838 -4 c 1,20,-1
 838 567 l 2,21,22
 838 727 838 727 765 802 c 128,-1,23
 692 877 692 877 569 877 c 0,24,25
 528 877 528 877 484 864.5 c 128,-1,26
 440 852 440 852 400 828.5 c 128,-1,27
 360 805 360 805 327.5 772 c 128,-1,28
 295 739 295 739 274 698 c 1,29,-1
 274 43 l 2,30,31
 274 18 274 18 259 3 c 128,-1,32
 244 -12 244 -12 203 -12 c 0,33,34
 185 -12 185 -12 166 -10 c 128,-1,35
 147 -8 147 -8 137 -4 c 1,0,-1
EndSplineSet
EndChar

StartChar: o
Encoding: 111 111 82
Width: 1105
GlyphClass: 2
Flags: W
LayerCount: 2
Fore
SplineSet
68 487 m 0,0,1
 68 589 68 589 102.5 681.5 c 128,-1,2
 137 774 137 774 201.5 843.5 c 128,-1,3
 266 913 266 913 356 954 c 128,-1,4
 446 995 446 995 557 995 c 256,5,6
 668 995 668 995 756 954 c 128,-1,7
 844 913 844 913 907.5 843.5 c 128,-1,8
 971 774 971 774 1004.5 682 c 128,-1,9
 1038 590 1038 590 1038 487 c 0,10,11
 1038 383 1038 383 1004.5 292 c 128,-1,12
 971 201 971 201 908.5 131 c 128,-1,13
 846 61 846 61 757 21.5 c 128,-1,14
 668 -18 668 -18 557 -18 c 256,15,16
 446 -18 446 -18 356 20.5 c 128,-1,17
 266 59 266 59 201.5 127 c 128,-1,18
 137 195 137 195 102.5 287 c 128,-1,19
 68 379 68 379 68 487 c 0,0,1
203 487 m 0,20,21
 203 389 203 389 233.5 316.5 c 128,-1,22
 264 244 264 244 314.5 194.5 c 128,-1,23
 365 145 365 145 428 121.5 c 128,-1,24
 491 98 491 98 557 98 c 0,25,26
 618 98 618 98 679.5 121.5 c 128,-1,27
 741 145 741 145 790.5 193.5 c 128,-1,28
 840 242 840 242 871.5 315.5 c 128,-1,29
 903 389 903 389 903 487 c 0,30,31
 903 579 903 579 874.5 652 c 128,-1,32
 846 725 846 725 799 775 c 128,-1,33
 752 825 752 825 689.5 852 c 128,-1,34
 627 879 627 879 557 879 c 0,35,36
 491 879 491 879 428 852 c 128,-1,37
 365 825 365 825 314.5 775 c 128,-1,38
 264 725 264 725 233.5 652.5 c 128,-1,39
 203 580 203 580 203 487 c 0,20,21
EndSplineSet
EndChar

StartChar: p
Encoding: 112 112 83
Width: 1134
GlyphClass: 2
Flags: W
LayerCount: 2
Fore
SplineSet
137 -385 m 1,0,-1
 137 969 l 1,1,2
 168 979 168 979 195 979 c 0,3,4
 273 979 273 979 272 889 c 2,5,-1
 272 819 l 1,6,-1
 274 819 l 1,7,8
 333 901 333 901 413.5 948 c 128,-1,9
 494 995 494 995 612 995 c 0,10,11
 704 995 704 995 787 958.5 c 128,-1,12
 870 922 870 922 932.5 854 c 128,-1,13
 995 786 995 786 1031 692 c 128,-1,14
 1067 598 1067 598 1067 483 c 0,15,16
 1067 352 1067 352 1026 257 c 128,-1,17
 985 162 985 162 919.5 100.5 c 128,-1,18
 854 39 854 39 773 9.5 c 128,-1,19
 692 -20 692 -20 610 -20 c 0,20,21
 493 -20 493 -20 407.5 27 c 128,-1,22
 322 74 322 74 274 133 c 1,23,-1
 274 -338 l 2,24,25
 274 -363 274 -363 259 -378 c 128,-1,26
 244 -393 244 -393 203 -393 c 0,27,28
 185 -393 185 -393 166 -391 c 128,-1,29
 147 -389 147 -389 137 -385 c 1,0,-1
274 281 m 1,30,31
 313 203 313 203 394 149.5 c 128,-1,32
 475 96 475 96 586 96 c 0,33,34
 660 96 660 96 722 123 c 128,-1,35
 784 150 784 150 829 199 c 128,-1,36
 874 248 874 248 900 319.5 c 128,-1,37
 926 391 926 391 926 483 c 0,38,39
 926 559 926 559 905.5 629.5 c 128,-1,40
 885 700 885 700 842 755.5 c 128,-1,41
 799 811 799 811 735.5 844 c 128,-1,42
 672 877 672 877 586 877 c 0,43,44
 494 877 494 877 408 826.5 c 128,-1,45
 322 776 322 776 274 682 c 1,46,-1
 274 281 l 1,30,31
EndSplineSet
EndChar

StartChar: q
Encoding: 113 113 84
Width: 1134
GlyphClass: 2
Flags: W
LayerCount: 2
Fore
SplineSet
68 479 m 0,0,1
 68 592 68 592 103.5 687 c 128,-1,2
 139 782 139 782 200.5 851 c 128,-1,3
 262 920 262 920 345 957.5 c 128,-1,4
 428 995 428 995 522 995 c 0,5,6
 639 995 639 995 727 941 c 128,-1,7
 815 887 815 887 858 809 c 1,8,-1
 860 809 l 1,9,-1
 860 889 l 2,10,11
 860 979 860 979 938 979 c 0,12,13
 965 979 965 979 995 969 c 1,14,-1
 995 -338 l 2,15,16
 995 -363 995 -363 980 -378 c 128,-1,17
 965 -393 965 -393 924 -393 c 0,18,19
 906 -393 906 -393 887 -391 c 128,-1,20
 868 -389 868 -389 858 -385 c 1,21,-1
 858 131 l 1,22,23
 792 53 792 53 703 17.5 c 128,-1,24
 614 -18 614 -18 528 -18 c 0,25,26
 432 -18 432 -18 348 19.5 c 128,-1,27
 264 57 264 57 201.5 123.5 c 128,-1,28
 139 190 139 190 103.5 281.5 c 128,-1,29
 68 373 68 373 68 479 c 0,0,1
207 479 m 256,30,31
 207 399 207 399 229.5 328.5 c 128,-1,32
 252 258 252 258 296 207 c 128,-1,33
 340 156 340 156 402.5 126 c 128,-1,34
 465 96 465 96 545 96 c 0,35,36
 641 96 641 96 727 142 c 128,-1,37
 813 188 813 188 860 281 c 1,38,-1
 860 555 l 2,39,40
 860 621 860 621 836.5 679 c 128,-1,41
 813 737 813 737 771 781 c 128,-1,42
 729 825 729 825 671.5 851 c 128,-1,43
 614 877 614 877 547 877 c 0,44,45
 463 877 463 877 399.5 845 c 128,-1,46
 336 813 336 813 293 757.5 c 128,-1,47
 250 702 250 702 228.5 630.5 c 128,-1,48
 207 559 207 559 207 479 c 256,30,31
EndSplineSet
EndChar

StartChar: r
Encoding: 114 114 85
Width: 684
GlyphClass: 2
Flags: W
LayerCount: 2
Fore
SplineSet
137 -4 m 1,0,-1
 137 969 l 1,1,2
 168 979 168 979 195 979 c 0,3,4
 273 979 273 979 272 889 c 2,5,-1
 272 795 l 1,6,-1
 276 795 l 1,7,8
 325 906 325 906 406 949.5 c 128,-1,9
 487 993 487 993 586 993 c 0,10,11
 645 993 645 993 698 977 c 1,12,13
 701 959 701 959 701 944 c 0,14,15
 702 907 702 907 684 886 c 0,16,17
 662 860 662 860 627 860 c 0,18,19
 622 860 622 860 618 860 c 0,20,21
 594 863 594 863 570 863 c 0,22,23
 532 863 532 863 494 855 c 0,24,25
 432 842 432 842 383 804 c 128,-1,26
 334 766 334 766 304 699.5 c 128,-1,27
 274 633 274 633 274 535 c 2,28,-1
 274 43 l 2,29,30
 274 18 274 18 259 3 c 128,-1,31
 244 -12 244 -12 203 -12 c 0,32,33
 185 -12 185 -12 166 -10 c 128,-1,34
 147 -8 147 -8 137 -4 c 1,0,-1
EndSplineSet
EndChar

StartChar: s
Encoding: 115 115 86
Width: 935
GlyphClass: 2
Flags: W
LayerCount: 2
Fore
SplineSet
78 61 m 1,0,1
 74 79 74 79 74 94 c 0,2,3
 74 117 74 117 83 135 c 0,4,5
 98 164 98 164 131 164 c 0,6,7
 154 164 154 164 184.5 153.5 c 128,-1,8
 215 143 215 143 257 132 c 128,-1,9
 299 121 299 121 351 110.5 c 128,-1,10
 403 100 403 100 467 100 c 0,11,12
 551 100 551 100 601 115.5 c 128,-1,13
 651 131 651 131 678 155.5 c 128,-1,14
 705 180 705 180 713 209 c 128,-1,15
 721 238 721 238 721 262 c 0,16,17
 721 323 721 323 677 355 c 128,-1,18
 633 387 633 387 524 418 c 2,19,-1
 352 465 l 2,20,21
 205 506 205 506 141.5 571.5 c 128,-1,22
 78 637 78 637 78 725 c 0,23,24
 78 776 78 776 96.5 825 c 128,-1,25
 115 874 115 874 160 912 c 128,-1,26
 205 950 205 950 276.5 972.5 c 128,-1,27
 348 995 348 995 457 995 c 0,28,29
 549 995 549 995 633 979 c 128,-1,30
 717 963 717 963 809 930 c 1,31,32
 811 915 811 915 811 903 c 0,33,34
 811 830 811 830 752 829 c 0,35,36
 734 829 734 829 707 837.5 c 128,-1,37
 680 846 680 846 644 856 c 128,-1,38
 608 866 608 866 562 874.5 c 128,-1,39
 516 883 516 883 457 883 c 0,40,41
 324 883 324 883 268.5 840 c 128,-1,42
 213 797 213 797 213 737 c 0,43,44
 213 712 213 712 219 691 c 128,-1,45
 225 670 225 670 244.5 651.5 c 128,-1,46
 264 633 264 633 300 616.5 c 128,-1,47
 336 600 336 600 395 584 c 2,48,-1
 561 539 l 2,49,50
 645 516 645 516 701.5 489.5 c 128,-1,51
 758 463 758 463 792.5 430 c 128,-1,52
 827 397 827 397 842.5 357 c 128,-1,53
 858 317 858 317 858 266 c 0,54,55
 858 219 858 219 842.5 170 c 128,-1,56
 827 121 827 121 784 80 c 128,-1,57
 741 39 741 39 664.5 12.5 c 128,-1,58
 588 -14 588 -14 467 -14 c 0,59,60
 365 -14 365 -14 268.5 6.5 c 128,-1,61
 172 27 172 27 78 61 c 1,0,1
EndSplineSet
EndChar

StartChar: t
Encoding: 116 116 87
Width: 784
GlyphClass: 2
Flags: W
LayerCount: 2
Fore
SplineSet
16 909 m 0,0,1
 16 944 16 944 29.5 956.5 c 128,-1,2
 43 969 43 969 63 969 c 2,3,-1
 182 969 l 1,4,-1
 182 1167 l 2,5,6
 182 1196 182 1196 196.5 1220.5 c 128,-1,7
 211 1245 211 1245 262 1245 c 0,8,9
 274 1245 274 1245 290.5 1243 c 128,-1,10
 307 1241 307 1241 317 1237 c 1,11,-1
 317 969 l 1,12,-1
 688 969 l 1,13,14
 694 951 694 951 694 918 c 0,15,16
 694 883 694 883 681 870.5 c 128,-1,17
 668 858 668 858 647 858 c 2,18,-1
 317 858 l 1,19,-1
 317 307 l 2,20,21
 317 215 317 215 362.5 159.5 c 128,-1,22
 408 104 408 104 502 104 c 0,23,24
 539 104 539 104 568.5 112.5 c 128,-1,25
 598 121 598 121 621.5 131 c 128,-1,26
 645 141 645 141 663.5 149.5 c 128,-1,27
 682 158 682 158 698 158 c 0,28,29
 726 158 726 158 742 136 c 0,30,31
 753 120 753 120 754 89 c 0,32,33
 754 77 754 77 752 63 c 1,34,35
 699 28 699 28 634 7 c 128,-1,36
 569 -14 569 -14 487 -14 c 0,37,38
 342 -14 342 -14 262 73 c 128,-1,39
 182 160 182 160 182 299 c 2,40,-1
 182 858 l 1,41,-1
 23 858 l 1,42,43
 17 876 17 876 16 909 c 0,0,1
EndSplineSet
EndChar

StartChar: u
Encoding: 117 117 88
Width: 1112
GlyphClass: 2
Flags: W
LayerCount: 2
Fore
SplineSet
131 393 m 2,0,-1
 131 924 l 2,1,2
 131 949 131 949 146.5 964 c 128,-1,3
 162 979 162 979 203 979 c 0,4,5
 221 979 221 979 239.5 977 c 128,-1,6
 258 975 258 975 268 971 c 1,7,-1
 268 397 l 2,8,9
 268 245 268 245 343 172.5 c 128,-1,10
 418 100 418 100 528 100 c 0,11,12
 614 100 614 100 693 146.5 c 128,-1,13
 772 193 772 193 831 291 c 1,14,-1
 831 924 l 2,15,16
 831 949 831 949 846.5 964 c 128,-1,17
 862 979 862 979 903 979 c 0,18,19
 921 979 921 979 939.5 977 c 128,-1,20
 958 975 958 975 969 971 c 1,21,-1
 969 453 l 2,22,23
 969 355 969 355 975 245 c 128,-1,24
 981 135 981 135 1016 6 c 1,25,26
 1004 0 1004 0 983.5 -5 c 128,-1,27
 963 -10 963 -10 942 -10 c 0,28,29
 887 -10 887 -10 872 35 c 0,30,31
 868 47 868 47 860 82 c 128,-1,32
 852 117 852 117 846 164 c 1,33,-1
 844 164 l 1,34,35
 785 80 785 80 701 31 c 128,-1,36
 617 -18 617 -18 502 -18 c 0,37,38
 424 -18 424 -18 357.5 6.5 c 128,-1,39
 291 31 291 31 239.5 81 c 128,-1,40
 188 131 188 131 159.5 209 c 128,-1,41
 131 287 131 287 131 393 c 2,0,-1
EndSplineSet
EndChar

StartChar: v
Encoding: 118 118 89
Width: 890
GlyphClass: 2
Flags: W
LayerCount: 2
Fore
SplineSet
0 965 m 1,0,1
 10 971 10 971 31.5 975 c 128,-1,2
 53 979 53 979 72 979 c 0,3,4
 101 979 101 979 123 968.5 c 128,-1,5
 145 958 145 958 156 930 c 2,6,-1
 334 442 l 2,7,8
 365 356 365 356 390.5 280.5 c 128,-1,9
 416 205 416 205 444 121 c 1,10,-1
 446 121 l 1,11,12
 475 203 475 203 501.5 278.5 c 128,-1,13
 528 354 528 354 561 442 c 2,14,-1
 743 932 l 2,15,16
 753 961 753 961 774 970 c 128,-1,17
 795 979 795 979 823 979 c 0,18,19
 839 979 839 979 860 975 c 128,-1,20
 881 971 881 971 891 965 c 1,21,-1
 535 43 l 2,22,23
 525 10 525 10 503 -2 c 128,-1,24
 481 -14 481 -14 440 -14 c 0,25,26
 401 -14 401 -14 369 -2 c 1,27,-1
 0 965 l 1,0,1
EndSplineSet
EndChar

StartChar: w
Encoding: 119 119 90
Width: 1372
GlyphClass: 2
Flags: W
LayerCount: 2
Fore
SplineSet
18 963 m 1,0,1
 32 969 32 969 52 974 c 128,-1,2
 72 979 72 979 94 979 c 0,3,4
 127 979 127 979 147.5 966.5 c 128,-1,5
 168 954 168 954 176 924 c 2,6,-1
 293 432 l 2,7,8
 313 342 313 342 329.5 265 c 128,-1,9
 346 188 346 188 362 117 c 1,10,-1
 367 117 l 1,11,12
 375 150 375 150 386 193 c 128,-1,13
 397 236 397 236 410.5 279 c 128,-1,14
 424 322 424 322 435 364 c 128,-1,15
 446 406 446 406 455 436 c 2,16,-1
 616 965 l 1,17,18
 655 977 655 977 690 977 c 0,19,20
 741 977 741 977 758.5 963.5 c 128,-1,21
 776 950 776 950 788 909 c 2,22,-1
 928 436 l 2,23,24
 957 340 957 340 977 261 c 128,-1,25
 997 182 997 182 1014 115 c 1,26,-1
 1018 115 l 1,27,28
 1032 183 1032 183 1048.5 258.5 c 128,-1,29
 1065 334 1065 334 1090 432 c 2,30,-1
 1214 930 l 2,31,32
 1226 979 1226 979 1286 979 c 0,33,34
 1309 979 1309 979 1325 974 c 128,-1,35
 1341 969 1341 969 1354 965 c 1,36,-1
 1116 47 l 2,37,38
 1106 12 1106 12 1076.5 -1 c 128,-1,39
 1047 -14 1047 -14 1012 -14 c 0,40,41
 992 -14 992 -14 966 -11 c 128,-1,42
 940 -8 940 -8 926 -4 c 1,43,-1
 688 815 l 1,44,-1
 463 51 l 2,45,46
 453 12 453 12 424 -1 c 128,-1,47
 395 -14 395 -14 356 -14 c 0,48,49
 338 -14 338 -14 310.5 -11 c 128,-1,50
 283 -8 283 -8 268 -2 c 1,51,-1
 18 963 l 1,0,1
EndSplineSet
EndChar

StartChar: x
Encoding: 120 120 91
Width: 933
GlyphClass: 2
Flags: W
LayerCount: 2
Fore
SplineSet
39 6 m 1,0,-1
 387 502 l 1,1,-1
 63 963 l 1,2,3
 79 969 79 969 103 974 c 128,-1,4
 127 979 127 979 147 979 c 0,5,6
 206 979 206 979 229 944 c 2,7,-1
 471 588 l 1,8,-1
 719 942 l 2,9,10
 742 979 742 979 799 979 c 0,11,12
 817 979 817 979 839.5 975 c 128,-1,13
 862 971 862 971 879 965 c 1,14,-1
 545 496 l 1,15,-1
 893 6 l 1,16,17
 877 0 877 0 853 -5 c 128,-1,18
 829 -10 829 -10 809 -10 c 0,19,20
 750 -10 750 -10 727 25 c 2,21,-1
 459 410 l 1,22,-1
 199 25 l 2,23,24
 176 -10 176 -10 117 -10 c 0,25,26
 97 -10 97 -10 76 -5 c 128,-1,27
 55 0 55 0 39 6 c 1,0,-1
EndSplineSet
EndChar

StartChar: y
Encoding: 121 121 92
Width: 915
GlyphClass: 2
Flags: W
LayerCount: 2
Fore
SplineSet
8 963 m 1,0,1
 24 969 24 969 41.5 974 c 128,-1,2
 59 979 59 979 80 979 c 0,3,4
 113 979 113 979 135.5 966.5 c 128,-1,5
 158 954 158 954 170 922 c 2,6,-1
 469 152 l 1,7,-1
 471 152 l 1,8,-1
 764 924 l 2,9,10
 776 955 776 955 797.5 967 c 128,-1,11
 819 979 819 979 842 979 c 0,12,13
 860 979 860 979 880.5 974 c 128,-1,14
 901 969 901 969 918 963 c 1,15,-1
 399 -340 l 2,16,17
 387 -371 387 -371 366 -383 c 128,-1,18
 345 -395 345 -395 322 -395 c 0,19,20
 304 -395 304 -395 283 -390 c 128,-1,21
 262 -385 262 -385 246 -379 c 1,22,-1
 406 -6 l 1,23,-1
 8 963 l 1,0,1
EndSplineSet
EndChar

StartChar: z
Encoding: 122 122 93
Width: 894
GlyphClass: 2
Flags: W
LayerCount: 2
Fore
SplineSet
59 57 m 0,0,1
 59 80 59 80 64.5 101.5 c 128,-1,2
 70 123 70 123 88 145 c 2,3,-1
 662 858 l 1,4,-1
 125 858 l 2,5,6
 102 858 102 858 88 871.5 c 128,-1,7
 74 885 74 885 74 920 c 0,8,9
 74 936 74 936 76 950.5 c 128,-1,10
 78 965 78 965 80 973 c 1,11,-1
 821 973 l 1,12,13
 823 965 823 965 825 949.5 c 128,-1,14
 827 934 827 934 827 920 c 0,15,16
 827 902 827 902 822 878 c 128,-1,17
 817 854 817 854 801 836 c 2,18,-1
 219 115 l 1,19,-1
 831 115 l 1,20,21
 835 95 835 95 836 63 c 0,22,23
 836 26 836 26 822.5 13 c 128,-1,24
 809 0 809 0 786 0 c 2,25,-1
 66 0 l 1,26,27
 64 10 64 10 61.5 25.5 c 128,-1,28
 59 41 59 41 59 57 c 0,0,1
EndSplineSet
EndChar

StartChar: braceleft
Encoding: 123 123 94
Width: 589
GlyphClass: 2
Flags: W
LayerCount: 2
Fore
SplineSet
94 424 m 1,0,-1
 94 520 l 1,1,2
 127 528 127 528 156.5 538.5 c 128,-1,3
 186 549 186 549 208.5 564.5 c 128,-1,4
 231 580 231 580 244.5 603.5 c 128,-1,5
 258 627 258 627 258 662 c 0,6,7
 258 705 258 705 250 749 c 128,-1,8
 242 793 242 793 232.5 837 c 128,-1,9
 223 881 223 881 216 927 c 128,-1,10
 209 973 209 973 209 1022 c 0,11,12
 209 1131 209 1131 259 1210.5 c 128,-1,13
 309 1290 309 1290 428 1354 c 1,14,15
 477 1329 477 1329 477 1288 c 0,16,17
 477 1249 477 1249 451 1229 c 0,18,19
 377 1184 377 1184 353.5 1128.5 c 128,-1,20
 330 1073 330 1073 330 1014 c 0,21,22
 330 928 330 928 349.5 835.5 c 128,-1,23
 369 743 369 743 369 645 c 0,24,25
 369 584 369 584 336 539 c 128,-1,26
 303 494 303 494 244 473 c 1,27,28
 303 455 303 455 335 405.5 c 128,-1,29
 367 356 367 356 367 299 c 0,30,31
 367 250 367 250 359.5 197.5 c 128,-1,32
 352 145 352 145 345 95 c 128,-1,33
 338 45 338 45 332 -1 c 128,-1,34
 326 -47 326 -47 326 -86 c 0,35,36
 328 -141 328 -141 353.5 -189.5 c 128,-1,37
 379 -238 379 -238 451 -283 c 0,38,39
 465 -293 465 -293 471 -306 c 128,-1,40
 477 -319 477 -319 477 -340 c 0,41,42
 477 -360 477 -360 463 -377 c 128,-1,43
 449 -394 449 -394 426 -406 c 1,44,45
 363 -369 363 -369 321 -330 c 128,-1,46
 279 -291 279 -291 254 -251 c 128,-1,47
 229 -211 229 -211 219 -171 c 128,-1,48
 209 -131 209 -131 209 -96 c 0,49,50
 209 -39 209 -39 216 13.5 c 128,-1,51
 223 66 223 66 232.5 113 c 128,-1,52
 242 160 242 160 250 203 c 128,-1,53
 258 246 258 246 258 283 c 0,54,55
 258 355 258 355 212 382.5 c 128,-1,56
 166 410 166 410 94 424 c 1,0,-1
EndSplineSet
EndChar

StartChar: bar
Encoding: 124 124 95
Width: 546
GlyphClass: 2
Flags: W
LayerCount: 2
Fore
SplineSet
211 -385 m 1,0,-1
 211 1309 l 2,1,2
 211 1332 211 1332 225.5 1346 c 128,-1,3
 240 1360 240 1360 276 1360 c 0,4,5
 292 1360 292 1360 309 1357 c 128,-1,6
 326 1354 326 1354 336 1350 c 1,7,-1
 336 -342 l 2,8,9
 336 -365 336 -365 321.5 -379 c 128,-1,10
 307 -393 307 -393 270 -393 c 0,11,12
 254 -393 254 -393 237.5 -391 c 128,-1,13
 221 -389 221 -389 211 -385 c 1,0,-1
EndSplineSet
EndChar

StartChar: braceright
Encoding: 125 125 96
Width: 589
GlyphClass: 2
Flags: W
LayerCount: 2
Fore
SplineSet
115 -336 m 0,0,1
 115 -299 115 -299 141 -281 c 0,2,3
 215 -236 215 -236 238.5 -180.5 c 128,-1,4
 262 -125 262 -125 262 -66 c 0,5,6
 262 20 262 20 241.5 112.5 c 128,-1,7
 221 205 221 205 221 303 c 0,8,9
 221 364 221 364 254 409.5 c 128,-1,10
 287 455 287 455 346 475 c 1,11,12
 287 493 287 493 255 542.5 c 128,-1,13
 223 592 223 592 223 649 c 0,14,15
 223 698 223 698 230.5 750.5 c 128,-1,16
 238 803 238 803 246 853 c 128,-1,17
 254 903 254 903 260 949 c 128,-1,18
 266 995 266 995 266 1034 c 0,19,20
 264 1089 264 1089 238.5 1137.5 c 128,-1,21
 213 1186 213 1186 150 1227 c 0,22,23
 115 1252 115 1252 115 1294 c 0,24,25
 115 1333 115 1333 162 1354 c 1,26,27
 230 1317 230 1317 271.5 1278 c 128,-1,28
 313 1239 313 1239 337.5 1199 c 128,-1,29
 362 1159 362 1159 372.5 1119 c 128,-1,30
 383 1079 383 1079 383 1044 c 0,31,32
 383 987 383 987 375 935 c 128,-1,33
 367 883 367 883 357.5 835.5 c 128,-1,34
 348 788 348 788 341 745 c 128,-1,35
 334 702 334 702 334 666 c 0,36,37
 334 594 334 594 380 566.5 c 128,-1,38
 426 539 426 539 498 524 c 1,39,-1
 498 428 l 1,40,41
 465 420 465 420 435.5 409.5 c 128,-1,42
 406 399 406 399 383 384 c 128,-1,43
 360 369 360 369 347 345.5 c 128,-1,44
 334 322 334 322 334 287 c 0,45,46
 334 244 334 244 341 200 c 128,-1,47
 348 156 348 156 357.5 111 c 128,-1,48
 367 66 367 66 375 20.5 c 128,-1,49
 383 -25 383 -25 383 -74 c 0,50,51
 383 -183 383 -183 333 -263 c 128,-1,52
 283 -343 283 -343 164 -406 c 1,53,54
 115 -381 115 -381 115 -336 c 0,0,1
EndSplineSet
EndChar

StartChar: asciitilde
Encoding: 126 126 97
Width: 1232
GlyphClass: 2
Flags: W
LayerCount: 2
Fore
SplineSet
229 356 m 1,0,-1
 383 649 l 1,1,2
 395 657 395 657 416.5 663.5 c 128,-1,3
 438 670 438 670 467 670 c 0,4,5
 524 670 524 670 559 633 c 1,6,-1
 782 432 l 1,7,-1
 897 657 l 1,8,-1
 1004 657 l 1,9,-1
 852 365 l 1,10,11
 834 357 834 357 812 351.5 c 128,-1,12
 790 346 790 346 772 346 c 0,13,14
 731 346 731 346 710.5 359.5 c 128,-1,15
 690 373 690 373 674 389 c 2,16,-1
 457 586 l 1,17,-1
 336 356 l 1,18,-1
 229 356 l 1,0,-1
EndSplineSet
EndChar

StartChar: exclamdown
Encoding: 161 161 99
Width: 522
GlyphClass: 2
Flags: W
LayerCount: 2
Fore
SplineSet
162 1247 m 256,0,1
 162 1288 162 1288 191.5 1318 c 128,-1,2
 221 1348 221 1348 262 1348 c 256,3,4
 303 1348 303 1348 331.5 1318 c 128,-1,5
 360 1288 360 1288 360 1247 c 256,6,7
 360 1206 360 1206 331.5 1176.5 c 128,-1,8
 303 1147 303 1147 262 1147 c 256,9,10
 221 1147 221 1147 191.5 1176.5 c 128,-1,11
 162 1206 162 1206 162 1247 c 256,0,1
180 4 m 1,12,-1
 209 862 l 2,13,14
 213 889 213 889 226.5 898 c 128,-1,15
 240 907 240 907 266 907 c 0,16,17
 291 907 291 907 307 897 c 1,18,-1
 348 68 l 2,19,20
 352 -6 352 -6 258 -6 c 0,21,22
 211 -6 211 -6 180 4 c 1,12,-1
EndSplineSet
EndChar

StartChar: cent
Encoding: 162 162 100
Width: 1232
GlyphClass: 2
Flags: W
LayerCount: 2
Fore
SplineSet
213 575 m 256,0,1
 213 673 213 673 242.5 759.5 c 128,-1,2
 272 846 272 846 327.5 912.5 c 128,-1,3
 383 979 383 979 463 1021 c 128,-1,4
 543 1063 543 1063 643 1075 c 1,5,-1
 643 1292 l 2,6,7
 643 1315 643 1315 655.5 1327 c 128,-1,8
 668 1339 668 1339 702 1339 c 0,9,10
 718 1339 718 1339 733 1335 c 128,-1,11
 748 1331 748 1331 758 1327 c 1,12,-1
 758 1077 l 1,13,14
 838 1071 838 1071 897 1054.5 c 128,-1,15
 956 1038 956 1038 1008 1010 c 1,16,17
 1012 963 1012 963 993.5 937 c 128,-1,18
 975 911 975 911 946 911 c 0,19,20
 930 911 930 911 913.5 917.5 c 128,-1,21
 897 924 897 924 875.5 932 c 128,-1,22
 854 940 854 940 825.5 947 c 128,-1,23
 797 954 797 954 758 958 c 1,24,-1
 758 193 l 1,25,26
 801 195 801 195 832.5 203 c 128,-1,27
 864 211 864 211 888.5 220 c 128,-1,28
 913 229 913 229 930.5 237.5 c 128,-1,29
 948 246 948 246 965 246 c 0,30,31
 1035 246 1035 246 1026 147 c 1,32,33
 965 116 965 116 903.5 98 c 128,-1,34
 842 80 842 80 758 74 c 1,35,-1
 758 -160 l 2,36,37
 758 -183 758 -183 744.5 -195 c 128,-1,38
 731 -207 731 -207 696 -207 c 0,39,40
 680 -207 680 -207 665.5 -205 c 128,-1,41
 651 -203 651 -203 643 -201 c 1,42,-1
 643 76 l 1,43,44
 543 86 543 86 463 128 c 128,-1,45
 383 170 383 170 327.5 236.5 c 128,-1,46
 272 303 272 303 242.5 390 c 128,-1,47
 213 477 213 477 213 575 c 256,0,1
352 575 m 0,48,49
 352 495 352 495 374.5 431 c 128,-1,50
 397 367 397 367 436 318.5 c 128,-1,51
 475 270 475 270 528.5 239.5 c 128,-1,52
 582 209 582 209 643 199 c 1,53,-1
 643 954 l 1,54,55
 582 944 582 944 528.5 914.5 c 128,-1,56
 475 885 475 885 436 836.5 c 128,-1,57
 397 788 397 788 374.5 722.5 c 128,-1,58
 352 657 352 657 352 575 c 0,48,49
EndSplineSet
EndChar

StartChar: sterling
Encoding: 163 163 101
Width: 1232
GlyphClass: 2
Flags: W
LayerCount: 2
Fore
SplineSet
141 623 m 0,0,1
 141 658 141 658 156.5 672 c 128,-1,2
 172 686 172 686 195 686 c 2,3,-1
 332 686 l 1,4,5
 316 752 316 752 295 828.5 c 128,-1,6
 274 905 274 905 274 981 c 0,7,8
 274 1055 274 1055 298 1121.5 c 128,-1,9
 322 1188 322 1188 371 1240 c 128,-1,10
 420 1292 420 1292 494.5 1323 c 128,-1,11
 569 1354 569 1354 670 1354 c 0,12,13
 774 1354 774 1354 866 1322 c 128,-1,14
 958 1290 958 1290 1022 1251 c 1,15,16
 1018 1210 1018 1210 1001.5 1181.5 c 128,-1,17
 985 1153 985 1153 954 1153 c 0,18,19
 936 1153 936 1153 910.5 1165.5 c 128,-1,20
 885 1178 885 1178 850 1191 c 128,-1,21
 815 1204 815 1204 767 1216.5 c 128,-1,22
 719 1229 719 1229 655 1229 c 0,23,24
 538 1229 538 1229 476 1161.5 c 128,-1,25
 414 1094 414 1094 414 981 c 0,26,27
 414 932 414 932 420 892 c 128,-1,28
 426 852 426 852 433 817 c 128,-1,29
 440 782 440 782 449.5 750.5 c 128,-1,30
 459 719 459 719 465 686 c 1,31,-1
 862 686 l 1,32,33
 864 676 864 676 866 660.5 c 128,-1,34
 868 645 868 645 868 629 c 0,35,36
 868 592 868 592 854 578.5 c 128,-1,37
 840 565 840 565 817 565 c 2,38,-1
 473 565 l 1,39,40
 471 450 471 450 437 346 c 128,-1,41
 403 242 403 242 342 129 c 1,42,-1
 1022 129 l 1,43,44
 1024 119 1024 119 1026 102.5 c 128,-1,45
 1028 86 1028 86 1028 68 c 0,46,47
 1028 0 1028 0 956 0 c 2,48,-1
 193 0 l 1,49,50
 189 10 189 10 186.5 20.5 c 128,-1,51
 184 31 184 31 184 66 c 0,52,53
 184 109 184 109 210 156 c 128,-1,54
 236 203 236 203 266.5 262.5 c 128,-1,55
 297 322 297 322 321.5 395.5 c 128,-1,56
 346 469 346 469 346 565 c 1,57,-1
 150 565 l 1,58,59
 146 575 146 575 143.5 590.5 c 128,-1,60
 141 606 141 606 141 623 c 0,0,1
EndSplineSet
EndChar

StartChar: currency
Encoding: 164 164 102
Width: 1232
GlyphClass: 2
Flags: W
LayerCount: 2
Fore
SplineSet
207 197 m 1,0,-1
 332 324 l 1,1,2
 303 369 303 369 286.5 420 c 128,-1,3
 270 471 270 471 270 528 c 0,4,5
 270 639 270 639 332 729 c 1,6,-1
 207 856 l 1,7,-1
 297 948 l 1,8,-1
 424 819 l 1,9,10
 465 850 465 850 516 867.5 c 128,-1,11
 567 885 567 885 625 885 c 0,12,13
 682 885 682 885 734 867.5 c 128,-1,14
 786 850 786 850 827 819 c 1,15,-1
 956 946 l 1,16,-1
 1044 858 l 1,17,-1
 915 729 l 1,18,19
 981 645 981 645 981 528 c 0,20,21
 981 413 981 413 918 326 c 1,22,-1
 1044 199 l 1,23,-1
 956 109 l 1,24,-1
 827 236 l 1,25,26
 739 173 739 173 625 172 c 0,27,28
 510 172 510 172 422 236 c 1,29,-1
 295 109 l 1,30,-1
 207 197 l 1,0,-1
381 528 m 0,31,32
 381 477 381 477 400.5 433 c 128,-1,33
 420 389 420 389 452.5 356.5 c 128,-1,34
 485 324 485 324 530.5 304.5 c 128,-1,35
 576 285 576 285 625 285 c 0,36,37
 676 285 676 285 720 304.5 c 128,-1,38
 764 324 764 324 797.5 356.5 c 128,-1,39
 831 389 831 389 850.5 433 c 128,-1,40
 870 477 870 477 870 528 c 0,41,42
 870 577 870 577 850.5 622.5 c 128,-1,43
 831 668 831 668 797.5 700.5 c 128,-1,44
 764 733 764 733 720 752.5 c 128,-1,45
 676 772 676 772 625 772 c 0,46,47
 576 772 576 772 530.5 752.5 c 128,-1,48
 485 733 485 733 452.5 700.5 c 128,-1,49
 420 668 420 668 400.5 623 c 128,-1,50
 381 578 381 578 381 528 c 0,31,32
EndSplineSet
EndChar

StartChar: yen
Encoding: 165 165 103
Width: 1232
GlyphClass: 2
Flags: W
LayerCount: 2
Fore
SplineSet
61 1315 m 1,0,1
 77 1325 77 1325 100 1330 c 128,-1,2
 123 1335 123 1335 145 1335 c 0,3,4
 174 1335 174 1335 196.5 1326 c 128,-1,5
 219 1317 219 1317 236 1294 c 2,6,-1
 614 707 l 1,7,-1
 987 1288 l 2,8,9
 1022 1339 1022 1339 1083 1339 c 0,10,11
 1128 1339 1128 1339 1161 1323 c 1,12,-1
 692 600 l 1,13,-1
 1016 600 l 1,14,15
 1020 590 1020 590 1021 573.5 c 128,-1,16
 1022 557 1022 557 1022 541 c 0,17,18
 1022 502 1022 502 1006.5 487.5 c 128,-1,19
 991 473 991 473 969 473 c 2,20,-1
 682 473 l 1,21,-1
 682 43 l 2,22,23
 682 18 682 18 664.5 3 c 128,-1,24
 647 -12 647 -12 606 -12 c 0,25,26
 588 -12 588 -12 569.5 -10 c 128,-1,27
 551 -8 551 -8 541 -4 c 1,28,-1
 541 473 l 1,29,-1
 207 473 l 1,30,31
 205 483 205 483 202 499.5 c 128,-1,32
 199 516 199 516 199 532 c 0,33,34
 199 569 199 569 215 584.5 c 128,-1,35
 231 600 231 600 254 600 c 2,36,-1
 528 600 l 1,37,-1
 61 1315 l 1,0,1
EndSplineSet
EndChar

StartChar: brokenbar
Encoding: 166 166 104
Width: 544
GlyphClass: 2
Flags: W
LayerCount: 2
Fore
SplineSet
209 330 m 2,0,1
 209 353 209 353 223.5 367 c 128,-1,2
 238 381 238 381 274 381 c 0,3,4
 290 381 290 381 307 378 c 128,-1,5
 324 375 324 375 334 371 c 1,6,-1
 334 -346 l 2,7,8
 334 -369 334 -369 319.5 -383 c 128,-1,9
 305 -397 305 -397 268 -397 c 0,10,11
 252 -397 252 -397 235.5 -395 c 128,-1,12
 219 -393 219 -393 209 -389 c 1,13,-1
 209 330 l 2,0,1
209 590 m 1,14,-1
 209 1309 l 2,15,16
 209 1332 209 1332 223.5 1346 c 128,-1,17
 238 1360 238 1360 274 1360 c 0,18,19
 290 1360 290 1360 307 1357 c 128,-1,20
 324 1354 324 1354 334 1350 c 1,21,-1
 334 633 l 2,22,23
 334 610 334 610 319.5 596 c 128,-1,24
 305 582 305 582 268 582 c 0,25,26
 252 582 252 582 235.5 584 c 128,-1,27
 219 586 219 586 209 590 c 1,14,-1
EndSplineSet
EndChar

StartChar: section
Encoding: 167 167 105
Width: 1232
GlyphClass: 2
Flags: W
LayerCount: 2
Fore
SplineSet
215 1081 m 0,0,1
 215 1134 215 1134 236.5 1183.5 c 128,-1,2
 258 1233 258 1233 304 1271 c 128,-1,3
 350 1309 350 1309 422 1331.5 c 128,-1,4
 494 1354 494 1354 596 1354 c 0,5,6
 686 1354 686 1354 762 1337.5 c 128,-1,7
 838 1321 838 1321 930 1288 c 1,8,9
 934 1241 934 1241 920.5 1214.5 c 128,-1,10
 907 1188 907 1188 872 1188 c 0,11,12
 849 1188 849 1188 825 1196 c 128,-1,13
 801 1204 801 1204 768 1214.5 c 128,-1,14
 735 1225 735 1225 691 1233 c 128,-1,15
 647 1241 647 1241 588 1241 c 0,16,17
 477 1241 477 1241 413.5 1201 c 128,-1,18
 350 1161 350 1161 350 1096 c 0,19,20
 350 1071 350 1071 357.5 1048.5 c 128,-1,21
 365 1026 365 1026 386.5 1006.5 c 128,-1,22
 408 987 408 987 444.5 968.5 c 128,-1,23
 481 950 481 950 543 934 c 2,24,-1
 682 897 l 2,25,26
 766 874 766 874 822.5 845.5 c 128,-1,27
 879 817 879 817 913.5 782.5 c 128,-1,28
 948 748 948 748 963.5 706 c 128,-1,29
 979 664 979 664 979 614 c 0,30,31
 979 551 979 551 941 489.5 c 128,-1,32
 903 428 903 428 817 387 c 1,33,34
 907 346 907 346 943 297 c 128,-1,35
 979 248 979 248 979 166 c 0,36,37
 979 119 979 119 962.5 68.5 c 128,-1,38
 946 18 946 18 902 -22.5 c 128,-1,39
 858 -63 858 -63 782.5 -89 c 128,-1,40
 707 -115 707 -115 588 -115 c 0,41,42
 484 -115 484 -115 399.5 -97.5 c 128,-1,43
 315 -80 315 -80 221 -43 c 1,44,45
 211 0 211 0 227.5 28.5 c 128,-1,46
 244 57 244 57 276 57 c 0,47,48
 299 57 299 57 326.5 48 c 128,-1,49
 354 39 354 39 391 28.5 c 128,-1,50
 428 18 428 18 476 9 c 128,-1,51
 524 0 524 0 588 0 c 0,52,53
 670 0 670 0 720 15.5 c 128,-1,54
 770 31 770 31 797.5 55.5 c 128,-1,55
 825 80 825 80 833.5 108.5 c 128,-1,56
 842 137 842 137 842 162 c 0,57,58
 842 223 842 223 799 255 c 128,-1,59
 756 287 756 287 645 315 c 1,60,-1
 526 350 l 2,61,62
 442 373 442 373 385 401.5 c 128,-1,63
 328 430 328 430 293 464 c 128,-1,64
 258 498 258 498 242.5 539 c 128,-1,65
 227 580 227 580 227 629 c 0,66,67
 227 695 227 695 266 757 c 128,-1,68
 305 819 305 819 383 858 c 1,69,70
 215 926 215 926 215 1081 c 0,0,1
352 631 m 0,71,72
 352 590 352 590 377.5 561 c 128,-1,73
 403 532 403 532 447.5 509.5 c 128,-1,74
 492 487 492 487 554 469.5 c 128,-1,75
 616 452 616 452 690 434 c 1,76,77
 850 471 850 471 850 604 c 0,78,79
 850 645 850 645 824.5 676 c 128,-1,80
 799 707 799 707 754 730.5 c 128,-1,81
 709 754 709 754 647.5 773.5 c 128,-1,82
 586 793 586 793 512 809 c 1,83,84
 432 791 432 791 392 743.5 c 128,-1,85
 352 696 352 696 352 631 c 0,71,72
EndSplineSet
EndChar

StartChar: dieresis
Encoding: 168 168 106
Width: 946
GlyphClass: 2
Flags: W
LayerCount: 2
Fore
SplineSet
229 1245 m 256,0,1
 229 1282 229 1282 255 1308.5 c 128,-1,2
 281 1335 281 1335 317 1335 c 0,3,4
 354 1335 354 1335 381 1308.5 c 128,-1,5
 408 1282 408 1282 408 1245 c 256,6,7
 408 1208 408 1208 381 1182.5 c 128,-1,8
 354 1157 354 1157 317 1157 c 256,9,10
 280 1157 280 1157 254.5 1182.5 c 128,-1,11
 229 1208 229 1208 229 1245 c 256,0,1
575 1245 m 256,12,13
 575 1282 575 1282 601 1308.5 c 128,-1,14
 627 1335 627 1335 664 1335 c 0,15,16
 703 1335 703 1335 728.5 1308.5 c 128,-1,17
 754 1282 754 1282 754 1245 c 256,18,19
 754 1208 754 1208 728.5 1182.5 c 128,-1,20
 703 1157 703 1157 664 1157 c 0,21,22
 627 1157 627 1157 601 1182.5 c 128,-1,23
 575 1208 575 1208 575 1245 c 256,12,13
EndSplineSet
EndChar

StartChar: copyright
Encoding: 169 169 107
Width: 1472
GlyphClass: 2
Flags: W
LayerCount: 2
Fore
SplineSet
68 664 m 0,0,1
 68 814 68 814 117 939.5 c 128,-1,2
 166 1065 166 1065 255 1157 c 128,-1,3
 344 1249 344 1249 467 1300.5 c 128,-1,4
 590 1352 590 1352 737 1352 c 256,5,6
 884 1352 884 1352 1006 1300.5 c 128,-1,7
 1128 1249 1128 1249 1217.5 1158 c 128,-1,8
 1307 1067 1307 1067 1356 941 c 128,-1,9
 1405 815 1405 815 1405 664 c 0,10,11
 1405 512 1405 512 1356 386 c 128,-1,12
 1307 260 1307 260 1217.5 168 c 128,-1,13
 1128 76 1128 76 1006 24.5 c 128,-1,14
 884 -27 884 -27 737 -27 c 256,15,16
 590 -27 590 -27 466 24.5 c 128,-1,17
 342 76 342 76 254 167 c 128,-1,18
 166 258 166 258 117 385 c 128,-1,19
 68 512 68 512 68 664 c 0,0,1
168 664 m 256,20,21
 168 535 168 535 210 426 c 128,-1,22
 252 317 252 317 327.5 238.5 c 128,-1,23
 403 160 403 160 507.5 115 c 128,-1,24
 612 70 612 70 737 70 c 256,25,26
 862 70 862 70 966.5 114 c 128,-1,27
 1071 158 1071 158 1146 237.5 c 128,-1,28
 1221 317 1221 317 1263 426 c 128,-1,29
 1305 535 1305 535 1305 664 c 0,30,31
 1305 791 1305 791 1262 899.5 c 128,-1,32
 1219 1008 1219 1008 1143 1086.5 c 128,-1,33
 1067 1165 1067 1165 962.5 1210 c 128,-1,34
 858 1255 858 1255 735 1255 c 0,35,36
 610 1255 610 1255 505.5 1211 c 128,-1,37
 401 1167 401 1167 326.5 1088.5 c 128,-1,38
 252 1010 252 1010 210 901.5 c 128,-1,39
 168 793 168 793 168 664 c 256,20,21
377 666 m 256,40,41
 377 746 377 746 403.5 815.5 c 128,-1,42
 430 885 430 885 479 937 c 128,-1,43
 528 989 528 989 597 1020 c 128,-1,44
 666 1051 666 1051 750 1051 c 0,45,46
 828 1051 828 1051 883 1035.5 c 128,-1,47
 938 1020 938 1020 985 993 c 1,48,49
 989 946 989 946 968.5 925.5 c 128,-1,50
 948 905 948 905 920 905 c 0,51,52
 908 905 908 905 895.5 911.5 c 128,-1,53
 883 918 883 918 864.5 924 c 128,-1,54
 846 930 846 930 819.5 936 c 128,-1,55
 793 942 793 942 754 942 c 0,56,57
 701 942 701 942 653.5 923.5 c 128,-1,58
 606 905 606 905 571.5 869.5 c 128,-1,59
 537 834 537 834 516.5 782.5 c 128,-1,60
 496 731 496 731 496 666 c 0,61,62
 496 600 496 600 516.5 548 c 128,-1,63
 537 496 537 496 571.5 460 c 128,-1,64
 606 424 606 424 653 404.5 c 128,-1,65
 700 385 700 385 754 385 c 0,66,67
 836 385 836 385 874.5 403.5 c 128,-1,68
 913 422 913 422 936 422 c 0,69,70
 965 422 965 422 982 403.5 c 128,-1,71
 999 385 999 385 995 336 c 1,72,73
 938 305 938 305 875.5 290.5 c 128,-1,74
 813 276 813 276 752 276 c 0,75,76
 668 276 668 276 598 307 c 128,-1,77
 528 338 528 338 479 391 c 128,-1,78
 430 444 430 444 403.5 515 c 128,-1,79
 377 586 377 586 377 666 c 256,40,41
EndSplineSet
EndChar

StartChar: ordfeminine
Encoding: 170 170 108
Width: 880
GlyphClass: 2
Flags: W
LayerCount: 2
Fore
SplineSet
82 772 m 0,0,1
 82 901 82 901 178 962.5 c 128,-1,2
 274 1024 274 1024 430 1024 c 0,3,4
 477 1024 477 1024 530.5 1018 c 128,-1,5
 584 1012 584 1012 639 1001 c 1,6,-1
 639 1055 l 2,7,8
 639 1153 639 1153 595 1196 c 128,-1,9
 551 1239 551 1239 449 1239 c 256,10,11
 347 1239 347 1239 288 1218.5 c 128,-1,12
 229 1198 229 1198 199 1198 c 0,13,14
 172 1198 172 1198 156.5 1220.5 c 128,-1,15
 141 1243 141 1243 147 1290 c 1,16,17
 165 1296 165 1296 196 1305.5 c 128,-1,18
 227 1315 227 1315 268 1322 c 128,-1,19
 309 1329 309 1329 355 1335 c 128,-1,20
 401 1341 401 1341 451 1341 c 0,21,22
 541 1341 541 1341 600 1319.5 c 128,-1,23
 659 1298 659 1298 694 1258.5 c 128,-1,24
 729 1219 729 1219 743.5 1160.5 c 128,-1,25
 758 1102 758 1102 758 1030 c 2,26,-1
 758 860 l 2,27,28
 758 807 758 807 759 768 c 128,-1,29
 760 729 760 729 765 694 c 128,-1,30
 770 659 770 659 779 626.5 c 128,-1,31
 788 594 788 594 805 557 c 1,32,33
 791 549 791 549 775.5 544 c 128,-1,34
 760 539 760 539 741 539 c 0,35,36
 714 539 714 539 699 550 c 128,-1,37
 684 561 684 561 675 581.5 c 128,-1,38
 666 602 666 602 660.5 627.5 c 128,-1,39
 655 653 655 653 653 682 c 1,40,41
 606 616 606 616 529 575.5 c 128,-1,42
 452 535 452 535 354 535 c 0,43,44
 288 535 288 535 237 554 c 128,-1,45
 186 573 186 573 151.5 605 c 128,-1,46
 117 637 117 637 99.5 680 c 128,-1,47
 82 723 82 723 82 772 c 0,0,1
201 776 m 0,48,49
 201 713 201 713 248 673 c 128,-1,50
 295 633 295 633 387 633 c 0,51,52
 473 633 473 633 535.5 677 c 128,-1,53
 598 721 598 721 641 799 c 1,54,-1
 641 913 l 1,55,56
 586 923 586 923 535.5 929.5 c 128,-1,57
 485 936 485 936 442 936 c 0,58,59
 327 936 327 936 264 896 c 128,-1,60
 201 856 201 856 201 776 c 0,48,49
EndSplineSet
EndChar

StartChar: guillemotleft
Encoding: 171 171 109
Width: 1150
GlyphClass: 2
Flags: W
LayerCount: 2
Fore
SplineSet
63 485 m 1,0,-1
 63 598 l 1,1,-1
 530 907 l 1,2,3
 536 891 536 891 540.5 868.5 c 128,-1,4
 545 846 545 846 545 829 c 0,5,6
 545 770 545 770 510 750 c 2,7,-1
 197 545 l 1,8,-1
 510 340 l 2,9,10
 545 317 545 317 545 258 c 0,11,12
 545 240 545 240 540.5 216 c 128,-1,13
 536 192 536 192 530 176 c 1,14,-1
 63 485 l 1,0,-1
509 485 m 1,15,-1
 509 598 l 1,16,-1
 976 907 l 1,17,18
 982 891 982 891 986.5 868.5 c 128,-1,19
 991 846 991 846 991 829 c 0,20,21
 991 770 991 770 956 750 c 2,22,-1
 643 545 l 1,23,-1
 956 340 l 2,24,25
 991 317 991 317 991 258 c 0,26,27
 991 240 991 240 986.5 216 c 128,-1,28
 982 192 982 192 976 176 c 1,29,-1
 509 485 l 1,15,-1
EndSplineSet
EndChar

StartChar: logicalnot
Encoding: 172 172 110
Width: 1232
GlyphClass: 2
Flags: W
LayerCount: 2
Fore
SplineSet
111 535 m 0,0,1
 111 572 111 572 126 586 c 128,-1,2
 141 600 141 600 168 600 c 2,3,-1
 1061 600 l 2,4,5
 1088 600 1088 600 1103 585.5 c 128,-1,6
 1118 571 1118 571 1118 535 c 2,7,-1
 1118 47 l 2,8,9
 1118 24 1118 24 1103 10 c 128,-1,10
 1088 -4 1088 -4 1051 -4 c 0,11,12
 1033 -4 1033 -4 1017 -2 c 128,-1,13
 1001 0 1001 0 991 4 c 1,14,-1
 991 473 l 1,15,-1
 117 473 l 1,16,17
 115 483 115 483 113 499.5 c 128,-1,18
 111 516 111 516 111 535 c 0,0,1
EndSplineSet
EndChar

StartChar: uni00AD
Encoding: 173 173 111
Width: 694
GlyphClass: 2
Flags: W
LayerCount: 2
Fore
SplineSet
53 518 m 0,0,1
 53 553 53 553 69.5 568.5 c 128,-1,2
 86 584 86 584 109 584 c 2,3,-1
 633 584 l 1,4,5
 637 574 637 574 638 557.5 c 128,-1,6
 639 541 639 541 639 524 c 0,7,8
 639 485 639 485 623.5 471 c 128,-1,9
 608 457 608 457 586 457 c 2,10,-1
 61 457 l 1,11,12
 59 467 59 467 56 484.5 c 128,-1,13
 53 502 53 502 53 518 c 0,0,1
EndSplineSet
EndChar

StartChar: registered
Encoding: 174 174 112
Width: 761
GlyphClass: 2
Flags: W
LayerCount: 2
Fore
SplineSet
51 1018 m 0,0,1
 51 1086 51 1086 75.5 1146 c 128,-1,2
 100 1206 100 1206 144 1250 c 128,-1,3
 188 1294 188 1294 248.5 1321 c 128,-1,4
 309 1348 309 1348 381 1348 c 0,5,6
 451 1348 451 1348 511 1321 c 128,-1,7
 571 1294 571 1294 615 1250 c 128,-1,8
 659 1206 659 1206 684 1145.5 c 128,-1,9
 709 1085 709 1085 709 1018 c 0,10,11
 709 946 709 946 684 885.5 c 128,-1,12
 659 825 659 825 615 781 c 128,-1,13
 571 737 571 737 511 712.5 c 128,-1,14
 451 688 451 688 381 688 c 0,15,16
 309 688 309 688 248.5 712.5 c 128,-1,17
 188 737 188 737 144 782 c 128,-1,18
 100 827 100 827 75.5 886.5 c 128,-1,19
 51 946 51 946 51 1018 c 0,0,1
123 1018 m 0,20,21
 123 952 123 952 145.5 904 c 128,-1,22
 168 856 168 856 205 822 c 128,-1,23
 242 788 242 788 288 772 c 128,-1,24
 334 756 334 756 381 756 c 256,25,26
 428 756 428 756 474 772 c 128,-1,27
 520 788 520 788 556 822 c 128,-1,28
 592 856 592 856 614.5 904 c 128,-1,29
 637 952 637 952 637 1018 c 0,30,31
 637 1079 637 1079 614.5 1128.5 c 128,-1,32
 592 1178 592 1178 556 1211.5 c 128,-1,33
 520 1245 520 1245 474 1262.5 c 128,-1,34
 428 1280 428 1280 381 1280 c 256,35,36
 334 1280 334 1280 288 1262.5 c 128,-1,37
 242 1245 242 1245 205 1211.5 c 128,-1,38
 168 1178 168 1178 145.5 1128.5 c 128,-1,39
 123 1079 123 1079 123 1018 c 0,20,21
266 848 m 1,40,-1
 266 1163 l 2,41,42
 266 1175 266 1175 272.5 1183.5 c 128,-1,43
 279 1192 279 1192 297 1192 c 2,44,-1
 393 1192 l 2,45,46
 448 1192 448 1192 483 1162.5 c 128,-1,47
 518 1133 518 1133 518 1081 c 0,48,49
 518 1046 518 1046 495.5 1017.5 c 128,-1,50
 473 989 473 989 424 981 c 1,51,-1
 524 856 l 1,52,53
 520 852 520 852 508 848 c 128,-1,54
 496 844 496 844 479 844 c 0,55,56
 463 844 463 844 451.5 851 c 128,-1,57
 440 858 440 858 432 868 c 2,58,-1
 350 975 l 1,59,-1
 336 975 l 1,60,-1
 336 870 l 2,61,62
 336 844 336 844 299 844 c 0,63,64
 283 844 283 844 266 848 c 1,40,-1
336 1036 m 1,65,-1
 385 1036 l 2,66,67
 418 1036 418 1036 432 1049.5 c 128,-1,68
 446 1063 446 1063 446 1081 c 0,69,70
 446 1128 446 1128 391 1128 c 2,71,-1
 336 1128 l 1,72,-1
 336 1036 l 1,65,-1
EndSplineSet
EndChar

StartChar: macron
Encoding: 175 175 113
Width: 946
GlyphClass: 2
Flags: W
LayerCount: 2
Fore
SplineSet
231 1278 m 0,0,1
 231 1313 231 1313 246.5 1326 c 128,-1,2
 262 1339 262 1339 287 1339 c 2,3,-1
 791 1339 l 1,4,5
 793 1329 793 1329 794 1314.5 c 128,-1,6
 795 1300 795 1300 795 1284 c 0,7,8
 795 1221 795 1221 739 1221 c 2,9,-1
 238 1221 l 1,10,11
 236 1231 236 1231 233.5 1246.5 c 128,-1,12
 231 1262 231 1262 231 1278 c 0,0,1
EndSplineSet
EndChar

StartChar: degree
Encoding: 176 176 114
Width: 806
GlyphClass: 2
Flags: W
LayerCount: 2
Fore
SplineSet
82 1032 m 0,0,1
 82 1100 82 1100 107.5 1158.5 c 128,-1,2
 133 1217 133 1217 176 1260 c 128,-1,3
 219 1303 219 1303 277.5 1328.5 c 128,-1,4
 336 1354 336 1354 403 1354 c 0,5,6
 471 1354 471 1354 529.5 1328.5 c 128,-1,7
 588 1303 588 1303 631 1260 c 128,-1,8
 674 1217 674 1217 699.5 1158.5 c 128,-1,9
 725 1100 725 1100 725 1032 c 256,10,11
 725 964 725 964 699.5 906 c 128,-1,12
 674 848 674 848 631 805 c 128,-1,13
 588 762 588 762 529.5 736.5 c 128,-1,14
 471 711 471 711 403 711 c 256,15,16
 335 711 335 711 277 736.5 c 128,-1,17
 219 762 219 762 176 805 c 128,-1,18
 133 848 133 848 107.5 906.5 c 128,-1,19
 82 965 82 965 82 1032 c 0,0,1
188 1032 m 256,20,21
 188 987 188 987 204.5 948 c 128,-1,22
 221 909 221 909 251 879.5 c 128,-1,23
 281 850 281 850 319.5 833.5 c 128,-1,24
 358 817 358 817 403 817 c 256,25,26
 448 817 448 817 487 833.5 c 128,-1,27
 526 850 526 850 555 879.5 c 128,-1,28
 584 909 584 909 601 948 c 128,-1,29
 618 987 618 987 618 1032 c 256,30,31
 618 1077 618 1077 601 1116 c 128,-1,32
 584 1155 584 1155 555 1183.5 c 128,-1,33
 526 1212 526 1212 487.5 1229.5 c 128,-1,34
 449 1247 449 1247 403 1247 c 0,35,36
 358 1247 358 1247 319.5 1229.5 c 128,-1,37
 281 1212 281 1212 251 1183.5 c 128,-1,38
 221 1155 221 1155 204.5 1116 c 128,-1,39
 188 1077 188 1077 188 1032 c 256,20,21
EndSplineSet
EndChar

StartChar: plusminus
Encoding: 177 177 115
Width: 1134
GlyphClass: 2
Flags: W
LayerCount: 2
Fore
SplineSet
68 908 m 0,0,1
 68 945 68 945 83 959 c 128,-1,2
 98 973 98 973 125 973 c 2,3,-1
 502 973 l 1,4,-1
 502 1372 l 2,5,6
 502 1395 502 1395 517.5 1409.5 c 128,-1,7
 533 1424 533 1424 569 1424 c 0,8,9
 587 1424 587 1424 603 1422 c 128,-1,10
 619 1420 619 1420 629 1415 c 1,11,-1
 629 973 l 1,12,-1
 1069 973 l 1,13,14
 1071 963 1071 963 1073 946.5 c 128,-1,15
 1075 930 1075 930 1075 912 c 0,16,17
 1075 875 1075 875 1060 860.5 c 128,-1,18
 1045 846 1045 846 1018 846 c 2,19,-1
 629 846 l 1,20,-1
 629 420 l 2,21,22
 629 397 629 397 613.5 383 c 128,-1,23
 598 369 598 369 561 369 c 0,24,25
 543 369 543 369 527.5 371 c 128,-1,26
 512 373 512 373 502 377 c 1,27,-1
 502 846 l 1,28,-1
 74 846 l 1,29,30
 72 856 72 856 70 872.5 c 128,-1,31
 68 889 68 889 68 908 c 0,0,1
EndSplineSet
EndChar

StartChar: uni00B2
Encoding: 178 178 116
Width: 845
GlyphClass: 2
Flags: W
LayerCount: 2
Fore
SplineSet
123 508 m 0,0,1
 123 520 123 520 128 543.5 c 128,-1,2
 133 567 133 567 160 592 c 2,3,-1
 408 809 l 2,4,5
 461 856 461 856 496.5 892 c 128,-1,6
 532 928 532 928 553.5 958.5 c 128,-1,7
 575 989 575 989 584.5 1016.5 c 128,-1,8
 594 1044 594 1044 594 1077 c 0,9,10
 594 1155 594 1155 546 1199 c 128,-1,11
 498 1243 498 1243 410 1243 c 0,12,13
 365 1243 365 1243 330 1233 c 128,-1,14
 295 1223 295 1223 267.5 1210.5 c 128,-1,15
 240 1198 240 1198 218.5 1188 c 128,-1,16
 197 1178 197 1178 178 1178 c 0,17,18
 155 1178 155 1178 141 1202.5 c 128,-1,19
 127 1227 127 1227 123 1255 c 1,20,21
 164 1288 164 1288 241.5 1321 c 128,-1,22
 319 1354 319 1354 412 1354 c 0,23,24
 553 1354 553 1354 632 1277 c 128,-1,25
 711 1200 711 1200 711 1079 c 0,26,27
 711 1032 711 1032 697.5 991 c 128,-1,28
 684 950 684 950 656.5 910 c 128,-1,29
 629 870 629 870 587 828 c 128,-1,30
 545 786 545 786 487 739 c 2,31,-1
 287 573 l 1,32,-1
 287 571 l 1,33,-1
 723 571 l 1,34,35
 725 561 725 561 726 548 c 128,-1,36
 727 535 727 535 727 518 c 0,37,38
 727 487 727 487 712.5 473 c 128,-1,39
 698 459 698 459 682 459 c 2,40,-1
 129 459 l 1,41,42
 127 467 127 467 125 480.5 c 128,-1,43
 123 494 123 494 123 508 c 0,0,1
EndSplineSet
EndChar

StartChar: uni00B3
Encoding: 179 179 117
Width: 915
GlyphClass: 2
Flags: W
LayerCount: 2
Fore
SplineSet
152 514 m 1,0,1
 152 549 152 549 166 573.5 c 128,-1,2
 180 598 180 598 209 598 c 0,3,4
 227 598 227 598 246.5 590 c 128,-1,5
 266 582 266 582 295 572.5 c 128,-1,6
 324 563 324 563 363.5 555 c 128,-1,7
 403 547 403 547 465 547 c 0,8,9
 555 547 555 547 611.5 590 c 128,-1,10
 668 633 668 633 668 698 c 0,11,12
 668 764 668 764 618.5 809 c 128,-1,13
 569 854 569 854 449 854 c 2,14,-1
 317 854 l 2,15,16
 301 854 301 854 290 869.5 c 128,-1,17
 279 885 279 885 279 907 c 0,18,19
 279 917 279 917 280 933.5 c 128,-1,20
 281 950 281 950 283 956 c 1,21,-1
 438 956 l 2,22,23
 542 956 542 956 591.5 996 c 128,-1,24
 641 1036 641 1036 641 1100 c 0,25,26
 641 1159 641 1159 599 1201 c 128,-1,27
 557 1243 557 1243 457 1243 c 0,28,29
 410 1243 410 1243 372 1235 c 128,-1,30
 334 1227 334 1227 304 1217.5 c 128,-1,31
 274 1208 274 1208 255 1201 c 128,-1,32
 236 1194 236 1194 223 1194 c 0,33,34
 188 1194 188 1194 178 1221.5 c 128,-1,35
 168 1249 168 1249 166 1282 c 1,36,37
 215 1307 215 1307 290 1329.5 c 128,-1,38
 365 1352 365 1352 463 1352 c 0,39,40
 537 1352 537 1352 592 1332.5 c 128,-1,41
 647 1313 647 1313 684 1281 c 128,-1,42
 721 1249 721 1249 739.5 1206 c 128,-1,43
 758 1163 758 1163 758 1116 c 0,44,45
 758 1038 758 1038 716 985 c 128,-1,46
 674 932 674 932 608 913 c 1,47,48
 686 897 686 897 737 841.5 c 128,-1,49
 788 786 788 786 788 700 c 0,50,51
 788 639 788 639 762.5 590 c 128,-1,52
 737 541 737 541 693 507 c 128,-1,53
 649 473 649 473 589 455.5 c 128,-1,54
 529 438 529 438 461 438 c 0,55,56
 369 438 369 438 288 459.5 c 128,-1,57
 207 481 207 481 152 514 c 1,0,1
EndSplineSet
EndChar

StartChar: acute
Encoding: 180 180 118
Width: 946
GlyphClass: 2
Flags: W
LayerCount: 2
Fore
SplineSet
319 1143 m 1,0,-1
 623 1432 l 1,1,2
 693 1409 693 1409 692 1352 c 0,3,4
 692 1301 692 1301 629 1255 c 2,5,-1
 487 1143 l 2,6,7
 462 1125 462 1125 439.5 1117.5 c 128,-1,8
 417 1110 417 1110 397 1110 c 0,9,10
 372 1110 372 1110 352 1119 c 128,-1,11
 332 1128 332 1128 319 1143 c 1,0,-1
EndSplineSet
EndChar

StartChar: uni00B5
Encoding: 181 181 119
Width: 1148
GlyphClass: 2
Flags: W
LayerCount: 2
Fore
SplineSet
137 -385 m 1,0,-1
 137 930 l 2,1,2
 137 955 137 955 152.5 970 c 128,-1,3
 168 985 168 985 209 985 c 0,4,5
 227 985 227 985 245.5 983 c 128,-1,6
 264 981 264 981 274 977 c 1,7,-1
 274 438 l 2,8,9
 274 350 274 350 296.5 285.5 c 128,-1,10
 319 221 319 221 357 180 c 128,-1,11
 395 139 395 139 445.5 118.5 c 128,-1,12
 496 98 496 98 549 98 c 0,13,14
 633 98 633 98 705.5 145.5 c 128,-1,15
 778 193 778 193 838 291 c 1,16,-1
 838 930 l 2,17,18
 838 955 838 955 853 970 c 128,-1,19
 868 985 868 985 909 985 c 0,20,21
 927 985 927 985 946 983 c 128,-1,22
 965 981 965 981 975 977 c 1,23,-1
 975 453 l 2,24,25
 975 355 975 355 981 245 c 128,-1,26
 987 135 987 135 1022 6 c 1,27,28
 1010 0 1010 0 991.5 -5 c 128,-1,29
 973 -10 973 -10 956 -10 c 0,30,31
 931 -10 931 -10 914 -1 c 128,-1,32
 897 8 897 8 885 35 c 0,33,34
 875 58 875 58 869.5 88.5 c 128,-1,35
 864 119 864 119 858 160 c 1,36,-1
 856 160 l 1,37,38
 801 76 801 76 729 26.5 c 128,-1,39
 657 -23 657 -23 555 -23 c 0,40,41
 444 -23 444 -23 378.5 19 c 128,-1,42
 313 61 313 61 274 129 c 1,43,-1
 274 -338 l 2,44,45
 274 -363 274 -363 259 -378 c 128,-1,46
 244 -393 244 -393 203 -393 c 0,47,48
 185 -393 185 -393 166 -391 c 128,-1,49
 147 -389 147 -389 137 -385 c 1,0,-1
EndSplineSet
EndChar

StartChar: paragraph
Encoding: 182 182 120
Width: 1144
GlyphClass: 2
Flags: W
LayerCount: 2
Fore
SplineSet
47 899 m 256,0,1
 47 991 47 991 80 1071 c 128,-1,2
 113 1151 113 1151 174.5 1208.5 c 128,-1,3
 236 1266 236 1266 324 1298.5 c 128,-1,4
 412 1331 412 1331 522 1331 c 2,5,-1
 918 1331 l 2,6,7
 959 1331 959 1331 970 1314.5 c 128,-1,8
 981 1298 981 1298 981 1274 c 2,9,-1
 981 43 l 2,10,11
 981 23 981 23 966.5 9.5 c 128,-1,12
 952 -4 952 -4 918 -4 c 0,13,14
 902 -4 902 -4 887 -2 c 128,-1,15
 872 0 872 0 862 4 c 1,16,-1
 862 1219 l 1,17,-1
 754 1219 l 1,18,-1
 754 43 l 2,19,20
 754 23 754 23 739.5 9.5 c 128,-1,21
 725 -4 725 -4 690 -4 c 0,22,23
 674 -4 674 -4 659.5 -2 c 128,-1,24
 645 0 645 0 635 4 c 1,25,-1
 635 477 l 1,26,-1
 522 477 l 2,27,28
 411 477 411 477 323.5 509 c 128,-1,29
 236 541 236 541 174.5 596 c 128,-1,30
 113 651 113 651 80 729 c 128,-1,31
 47 807 47 807 47 899 c 256,0,1
172 899 m 0,32,33
 172 752 172 752 267.5 672 c 128,-1,34
 363 592 363 592 539 592 c 2,35,-1
 635 592 l 1,36,-1
 635 1219 l 1,37,-1
 539 1219 l 2,38,39
 363 1219 363 1219 267.5 1133 c 128,-1,40
 172 1047 172 1047 172 899 c 0,32,33
EndSplineSet
EndChar

StartChar: periodcentered
Encoding: 183 183 121
Width: 405
GlyphClass: 2
Flags: W
LayerCount: 2
Fore
SplineSet
101 510 m 0,0,1
 101 551 101 551 130.5 580.5 c 128,-1,2
 160 610 160 610 199 610 c 0,3,4
 242 610 242 610 272 580.5 c 128,-1,5
 302 551 302 551 302 510 c 0,6,7
 302 471 302 471 272 441.5 c 128,-1,8
 242 412 242 412 199 412 c 0,9,10
 160 412 160 412 130.5 441.5 c 128,-1,11
 101 471 101 471 101 510 c 0,0,1
EndSplineSet
EndChar

StartChar: cedilla
Encoding: 184 184 122
Width: 946
GlyphClass: 2
Flags: W
LayerCount: 2
Fore
SplineSet
336 -375 m 1,0,1
 336 -352 336 -352 348 -330.5 c 128,-1,2
 360 -309 360 -309 383 -309 c 0,3,4
 410 -309 410 -309 439.5 -323.5 c 128,-1,5
 469 -338 469 -338 522 -338 c 0,6,7
 569 -338 569 -338 604 -313.5 c 128,-1,8
 639 -289 639 -289 639 -242 c 0,9,10
 639 -209 639 -209 609.5 -182.5 c 128,-1,11
 580 -156 580 -156 506 -156 c 2,12,-1
 496 -156 l 2,13,14
 461 -156 461 -156 448.5 -134.5 c 128,-1,15
 436 -113 436 -113 446 -88 c 2,16,-1
 475 0 l 1,17,-1
 563 2 l 1,18,-1
 537 -78 l 1,19,20
 592 -80 592 -80 631 -95.5 c 128,-1,21
 670 -111 670 -111 692.5 -135.5 c 128,-1,22
 715 -160 715 -160 725 -187.5 c 128,-1,23
 735 -215 735 -215 735 -242 c 0,24,25
 735 -332 735 -332 670.5 -378 c 128,-1,26
 606 -424 606 -424 518 -424 c 0,27,28
 467 -424 467 -424 419 -408.5 c 128,-1,29
 371 -393 371 -393 336 -375 c 1,0,1
EndSplineSet
EndChar

StartChar: uni00B9
Encoding: 185 185 123
Width: 720
GlyphClass: 2
Flags: W
LayerCount: 2
Fore
SplineSet
129 1153 m 0,0,1
 123 1198 123 1198 166 1219 c 2,2,-1
 375 1331 l 1,3,-1
 461 1331 l 1,4,-1
 461 485 l 2,5,6
 461 462 461 462 448.5 450 c 128,-1,7
 436 438 436 438 401 438 c 0,8,9
 385 438 385 438 370.5 440 c 128,-1,10
 356 442 356 442 346 444 c 1,11,-1
 346 1188 l 1,12,-1
 164 1094 l 1,13,14
 156 1102 156 1102 143.5 1116 c 128,-1,15
 131 1130 131 1130 129 1153 c 0,0,1
EndSplineSet
EndChar

StartChar: ordmasculine
Encoding: 186 186 124
Width: 899
GlyphClass: 2
Flags: W
LayerCount: 2
Fore
SplineSet
74 934 m 0,0,1
 74 1018 74 1018 102.5 1092.5 c 128,-1,2
 131 1167 131 1167 182 1222.5 c 128,-1,3
 233 1278 233 1278 306 1310.5 c 128,-1,4
 379 1343 379 1343 467 1343 c 256,5,6
 555 1343 555 1343 626.5 1310.5 c 128,-1,7
 698 1278 698 1278 749.5 1222.5 c 128,-1,8
 801 1167 801 1167 827.5 1092.5 c 128,-1,9
 854 1018 854 1018 854 936 c 0,10,11
 854 852 854 852 827.5 777 c 128,-1,12
 801 702 801 702 750.5 647 c 128,-1,13
 700 592 700 592 628.5 559 c 128,-1,14
 557 526 557 526 467 526 c 0,15,16
 379 526 379 526 306 557 c 128,-1,17
 233 588 233 588 182 643 c 128,-1,18
 131 698 131 698 102.5 773 c 128,-1,19
 74 848 74 848 74 934 c 0,0,1
193 934 m 0,20,21
 193 860 193 860 217.5 804 c 128,-1,22
 242 748 242 748 280.5 710 c 128,-1,23
 319 672 319 672 368.5 653.5 c 128,-1,24
 418 635 418 635 467 635 c 0,25,26
 514 635 514 635 562 653.5 c 128,-1,27
 610 672 610 672 648 708.5 c 128,-1,28
 686 745 686 745 710.5 801.5 c 128,-1,29
 735 858 735 858 735 934 c 0,30,31
 735 1004 735 1004 712.5 1060 c 128,-1,32
 690 1116 690 1116 653 1155 c 128,-1,33
 616 1194 616 1194 567 1214.5 c 128,-1,34
 518 1235 518 1235 467 1235 c 256,35,36
 416 1235 416 1235 366.5 1214.5 c 128,-1,37
 317 1194 317 1194 278.5 1155 c 128,-1,38
 240 1116 240 1116 216.5 1060 c 128,-1,39
 193 1004 193 1004 193 934 c 0,20,21
EndSplineSet
EndChar

StartChar: guillemotright
Encoding: 187 187 125
Width: 1150
GlyphClass: 2
Flags: W
LayerCount: 2
Fore
SplineSet
143 258 m 0,0,1
 143 317 143 317 178 338 c 2,2,-1
 492 543 l 1,3,-1
 178 748 l 2,4,5
 143 771 143 771 143 829 c 0,6,7
 143 847 143 847 147.5 871 c 128,-1,8
 152 895 152 895 158 911 c 1,9,-1
 625 602 l 1,10,-1
 625 489 l 1,11,-1
 158 180 l 1,12,13
 152 196 152 196 147.5 219 c 128,-1,14
 143 242 143 242 143 258 c 0,0,1
589 258 m 0,15,16
 589 317 589 317 624 338 c 2,17,-1
 938 543 l 1,18,-1
 624 748 l 2,19,20
 589 771 589 771 589 829 c 0,21,22
 589 847 589 847 593.5 871 c 128,-1,23
 598 895 598 895 604 911 c 1,24,-1
 1071 602 l 1,25,-1
 1071 489 l 1,26,-1
 604 180 l 1,27,28
 598 196 598 196 593.5 219 c 128,-1,29
 589 242 589 242 589 258 c 0,15,16
EndSplineSet
EndChar

StartChar: onequarter
Encoding: 188 188 126
Width: 1812
GlyphClass: 2
Flags: W
LayerCount: 2
Fore
SplineSet
61 1153 m 0,0,1
 55 1198 55 1198 98 1219 c 2,2,-1
 307 1331 l 1,3,-1
 393 1331 l 1,4,-1
 393 485 l 2,5,6
 393 462 393 462 381 450 c 128,-1,7
 369 438 369 438 334 438 c 0,8,9
 318 438 318 438 303.5 440 c 128,-1,10
 289 442 289 442 279 444 c 1,11,-1
 279 1188 l 1,12,-1
 96 1094 l 1,13,14
 88 1102 88 1102 75.5 1116 c 128,-1,15
 63 1130 63 1130 61 1153 c 0,0,1
473 184 m 1,16,-1
 1059 1153 l 2,17,18
 1075 1178 1075 1178 1108 1178 c 0,19,20
 1131 1178 1131 1178 1149 1168.5 c 128,-1,21
 1167 1159 1167 1159 1178 1149 c 1,22,-1
 592 180 l 2,23,24
 576 156 576 156 543 156 c 0,25,26
 520 156 520 156 501.5 165 c 128,-1,27
 483 174 483 174 473 184 c 1,16,-1
1006 244 m 0,28,29
 1006 267 1006 267 1011 286 c 128,-1,30
 1016 305 1016 305 1032 328 c 2,31,-1
 1448 889 l 1,32,-1
 1565 889 l 1,33,-1
 1565 297 l 1,34,-1
 1706 297 l 1,35,36
 1710 287 1710 287 1712 273.5 c 128,-1,37
 1714 260 1714 260 1714 244 c 0,38,39
 1714 191 1714 191 1671 190 c 2,40,-1
 1565 190 l 1,41,-1
 1565 45 l 2,42,43
 1565 22 1565 22 1552.5 10 c 128,-1,44
 1540 -2 1540 -2 1505 -2 c 0,45,46
 1489 -2 1489 -2 1474.5 0 c 128,-1,47
 1460 2 1460 2 1450 4 c 1,48,-1
 1450 190 l 1,49,-1
 1012 190 l 1,50,51
 1010 200 1010 200 1008 214.5 c 128,-1,52
 1006 229 1006 229 1006 244 c 0,28,29
1139 297 m 1,53,-1
 1450 297 l 1,54,-1
 1450 715 l 1,55,-1
 1139 297 l 1,53,-1
EndSplineSet
EndChar

StartChar: onehalf
Encoding: 189 189 127
Width: 1853
GlyphClass: 2
Flags: W
LayerCount: 2
Fore
SplineSet
61 1153 m 0,0,1
 55 1198 55 1198 98 1219 c 2,2,-1
 307 1331 l 1,3,-1
 393 1331 l 1,4,-1
 393 485 l 2,5,6
 393 462 393 462 381 450 c 128,-1,7
 369 438 369 438 334 438 c 0,8,9
 318 438 318 438 303.5 440 c 128,-1,10
 289 442 289 442 279 444 c 1,11,-1
 279 1188 l 1,12,-1
 96 1094 l 1,13,14
 88 1102 88 1102 75.5 1116 c 128,-1,15
 63 1130 63 1130 61 1153 c 0,0,1
455 184 m 1,16,-1
 1040 1153 l 2,17,18
 1056 1178 1056 1178 1090 1178 c 0,19,20
 1113 1178 1113 1178 1131 1168.5 c 128,-1,21
 1149 1159 1149 1159 1159 1149 c 1,22,-1
 573 180 l 2,23,24
 557 156 557 156 524 156 c 0,25,26
 501 156 501 156 483 165 c 128,-1,27
 465 174 465 174 455 184 c 1,16,-1
1114 53 m 0,28,29
 1114 88 1114 88 1123.5 112.5 c 128,-1,30
 1133 137 1133 137 1161 162 c 2,31,-1
 1364 330 l 2,32,33
 1413 371 1413 371 1456 404.5 c 128,-1,34
 1499 438 1499 438 1531 471 c 128,-1,35
 1563 504 1563 504 1580 538.5 c 128,-1,36
 1597 573 1597 573 1597 618 c 0,37,38
 1597 686 1597 686 1550 733 c 128,-1,39
 1503 780 1503 780 1425 780 c 0,40,41
 1378 780 1378 780 1341.5 770 c 128,-1,42
 1305 760 1305 760 1275 747.5 c 128,-1,43
 1245 735 1245 735 1222.5 725 c 128,-1,44
 1200 715 1200 715 1182 715 c 0,45,46
 1159 715 1159 715 1143.5 742.5 c 128,-1,47
 1128 770 1128 770 1124 799 c 1,48,49
 1144 813 1144 813 1176 830.5 c 128,-1,50
 1208 848 1208 848 1248 862.5 c 128,-1,51
 1288 877 1288 877 1333 886 c 128,-1,52
 1378 895 1378 895 1427 895 c 0,53,54
 1493 895 1493 895 1547.5 874.5 c 128,-1,55
 1602 854 1602 854 1639.5 817 c 128,-1,56
 1677 780 1677 780 1697.5 730 c 128,-1,57
 1718 680 1718 680 1718 623 c 0,58,59
 1718 560 1718 560 1695.5 510.5 c 128,-1,60
 1673 461 1673 461 1633 418 c 128,-1,61
 1593 375 1593 375 1541 334 c 128,-1,62
 1489 293 1489 293 1432 248 c 2,63,-1
 1264 117 l 1,64,-1
 1264 115 l 1,65,-1
 1731 115 l 1,66,67
 1731 105 1731 105 1732 90.5 c 128,-1,68
 1733 76 1733 76 1733 59 c 0,69,70
 1733 28 1733 28 1718.5 14 c 128,-1,71
 1704 0 1704 0 1688 0 c 2,72,-1
 1122 0 l 1,73,74
 1120 8 1120 8 1117 24.5 c 128,-1,75
 1114 41 1114 41 1114 53 c 0,28,29
EndSplineSet
EndChar

StartChar: threequarters
Encoding: 190 190 128
Width: 2062
GlyphClass: 2
Flags: W
LayerCount: 2
Fore
SplineSet
100 514 m 1,0,1
 100 549 100 549 113.5 573.5 c 128,-1,2
 127 598 127 598 156 598 c 0,3,4
 174 598 174 598 194.5 590 c 128,-1,5
 215 582 215 582 242.5 572.5 c 128,-1,6
 270 563 270 563 310 555 c 128,-1,7
 350 547 350 547 412 547 c 0,8,9
 502 547 502 547 559 589 c 128,-1,10
 616 631 616 631 616 696 c 0,11,12
 616 762 616 762 566 808 c 128,-1,13
 516 854 516 854 395 854 c 2,14,-1
 264 854 l 2,15,16
 248 854 248 854 237.5 869.5 c 128,-1,17
 227 885 227 885 227 907 c 0,18,19
 227 917 227 917 228 933.5 c 128,-1,20
 229 950 229 950 231 956 c 1,21,-1
 385 956 l 2,22,23
 489 956 489 956 539.5 995 c 128,-1,24
 590 1034 590 1034 590 1106 c 0,25,26
 590 1159 590 1159 548 1201 c 128,-1,27
 506 1243 506 1243 408 1243 c 0,28,29
 359 1243 359 1243 321 1235 c 128,-1,30
 283 1227 283 1227 253 1217.5 c 128,-1,31
 223 1208 223 1208 203.5 1201 c 128,-1,32
 184 1194 184 1194 172 1194 c 0,33,34
 137 1194 137 1194 126 1221.5 c 128,-1,35
 115 1249 115 1249 115 1282 c 1,36,37
 164 1307 164 1307 238.5 1329.5 c 128,-1,38
 313 1352 313 1352 412 1352 c 0,39,40
 486 1352 486 1352 541 1332.5 c 128,-1,41
 596 1313 596 1313 633 1281 c 128,-1,42
 670 1249 670 1249 688.5 1206 c 128,-1,43
 707 1163 707 1163 707 1116 c 0,44,45
 707 1038 707 1038 665 985 c 128,-1,46
 623 932 623 932 557 913 c 1,47,48
 633 897 633 897 685 839.5 c 128,-1,49
 737 782 737 782 737 696 c 0,50,51
 737 635 737 635 711.5 588 c 128,-1,52
 686 541 686 541 642 507 c 128,-1,53
 598 473 598 473 538 455.5 c 128,-1,54
 478 438 478 438 410 438 c 0,55,56
 318 438 318 438 237 459.5 c 128,-1,57
 156 481 156 481 100 514 c 1,0,1
719 184 m 1,58,-1
 1305 1153 l 2,59,60
 1321 1178 1321 1178 1354 1178 c 0,61,62
 1377 1178 1377 1178 1395 1168.5 c 128,-1,63
 1413 1159 1413 1159 1423 1149 c 1,64,-1
 838 180 l 2,65,66
 821 156 821 156 788 156 c 0,67,68
 765 156 765 156 747 165 c 128,-1,69
 729 174 729 174 719 184 c 1,58,-1
1253 244 m 0,70,71
 1253 267 1253 267 1258.5 286 c 128,-1,72
 1264 305 1264 305 1280 328 c 2,73,-1
 1696 889 l 1,74,-1
 1812 889 l 1,75,-1
 1812 297 l 1,76,-1
 1954 297 l 1,77,78
 1958 287 1958 287 1960 273.5 c 128,-1,79
 1962 260 1962 260 1962 244 c 0,80,81
 1962 191 1962 191 1919 190 c 2,82,-1
 1812 190 l 1,83,-1
 1812 45 l 2,84,85
 1812 22 1812 22 1800 10 c 128,-1,86
 1788 -2 1788 -2 1753 -2 c 0,87,88
 1737 -2 1737 -2 1722.5 0 c 128,-1,89
 1708 2 1708 2 1698 4 c 1,90,-1
 1698 190 l 1,91,-1
 1260 190 l 1,92,93
 1258 200 1258 200 1255.5 214.5 c 128,-1,94
 1253 229 1253 229 1253 244 c 0,70,71
1386 297 m 1,95,-1
 1698 297 l 1,96,-1
 1698 715 l 1,97,-1
 1386 297 l 1,95,-1
EndSplineSet
EndChar

StartChar: questiondown
Encoding: 191 191 129
Width: 907
GlyphClass: 2
Flags: W
LayerCount: 2
Fore
SplineSet
66 317 m 0,0,1
 66 376 66 376 84 423.5 c 128,-1,2
 102 471 102 471 129 508 c 128,-1,3
 156 545 156 545 187.5 569.5 c 128,-1,4
 219 594 219 594 246 610 c 0,5,6
 309 649 309 649 353 679 c 128,-1,7
 397 709 397 709 425 738.5 c 128,-1,8
 453 768 453 768 466 801 c 128,-1,9
 479 834 479 834 483 877 c 1,10,11
 491 908 491 908 506.5 918 c 128,-1,12
 522 928 522 928 547 928 c 256,13,14
 572 928 572 928 596 909 c 1,15,16
 602 819 602 819 575.5 756.5 c 128,-1,17
 549 694 549 694 506 650 c 128,-1,18
 463 606 463 606 409.5 573.5 c 128,-1,19
 356 541 356 541 311 507 c 128,-1,20
 266 473 266 473 235.5 431 c 128,-1,21
 205 389 205 389 205 328 c 0,22,23
 205 232 205 232 272.5 171.5 c 128,-1,24
 340 111 340 111 467 111 c 0,25,26
 545 111 545 111 598 124 c 128,-1,27
 651 137 651 137 688 154.5 c 128,-1,28
 725 172 725 172 751.5 185.5 c 128,-1,29
 778 199 778 199 803 199 c 0,30,31
 832 199 832 199 849 174.5 c 128,-1,32
 866 150 866 150 866 104 c 1,33,34
 835 81 835 81 790 60 c 128,-1,35
 745 39 745 39 693 22.5 c 128,-1,36
 641 6 641 6 582.5 -5 c 128,-1,37
 524 -16 524 -16 467 -16 c 0,38,39
 371 -16 371 -16 296 8.5 c 128,-1,40
 221 33 221 33 170 78 c 128,-1,41
 119 123 119 123 92.5 184.5 c 128,-1,42
 66 246 66 246 66 317 c 0,0,1
440 1255 m 0,43,44
 440 1294 440 1294 470 1324 c 128,-1,45
 500 1354 500 1354 541 1354 c 0,46,47
 580 1354 580 1354 609.5 1324 c 128,-1,48
 639 1294 639 1294 639 1255 c 0,49,50
 639 1214 639 1214 609.5 1184.5 c 128,-1,51
 580 1155 580 1155 541 1155 c 0,52,53
 500 1155 500 1155 470 1184.5 c 128,-1,54
 440 1214 440 1214 440 1255 c 0,43,44
EndSplineSet
EndChar

StartChar: Agrave
Encoding: 192 192 130
Width: 1179
GlyphClass: 2
Flags: W
LayerCount: 2
Fore
SplineSet
12 6 m 1,0,-1
 496 1327 l 1,1,2
 547 1339 547 1339 592 1339 c 0,3,4
 653 1339 653 1339 677.5 1321 c 128,-1,5
 702 1303 702 1303 719 1255 c 2,6,-1
 1167 6 l 1,7,8
 1155 -2 1155 -2 1134.5 -6 c 128,-1,9
 1114 -10 1114 -10 1096 -10 c 0,10,11
 1069 -10 1069 -10 1045.5 0 c 128,-1,12
 1022 10 1022 10 1012 39 c 2,13,-1
 877 414 l 1,14,-1
 303 414 l 1,15,-1
 170 39 l 2,16,17
 160 10 160 10 136.5 0 c 128,-1,18
 113 -10 113 -10 86 -10 c 0,19,20
 68 -10 68 -10 47.5 -5 c 128,-1,21
 27 0 27 0 12 6 c 1,0,-1
319 1647 m 0,22,23
 319 1704 319 1704 389 1727 c 1,24,-1
 692 1438 l 1,25,26
 680 1424 680 1424 659.5 1414.5 c 128,-1,27
 639 1405 639 1405 614 1405 c 0,28,29
 594 1405 594 1405 571.5 1412 c 128,-1,30
 549 1419 549 1419 524 1438 c 2,31,-1
 383 1550 l 2,32,33
 320 1595 320 1595 319 1647 c 0,22,23
346 541 m 1,34,-1
 834 541 l 1,35,-1
 594 1214 l 1,36,-1
 588 1214 l 1,37,-1
 346 541 l 1,34,-1
EndSplineSet
EndChar

StartChar: Aacute
Encoding: 193 193 131
Width: 1179
GlyphClass: 2
Flags: W
LayerCount: 2
Fore
SplineSet
12 6 m 1,0,-1
 496 1327 l 1,1,2
 547 1339 547 1339 592 1339 c 0,3,4
 653 1339 653 1339 677.5 1321 c 128,-1,5
 702 1303 702 1303 719 1255 c 2,6,-1
 1167 6 l 1,7,8
 1155 -2 1155 -2 1134.5 -6 c 128,-1,9
 1114 -10 1114 -10 1096 -10 c 0,10,11
 1069 -10 1069 -10 1045.5 0 c 128,-1,12
 1022 10 1022 10 1012 39 c 2,13,-1
 877 414 l 1,14,-1
 303 414 l 1,15,-1
 170 39 l 2,16,17
 160 10 160 10 136.5 0 c 128,-1,18
 113 -10 113 -10 86 -10 c 0,19,20
 68 -10 68 -10 47.5 -5 c 128,-1,21
 27 0 27 0 12 6 c 1,0,-1
346 541 m 1,22,-1
 834 541 l 1,23,-1
 594 1214 l 1,24,-1
 588 1214 l 1,25,-1
 346 541 l 1,22,-1
452 1438 m 1,26,-1
 756 1727 l 1,27,28
 826 1704 826 1704 825 1647 c 0,29,30
 825 1596 825 1596 762 1550 c 2,31,-1
 620 1438 l 2,32,33
 595 1420 595 1420 572.5 1412.5 c 128,-1,34
 550 1405 550 1405 530 1405 c 0,35,36
 505 1405 505 1405 485 1414 c 128,-1,37
 465 1423 465 1423 452 1438 c 1,26,-1
EndSplineSet
EndChar

StartChar: Acircumflex
Encoding: 194 194 132
Width: 1179
GlyphClass: 2
Flags: W
LayerCount: 2
Fore
SplineSet
12 6 m 1,0,-1
 496 1327 l 1,1,2
 547 1339 547 1339 592 1339 c 0,3,4
 653 1339 653 1339 677.5 1321 c 128,-1,5
 702 1303 702 1303 719 1255 c 2,6,-1
 1167 6 l 1,7,8
 1155 -2 1155 -2 1134.5 -6 c 128,-1,9
 1114 -10 1114 -10 1096 -10 c 0,10,11
 1069 -10 1069 -10 1045.5 0 c 128,-1,12
 1022 10 1022 10 1012 39 c 2,13,-1
 877 414 l 1,14,-1
 303 414 l 1,15,-1
 170 39 l 2,16,17
 160 10 160 10 136.5 0 c 128,-1,18
 113 -10 113 -10 86 -10 c 0,19,20
 68 -10 68 -10 47.5 -5 c 128,-1,21
 27 0 27 0 12 6 c 1,0,-1
328 1423 m 1,22,-1
 514 1681 l 2,23,24
 539 1722 539 1722 588 1722 c 0,25,26
 643 1722 643 1722 668 1681 c 2,27,-1
 856 1421 l 1,28,29
 844 1417 844 1417 823.5 1414 c 128,-1,30
 803 1411 803 1411 786 1411 c 0,31,32
 743 1411 743 1411 721 1442 c 2,33,-1
 592 1626 l 1,34,-1
 467 1444 l 2,35,36
 444 1411 444 1411 399 1411 c 0,37,38
 374 1411 374 1411 356 1415 c 128,-1,39
 338 1419 338 1419 328 1423 c 1,22,-1
346 541 m 1,40,-1
 834 541 l 1,41,-1
 594 1214 l 1,42,-1
 588 1214 l 1,43,-1
 346 541 l 1,40,-1
EndSplineSet
EndChar

StartChar: Atilde
Encoding: 195 195 133
Width: 1179
GlyphClass: 2
Flags: W
LayerCount: 2
Fore
SplineSet
12 6 m 1,0,-1
 496 1327 l 1,1,2
 547 1339 547 1339 592 1339 c 0,3,4
 653 1339 653 1339 677.5 1321 c 128,-1,5
 702 1303 702 1303 719 1255 c 2,6,-1
 1167 6 l 1,7,8
 1155 -2 1155 -2 1134.5 -6 c 128,-1,9
 1114 -10 1114 -10 1096 -10 c 0,10,11
 1069 -10 1069 -10 1045.5 0 c 128,-1,12
 1022 10 1022 10 1012 39 c 2,13,-1
 877 414 l 1,14,-1
 303 414 l 1,15,-1
 170 39 l 2,16,17
 160 10 160 10 136.5 0 c 128,-1,18
 113 -10 113 -10 86 -10 c 0,19,20
 68 -10 68 -10 47.5 -5 c 128,-1,21
 27 0 27 0 12 6 c 1,0,-1
299 1463 m 1,22,23
 322 1553 322 1553 365 1601 c 128,-1,24
 408 1649 408 1649 479 1649 c 0,25,26
 516 1649 516 1649 548 1630.5 c 128,-1,27
 580 1612 580 1612 607.5 1588.5 c 128,-1,28
 635 1565 635 1565 658.5 1546.5 c 128,-1,29
 682 1528 682 1528 705 1528 c 0,30,31
 723 1528 723 1528 735.5 1545.5 c 128,-1,32
 748 1563 748 1563 758 1582.5 c 128,-1,33
 768 1602 768 1602 782.5 1619.5 c 128,-1,34
 797 1637 797 1637 819 1637 c 0,35,36
 852 1637 852 1637 883 1604 c 1,37,38
 852 1510 852 1510 812 1464 c 128,-1,39
 772 1418 772 1418 698 1418 c 0,40,41
 663 1418 663 1418 631.5 1436.5 c 128,-1,42
 600 1455 600 1455 571.5 1476.5 c 128,-1,43
 543 1498 543 1498 518.5 1516 c 128,-1,44
 494 1534 494 1534 475 1534 c 0,45,46
 452 1534 452 1534 441 1518 c 128,-1,47
 430 1502 430 1502 420 1482.5 c 128,-1,48
 410 1463 410 1463 396.5 1446.5 c 128,-1,49
 383 1430 383 1430 359 1430 c 0,50,51
 326 1430 326 1430 299 1463 c 1,22,23
346 541 m 1,52,-1
 834 541 l 1,53,-1
 594 1214 l 1,54,-1
 588 1214 l 1,55,-1
 346 541 l 1,52,-1
EndSplineSet
EndChar

StartChar: Adieresis
Encoding: 196 196 134
Width: 1179
GlyphClass: 2
Flags: W
LayerCount: 2
Fore
SplineSet
12 6 m 1,0,-1
 496 1327 l 1,1,2
 547 1339 547 1339 592 1339 c 0,3,4
 653 1339 653 1339 677.5 1321 c 128,-1,5
 702 1303 702 1303 719 1255 c 2,6,-1
 1167 6 l 1,7,8
 1155 -2 1155 -2 1134.5 -6 c 128,-1,9
 1114 -10 1114 -10 1096 -10 c 0,10,11
 1069 -10 1069 -10 1045.5 0 c 128,-1,12
 1022 10 1022 10 1012 39 c 2,13,-1
 877 414 l 1,14,-1
 303 414 l 1,15,-1
 170 39 l 2,16,17
 160 10 160 10 136.5 0 c 128,-1,18
 113 -10 113 -10 86 -10 c 0,19,20
 68 -10 68 -10 47.5 -5 c 128,-1,21
 27 0 27 0 12 6 c 1,0,-1
327 1528 m 256,22,23
 327 1565 327 1565 353 1591.5 c 128,-1,24
 379 1618 379 1618 415 1618 c 0,25,26
 452 1618 452 1618 479 1591.5 c 128,-1,27
 506 1565 506 1565 506 1528 c 256,28,29
 506 1491 506 1491 479 1465.5 c 128,-1,30
 452 1440 452 1440 415 1440 c 256,31,32
 378 1440 378 1440 352.5 1465.5 c 128,-1,33
 327 1491 327 1491 327 1528 c 256,22,23
346 541 m 1,34,-1
 834 541 l 1,35,-1
 594 1214 l 1,36,-1
 588 1214 l 1,37,-1
 346 541 l 1,34,-1
673 1528 m 256,38,39
 673 1565 673 1565 699 1591.5 c 128,-1,40
 725 1618 725 1618 762 1618 c 0,41,42
 801 1618 801 1618 826.5 1591.5 c 128,-1,43
 852 1565 852 1565 852 1528 c 256,44,45
 852 1491 852 1491 826.5 1465.5 c 128,-1,46
 801 1440 801 1440 762 1440 c 0,47,48
 725 1440 725 1440 699 1465.5 c 128,-1,49
 673 1491 673 1491 673 1528 c 256,38,39
EndSplineSet
EndChar

StartChar: Aring
Encoding: 197 197 135
Width: 1179
GlyphClass: 2
Flags: W
LayerCount: 2
Fore
SplineSet
12 6 m 1,0,-1
 496 1327 l 1,1,2
 547 1339 547 1339 592 1339 c 0,3,4
 653 1339 653 1339 677.5 1321 c 128,-1,5
 702 1303 702 1303 719 1255 c 2,6,-1
 1167 6 l 1,7,8
 1155 -2 1155 -2 1134.5 -6 c 128,-1,9
 1114 -10 1114 -10 1096 -10 c 0,10,11
 1069 -10 1069 -10 1045.5 0 c 128,-1,12
 1022 10 1022 10 1012 39 c 2,13,-1
 877 414 l 1,14,-1
 303 414 l 1,15,-1
 170 39 l 2,16,17
 160 10 160 10 136.5 0 c 128,-1,18
 113 -10 113 -10 86 -10 c 0,19,20
 68 -10 68 -10 47.5 -5 c 128,-1,21
 27 0 27 0 12 6 c 1,0,-1
346 541 m 1,22,-1
 834 541 l 1,23,-1
 594 1214 l 1,24,-1
 588 1214 l 1,25,-1
 346 541 l 1,22,-1
387 1602 m 0,26,27
 387 1645 387 1645 403.5 1680.5 c 128,-1,28
 420 1716 420 1716 447.5 1742.5 c 128,-1,29
 475 1769 475 1769 513 1784.5 c 128,-1,30
 551 1800 551 1800 594 1800 c 256,31,32
 637 1800 637 1800 674 1784.5 c 128,-1,33
 711 1769 711 1769 738.5 1742.5 c 128,-1,34
 766 1716 766 1716 781.5 1680.5 c 128,-1,35
 797 1645 797 1645 797 1602 c 0,36,37
 797 1512 797 1512 736.5 1456.5 c 128,-1,38
 676 1401 676 1401 590 1401 c 256,39,40
 504 1401 504 1401 445.5 1456 c 128,-1,41
 387 1511 387 1511 387 1602 c 0,26,27
479 1602 m 0,42,43
 479 1549 479 1549 512 1515 c 128,-1,44
 545 1481 545 1481 592 1481 c 256,45,46
 639 1481 639 1481 672 1514.5 c 128,-1,47
 705 1548 705 1548 705 1602 c 0,48,49
 705 1653 705 1653 672 1686.5 c 128,-1,50
 639 1720 639 1720 592 1720 c 256,51,52
 545 1720 545 1720 512 1686.5 c 128,-1,53
 479 1653 479 1653 479 1602 c 0,42,43
EndSplineSet
EndChar

StartChar: AE
Encoding: 198 198 136
Width: 1656
GlyphClass: 2
Flags: W
LayerCount: 2
Fore
SplineSet
-25 8 m 1,0,-1
 588 1331 l 1,1,-1
 1556 1331 l 1,2,3
 1558 1321 1558 1321 1559.5 1304.5 c 128,-1,4
 1561 1288 1561 1288 1561 1270 c 0,5,6
 1561 1233 1561 1233 1544.5 1218.5 c 128,-1,7
 1528 1204 1528 1204 1505 1204 c 2,8,-1
 827 1204 l 1,9,-1
 950 752 l 1,10,-1
 1518 752 l 1,11,12
 1522 744 1522 744 1523 727.5 c 128,-1,13
 1524 711 1524 711 1524 692 c 0,14,15
 1524 655 1524 655 1508.5 642 c 128,-1,16
 1493 629 1493 629 1470 629 c 2,17,-1
 981 629 l 1,18,-1
 1118 127 l 1,19,-1
 1569 127 l 1,20,21
 1571 117 1571 117 1572 100.5 c 128,-1,22
 1573 84 1573 84 1573 68 c 0,23,24
 1573 29 1573 29 1557.5 14.5 c 128,-1,25
 1542 0 1542 0 1520 0 c 2,26,-1
 1081 0 l 2,27,28
 1050 0 1050 0 1022.5 10 c 128,-1,29
 995 20 995 20 985 61 c 2,30,-1
 893 406 l 1,31,-1
 313 406 l 1,32,-1
 154 51 l 2,33,34
 138 12 138 12 113 1 c 128,-1,35
 88 -10 88 -10 57 -10 c 0,36,37
 37 -10 37 -10 14.5 -5 c 128,-1,38
 -8 0 -8 0 -25 8 c 1,0,-1
369 535 m 1,39,-1
 862 535 l 1,40,-1
 678 1198 l 1,41,-1
 369 535 l 1,39,-1
EndSplineSet
EndChar

StartChar: Ccedilla
Encoding: 199 199 137
Width: 1142
GlyphClass: 2
Flags: W
LayerCount: 2
Fore
SplineSet
68 655 m 0,0,1
 68 798 68 798 115 923.5 c 128,-1,2
 162 1049 162 1049 246 1141 c 128,-1,3
 330 1233 330 1233 448.5 1285 c 128,-1,4
 567 1337 567 1337 713 1337 c 0,5,6
 817 1337 817 1337 915.5 1312.5 c 128,-1,7
 1014 1288 1014 1288 1098 1253 c 1,8,9
 1102 1187 1102 1187 1082.5 1164 c 128,-1,10
 1063 1141 1063 1141 1034 1141 c 0,11,12
 1018 1141 1018 1141 991.5 1151 c 128,-1,13
 965 1161 965 1161 926 1173.5 c 128,-1,14
 887 1186 887 1186 834.5 1196 c 128,-1,15
 782 1206 782 1206 715 1206 c 0,16,17
 613 1206 613 1206 520.5 1168 c 128,-1,18
 428 1130 428 1130 359.5 1058.5 c 128,-1,19
 291 987 291 987 251 884.5 c 128,-1,20
 211 782 211 782 211 655 c 0,21,22
 211 522 211 522 251 420.5 c 128,-1,23
 291 319 291 319 359.5 248.5 c 128,-1,24
 428 178 428 178 520 142 c 128,-1,25
 612 106 612 106 715 106 c 0,26,27
 783 106 783 106 835 116.5 c 128,-1,28
 887 127 887 127 927 139.5 c 128,-1,29
 967 152 967 152 993.5 162 c 128,-1,30
 1020 172 1020 172 1038 172 c 0,31,32
 1067 172 1067 172 1088.5 146.5 c 128,-1,33
 1110 121 1110 121 1100 59 c 1,34,35
 1014 20 1014 20 906.5 -3.5 c 128,-1,36
 799 -27 799 -27 682 -23 c 1,37,-1
 664 -78 l 1,38,39
 719 -80 719 -80 758 -95.5 c 128,-1,40
 797 -111 797 -111 819.5 -135.5 c 128,-1,41
 842 -160 842 -160 852 -187.5 c 128,-1,42
 862 -215 862 -215 862 -242 c 0,43,44
 862 -332 862 -332 797.5 -378 c 128,-1,45
 733 -424 733 -424 645 -424 c 0,46,47
 594 -424 594 -424 546 -408.5 c 128,-1,48
 498 -393 498 -393 463 -375 c 1,49,50
 463 -352 463 -352 475 -330.5 c 128,-1,51
 487 -309 487 -309 510 -309 c 0,52,53
 537 -309 537 -309 566.5 -323.5 c 128,-1,54
 596 -338 596 -338 649 -338 c 0,55,56
 696 -338 696 -338 731 -313.5 c 128,-1,57
 766 -289 766 -289 766 -242 c 0,58,59
 766 -209 766 -209 736.5 -182.5 c 128,-1,60
 707 -156 707 -156 633 -156 c 2,61,-1
 623 -156 l 2,62,63
 588 -156 588 -156 576.5 -146.5 c 128,-1,64
 565 -137 565 -137 565 -121 c 0,65,66
 565 -109 565 -109 573 -86 c 2,67,-1
 596 -14 l 1,68,69
 475 4 475 4 378 61.5 c 128,-1,70
 281 119 281 119 212 206 c 128,-1,71
 143 293 143 293 105.5 407.5 c 128,-1,72
 68 522 68 522 68 655 c 0,0,1
EndSplineSet
EndChar

StartChar: Egrave
Encoding: 200 200 138
Width: 1028
GlyphClass: 2
Flags: W
LayerCount: 2
Fore
SplineSet
164 57 m 2,0,-1
 164 1274 l 2,1,2
 164 1299 164 1299 175 1315 c 128,-1,3
 186 1331 186 1331 227 1331 c 2,4,-1
 924 1331 l 1,5,6
 928 1321 928 1321 930 1304.5 c 128,-1,7
 932 1288 932 1288 932 1270 c 0,8,9
 932 1233 932 1233 915.5 1219.5 c 128,-1,10
 899 1206 899 1206 877 1206 c 2,11,-1
 305 1206 l 1,12,-1
 305 727 l 1,13,-1
 868 727 l 1,14,15
 876 707 876 707 877 668 c 0,16,17
 877 631 877 631 862.5 617.5 c 128,-1,18
 848 604 848 604 825 604 c 2,19,-1
 305 604 l 1,20,-1
 305 125 l 1,21,-1
 936 125 l 1,22,23
 940 115 940 115 942 99.5 c 128,-1,24
 944 84 944 84 944 68 c 0,25,26
 944 29 944 29 928.5 14.5 c 128,-1,27
 913 0 913 0 891 0 c 2,28,-1
 227 0 l 2,29,30
 186 0 186 0 175 16.5 c 128,-1,31
 164 33 164 33 164 57 c 2,0,-1
340 1647 m 0,32,33
 340 1704 340 1704 410 1727 c 1,34,-1
 713 1438 l 1,35,36
 701 1424 701 1424 680.5 1414.5 c 128,-1,37
 660 1405 660 1405 635 1405 c 0,38,39
 615 1405 615 1405 592.5 1412 c 128,-1,40
 570 1419 570 1419 545 1438 c 2,41,-1
 404 1550 l 2,42,43
 341 1595 341 1595 340 1647 c 0,32,33
EndSplineSet
EndChar

StartChar: Eacute
Encoding: 201 201 139
Width: 1028
GlyphClass: 2
Flags: W
LayerCount: 2
Fore
SplineSet
164 57 m 2,0,-1
 164 1274 l 2,1,2
 164 1299 164 1299 175 1315 c 128,-1,3
 186 1331 186 1331 227 1331 c 2,4,-1
 924 1331 l 1,5,6
 928 1321 928 1321 930 1304.5 c 128,-1,7
 932 1288 932 1288 932 1270 c 0,8,9
 932 1233 932 1233 915.5 1219.5 c 128,-1,10
 899 1206 899 1206 877 1206 c 2,11,-1
 305 1206 l 1,12,-1
 305 727 l 1,13,-1
 868 727 l 1,14,15
 876 707 876 707 877 668 c 0,16,17
 877 631 877 631 862.5 617.5 c 128,-1,18
 848 604 848 604 825 604 c 2,19,-1
 305 604 l 1,20,-1
 305 125 l 1,21,-1
 936 125 l 1,22,23
 940 115 940 115 942 99.5 c 128,-1,24
 944 84 944 84 944 68 c 0,25,26
 944 29 944 29 928.5 14.5 c 128,-1,27
 913 0 913 0 891 0 c 2,28,-1
 227 0 l 2,29,30
 186 0 186 0 175 16.5 c 128,-1,31
 164 33 164 33 164 57 c 2,0,-1
393 1438 m 1,32,-1
 697 1727 l 1,33,34
 767 1704 767 1704 766 1647 c 0,35,36
 766 1596 766 1596 703 1550 c 2,37,-1
 561 1438 l 2,38,39
 536 1420 536 1420 513.5 1412.5 c 128,-1,40
 491 1405 491 1405 471 1405 c 0,41,42
 446 1405 446 1405 426 1414 c 128,-1,43
 406 1423 406 1423 393 1438 c 1,32,-1
EndSplineSet
EndChar

StartChar: Ecircumflex
Encoding: 202 202 140
Width: 1028
GlyphClass: 2
Flags: W
LayerCount: 2
Fore
SplineSet
164 57 m 2,0,-1
 164 1274 l 2,1,2
 164 1299 164 1299 175 1315 c 128,-1,3
 186 1331 186 1331 227 1331 c 2,4,-1
 924 1331 l 1,5,6
 928 1321 928 1321 930 1304.5 c 128,-1,7
 932 1288 932 1288 932 1270 c 0,8,9
 932 1233 932 1233 915.5 1219.5 c 128,-1,10
 899 1206 899 1206 877 1206 c 2,11,-1
 305 1206 l 1,12,-1
 305 727 l 1,13,-1
 868 727 l 1,14,15
 876 707 876 707 877 668 c 0,16,17
 877 631 877 631 862.5 617.5 c 128,-1,18
 848 604 848 604 825 604 c 2,19,-1
 305 604 l 1,20,-1
 305 125 l 1,21,-1
 936 125 l 1,22,23
 940 115 940 115 942 99.5 c 128,-1,24
 944 84 944 84 944 68 c 0,25,26
 944 29 944 29 928.5 14.5 c 128,-1,27
 913 0 913 0 891 0 c 2,28,-1
 227 0 l 2,29,30
 186 0 186 0 175 16.5 c 128,-1,31
 164 33 164 33 164 57 c 2,0,-1
277 1423 m 1,32,-1
 463 1681 l 2,33,34
 488 1722 488 1722 537 1722 c 0,35,36
 592 1722 592 1722 617 1681 c 2,37,-1
 805 1421 l 1,38,39
 793 1417 793 1417 772.5 1414 c 128,-1,40
 752 1411 752 1411 735 1411 c 0,41,42
 692 1411 692 1411 670 1442 c 2,43,-1
 541 1626 l 1,44,-1
 416 1444 l 2,45,46
 393 1411 393 1411 348 1411 c 0,47,48
 323 1411 323 1411 305 1415 c 128,-1,49
 287 1419 287 1419 277 1423 c 1,32,-1
EndSplineSet
EndChar

StartChar: Edieresis
Encoding: 203 203 141
Width: 1028
GlyphClass: 2
Flags: W
LayerCount: 2
Fore
SplineSet
164 57 m 2,0,-1
 164 1274 l 2,1,2
 164 1299 164 1299 175 1315 c 128,-1,3
 186 1331 186 1331 227 1331 c 2,4,-1
 924 1331 l 1,5,6
 928 1321 928 1321 930 1304.5 c 128,-1,7
 932 1288 932 1288 932 1270 c 0,8,9
 932 1233 932 1233 915.5 1219.5 c 128,-1,10
 899 1206 899 1206 877 1206 c 2,11,-1
 305 1206 l 1,12,-1
 305 727 l 1,13,-1
 868 727 l 1,14,15
 876 707 876 707 877 668 c 0,16,17
 877 631 877 631 862.5 617.5 c 128,-1,18
 848 604 848 604 825 604 c 2,19,-1
 305 604 l 1,20,-1
 305 125 l 1,21,-1
 936 125 l 1,22,23
 940 115 940 115 942 99.5 c 128,-1,24
 944 84 944 84 944 68 c 0,25,26
 944 29 944 29 928.5 14.5 c 128,-1,27
 913 0 913 0 891 0 c 2,28,-1
 227 0 l 2,29,30
 186 0 186 0 175 16.5 c 128,-1,31
 164 33 164 33 164 57 c 2,0,-1
290 1532 m 256,32,33
 290 1569 290 1569 316 1595.5 c 128,-1,34
 342 1622 342 1622 378 1622 c 0,35,36
 415 1622 415 1622 442 1595.5 c 128,-1,37
 469 1569 469 1569 469 1532 c 256,38,39
 469 1495 469 1495 442 1469.5 c 128,-1,40
 415 1444 415 1444 378 1444 c 256,41,42
 341 1444 341 1444 315.5 1469.5 c 128,-1,43
 290 1495 290 1495 290 1532 c 256,32,33
636 1532 m 256,44,45
 636 1569 636 1569 662 1595.5 c 128,-1,46
 688 1622 688 1622 725 1622 c 0,47,48
 764 1622 764 1622 789.5 1595.5 c 128,-1,49
 815 1569 815 1569 815 1532 c 256,50,51
 815 1495 815 1495 789.5 1469.5 c 128,-1,52
 764 1444 764 1444 725 1444 c 0,53,54
 688 1444 688 1444 662 1469.5 c 128,-1,55
 636 1495 636 1495 636 1532 c 256,44,45
EndSplineSet
EndChar

StartChar: Igrave
Encoding: 204 204 142
Width: 468
GlyphClass: 2
Flags: W
LayerCount: 2
Fore
SplineSet
10 1645 m 0,0,1
 10 1702 10 1702 80 1725 c 1,2,-1
 383 1436 l 1,3,4
 371 1422 371 1422 350.5 1412.5 c 128,-1,5
 330 1403 330 1403 305 1403 c 0,6,7
 285 1403 285 1403 262.5 1410 c 128,-1,8
 240 1417 240 1417 215 1436 c 2,9,-1
 74 1548 l 2,10,11
 11 1593 11 1593 10 1645 c 0,0,1
164 -4 m 1,12,-1
 164 1280 l 2,13,14
 164 1305 164 1305 181.5 1320 c 128,-1,15
 199 1335 199 1335 240 1335 c 0,16,17
 258 1335 258 1335 276.5 1333 c 128,-1,18
 295 1331 295 1331 305 1327 c 1,19,-1
 305 43 l 2,20,21
 305 18 305 18 287.5 3 c 128,-1,22
 270 -12 270 -12 229 -12 c 0,23,24
 211 -12 211 -12 192.5 -10 c 128,-1,25
 174 -8 174 -8 164 -4 c 1,12,-1
EndSplineSet
EndChar

StartChar: Iacute
Encoding: 205 205 143
Width: 468
GlyphClass: 2
Flags: W
LayerCount: 2
Fore
SplineSet
104 1436 m 1,0,-1
 408 1725 l 1,1,2
 478 1702 478 1702 477 1645 c 0,3,4
 477 1594 477 1594 414 1548 c 2,5,-1
 272 1436 l 2,6,7
 247 1418 247 1418 224.5 1410.5 c 128,-1,8
 202 1403 202 1403 182 1403 c 0,9,10
 157 1403 157 1403 137 1412 c 128,-1,11
 117 1421 117 1421 104 1436 c 1,0,-1
164 -4 m 1,12,-1
 164 1280 l 2,13,14
 164 1305 164 1305 181.5 1320 c 128,-1,15
 199 1335 199 1335 240 1335 c 0,16,17
 258 1335 258 1335 276.5 1333 c 128,-1,18
 295 1331 295 1331 305 1327 c 1,19,-1
 305 43 l 2,20,21
 305 18 305 18 287.5 3 c 128,-1,22
 270 -12 270 -12 229 -12 c 0,23,24
 211 -12 211 -12 192.5 -10 c 128,-1,25
 174 -8 174 -8 164 -4 c 1,12,-1
EndSplineSet
EndChar

StartChar: Icircumflex
Encoding: 206 206 144
Width: 468
GlyphClass: 2
Flags: W
LayerCount: 2
Fore
SplineSet
-24 1423 m 1,0,-1
 162 1681 l 2,1,2
 187 1722 187 1722 236 1722 c 0,3,4
 291 1722 291 1722 316 1681 c 2,5,-1
 504 1421 l 1,6,7
 492 1417 492 1417 471.5 1414 c 128,-1,8
 451 1411 451 1411 434 1411 c 0,9,10
 391 1411 391 1411 369 1442 c 2,11,-1
 240 1626 l 1,12,-1
 115 1444 l 2,13,14
 92 1411 92 1411 47 1411 c 0,15,16
 22 1411 22 1411 4 1415 c 128,-1,17
 -14 1419 -14 1419 -24 1423 c 1,0,-1
164 -4 m 1,18,-1
 164 1280 l 2,19,20
 164 1305 164 1305 181.5 1320 c 128,-1,21
 199 1335 199 1335 240 1335 c 0,22,23
 258 1335 258 1335 276.5 1333 c 128,-1,24
 295 1331 295 1331 305 1327 c 1,25,-1
 305 43 l 2,26,27
 305 18 305 18 287.5 3 c 128,-1,28
 270 -12 270 -12 229 -12 c 0,29,30
 211 -12 211 -12 192.5 -10 c 128,-1,31
 174 -8 174 -8 164 -4 c 1,18,-1
EndSplineSet
EndChar

StartChar: Idieresis
Encoding: 207 207 145
Width: 468
GlyphClass: 2
Flags: W
LayerCount: 2
Fore
SplineSet
-25 1534 m 256,0,1
 -25 1571 -25 1571 1 1597.5 c 128,-1,2
 27 1624 27 1624 63 1624 c 0,3,4
 100 1624 100 1624 127 1597.5 c 128,-1,5
 154 1571 154 1571 154 1534 c 256,6,7
 154 1497 154 1497 127 1471.5 c 128,-1,8
 100 1446 100 1446 63 1446 c 256,9,10
 26 1446 26 1446 0.5 1471.5 c 128,-1,11
 -25 1497 -25 1497 -25 1534 c 256,0,1
164 -4 m 1,12,-1
 164 1280 l 2,13,14
 164 1305 164 1305 181.5 1320 c 128,-1,15
 199 1335 199 1335 240 1335 c 0,16,17
 258 1335 258 1335 276.5 1333 c 128,-1,18
 295 1331 295 1331 305 1327 c 1,19,-1
 305 43 l 2,20,21
 305 18 305 18 287.5 3 c 128,-1,22
 270 -12 270 -12 229 -12 c 0,23,24
 211 -12 211 -12 192.5 -10 c 128,-1,25
 174 -8 174 -8 164 -4 c 1,12,-1
321 1534 m 256,26,27
 321 1571 321 1571 347 1597.5 c 128,-1,28
 373 1624 373 1624 410 1624 c 0,29,30
 449 1624 449 1624 474.5 1597.5 c 128,-1,31
 500 1571 500 1571 500 1534 c 256,32,33
 500 1497 500 1497 474.5 1471.5 c 128,-1,34
 449 1446 449 1446 410 1446 c 0,35,36
 373 1446 373 1446 347 1471.5 c 128,-1,37
 321 1497 321 1497 321 1534 c 256,26,27
EndSplineSet
EndChar

StartChar: Eth
Encoding: 208 208 146
Width: 1318
GlyphClass: 2
Flags: W
LayerCount: 2
Fore
SplineSet
-2 674 m 0,0,1
 -2 709 -2 709 13.5 723 c 128,-1,2
 29 737 29 737 51 737 c 2,3,-1
 184 737 l 1,4,-1
 184 1274 l 2,5,6
 184 1299 184 1299 195.5 1315 c 128,-1,7
 207 1331 207 1331 248 1331 c 2,8,-1
 553 1331 l 2,9,10
 713 1331 713 1331 842 1285 c 128,-1,11
 971 1239 971 1239 1062 1153 c 128,-1,12
 1153 1067 1153 1067 1202 946 c 128,-1,13
 1251 825 1251 825 1251 676 c 0,14,15
 1251 535 1251 535 1202 412 c 128,-1,16
 1153 289 1153 289 1062 197.5 c 128,-1,17
 971 106 971 106 842 53 c 128,-1,18
 713 0 713 0 553 0 c 2,19,-1
 248 0 l 2,20,21
 207 0 207 0 195.5 16.5 c 128,-1,22
 184 33 184 33 184 57 c 2,23,-1
 184 614 l 1,24,-1
 6 614 l 1,25,26
 4 624 4 624 1 640.5 c 128,-1,27
 -2 657 -2 657 -2 674 c 0,0,1
326 125 m 1,28,-1
 559 125 l 2,29,30
 670 125 670 125 769 160 c 128,-1,31
 868 195 868 195 943 265.5 c 128,-1,32
 1018 336 1018 336 1062 439.5 c 128,-1,33
 1106 543 1106 543 1106 682 c 0,34,35
 1106 825 1106 825 1055 925.5 c 128,-1,36
 1004 1026 1004 1026 917.5 1088.5 c 128,-1,37
 831 1151 831 1151 718.5 1178.5 c 128,-1,38
 606 1206 606 1206 483 1206 c 2,39,-1
 326 1206 l 1,40,-1
 326 737 l 1,41,-1
 647 737 l 1,42,43
 649 727 649 727 652 710.5 c 128,-1,44
 655 694 655 694 655 678 c 0,45,46
 655 643 655 643 640 628.5 c 128,-1,47
 625 614 625 614 602 614 c 2,48,-1
 326 614 l 1,49,-1
 326 125 l 1,28,-1
EndSplineSet
EndChar

StartChar: Ntilde
Encoding: 209 209 147
Width: 1351
GlyphClass: 2
Flags: W
LayerCount: 2
Fore
SplineSet
164 -2 m 1,0,-1
 164 1321 l 1,1,2
 203 1335 203 1335 246 1335 c 0,3,4
 301 1335 301 1335 326.5 1321 c 128,-1,5
 352 1307 352 1307 369 1278 c 2,6,-1
 1057 186 l 1,7,-1
 1057 1284 l 2,8,9
 1057 1307 1057 1307 1074.5 1321 c 128,-1,10
 1092 1335 1092 1335 1126 1335 c 0,11,12
 1144 1335 1144 1335 1161 1333 c 128,-1,13
 1178 1331 1178 1331 1188 1327 c 1,14,-1
 1188 6 l 1,15,16
 1172 0 1172 0 1151 -3 c 128,-1,17
 1130 -6 1130 -6 1110 -6 c 0,18,19
 1059 -6 1059 -6 1037.5 7 c 128,-1,20
 1016 20 1016 20 999 47 c 2,21,-1
 299 1157 l 1,22,-1
 299 43 l 2,23,24
 299 20 299 20 281.5 5 c 128,-1,25
 264 -10 264 -10 227 -10 c 0,26,27
 209 -10 209 -10 191.5 -8 c 128,-1,28
 174 -6 174 -6 164 -2 c 1,0,-1
383 1467 m 1,29,30
 406 1557 406 1557 449 1605 c 128,-1,31
 492 1653 492 1653 563 1653 c 0,32,33
 600 1653 600 1653 632 1634.5 c 128,-1,34
 664 1616 664 1616 691.5 1592.5 c 128,-1,35
 719 1569 719 1569 742.5 1550.5 c 128,-1,36
 766 1532 766 1532 789 1532 c 0,37,38
 807 1532 807 1532 819.5 1549.5 c 128,-1,39
 832 1567 832 1567 842 1586.5 c 128,-1,40
 852 1606 852 1606 866.5 1623.5 c 128,-1,41
 881 1641 881 1641 903 1641 c 0,42,43
 936 1641 936 1641 967 1608 c 1,44,45
 936 1514 936 1514 896 1468 c 128,-1,46
 856 1422 856 1422 782 1422 c 0,47,48
 747 1422 747 1422 715.5 1440.5 c 128,-1,49
 684 1459 684 1459 655.5 1480.5 c 128,-1,50
 627 1502 627 1502 602.5 1520 c 128,-1,51
 578 1538 578 1538 559 1538 c 0,52,53
 536 1538 536 1538 525 1522 c 128,-1,54
 514 1506 514 1506 504 1486.5 c 128,-1,55
 494 1467 494 1467 480.5 1450.5 c 128,-1,56
 467 1434 467 1434 443 1434 c 0,57,58
 410 1434 410 1434 383 1467 c 1,29,30
EndSplineSet
EndChar

StartChar: Ograve
Encoding: 210 210 148
Width: 1406
GlyphClass: 2
Flags: W
LayerCount: 2
Fore
SplineSet
68 670 m 0,0,1
 68 813 68 813 115 938 c 128,-1,2
 162 1063 162 1063 246 1155 c 128,-1,3
 330 1247 330 1247 447.5 1300.5 c 128,-1,4
 565 1354 565 1354 705 1354 c 0,5,6
 842 1354 842 1354 958.5 1301.5 c 128,-1,7
 1075 1249 1075 1249 1160 1157 c 128,-1,8
 1245 1065 1245 1065 1292 939 c 128,-1,9
 1339 813 1339 813 1339 670 c 0,10,11
 1339 525 1339 525 1292 398.5 c 128,-1,12
 1245 272 1245 272 1160 179 c 128,-1,13
 1075 86 1075 86 958.5 31.5 c 128,-1,14
 842 -23 842 -23 705 -23 c 0,15,16
 566 -23 566 -23 448 31.5 c 128,-1,17
 330 86 330 86 246 179 c 128,-1,18
 162 272 162 272 115 398 c 128,-1,19
 68 524 68 524 68 670 c 0,0,1
215 670 m 0,20,21
 215 547 215 547 254 442.5 c 128,-1,22
 293 338 293 338 358.5 262 c 128,-1,23
 424 186 424 186 513 144 c 128,-1,24
 602 102 602 102 702 102 c 256,25,26
 802 102 802 102 891.5 146 c 128,-1,27
 981 190 981 190 1047.5 266 c 128,-1,28
 1114 342 1114 342 1153 445.5 c 128,-1,29
 1192 549 1192 549 1192 670 c 0,30,31
 1192 789 1192 789 1153 891 c 128,-1,32
 1114 993 1114 993 1047.5 1068 c 128,-1,33
 981 1143 981 1143 892 1186 c 128,-1,34
 803 1229 803 1229 705 1229 c 0,35,36
 605 1229 605 1229 515.5 1187 c 128,-1,37
 426 1145 426 1145 359.5 1070 c 128,-1,38
 293 995 293 995 254 893 c 128,-1,39
 215 791 215 791 215 670 c 0,20,21
489 1647 m 0,40,41
 489 1704 489 1704 559 1727 c 1,42,-1
 862 1438 l 1,43,44
 850 1424 850 1424 829.5 1414.5 c 128,-1,45
 809 1405 809 1405 784 1405 c 0,46,47
 764 1405 764 1405 741.5 1412 c 128,-1,48
 719 1419 719 1419 694 1438 c 2,49,-1
 553 1550 l 2,50,51
 490 1595 490 1595 489 1647 c 0,40,41
EndSplineSet
EndChar

StartChar: Oacute
Encoding: 211 211 149
Width: 1406
GlyphClass: 2
Flags: W
LayerCount: 2
Fore
SplineSet
68 670 m 0,0,1
 68 813 68 813 115 938 c 128,-1,2
 162 1063 162 1063 246 1155 c 128,-1,3
 330 1247 330 1247 447.5 1300.5 c 128,-1,4
 565 1354 565 1354 705 1354 c 0,5,6
 842 1354 842 1354 958.5 1301.5 c 128,-1,7
 1075 1249 1075 1249 1160 1157 c 128,-1,8
 1245 1065 1245 1065 1292 939 c 128,-1,9
 1339 813 1339 813 1339 670 c 0,10,11
 1339 525 1339 525 1292 398.5 c 128,-1,12
 1245 272 1245 272 1160 179 c 128,-1,13
 1075 86 1075 86 958.5 31.5 c 128,-1,14
 842 -23 842 -23 705 -23 c 0,15,16
 566 -23 566 -23 448 31.5 c 128,-1,17
 330 86 330 86 246 179 c 128,-1,18
 162 272 162 272 115 398 c 128,-1,19
 68 524 68 524 68 670 c 0,0,1
215 670 m 0,20,21
 215 547 215 547 254 442.5 c 128,-1,22
 293 338 293 338 358.5 262 c 128,-1,23
 424 186 424 186 513 144 c 128,-1,24
 602 102 602 102 702 102 c 256,25,26
 802 102 802 102 891.5 146 c 128,-1,27
 981 190 981 190 1047.5 266 c 128,-1,28
 1114 342 1114 342 1153 445.5 c 128,-1,29
 1192 549 1192 549 1192 670 c 0,30,31
 1192 789 1192 789 1153 891 c 128,-1,32
 1114 993 1114 993 1047.5 1068 c 128,-1,33
 981 1143 981 1143 892 1186 c 128,-1,34
 803 1229 803 1229 705 1229 c 0,35,36
 605 1229 605 1229 515.5 1187 c 128,-1,37
 426 1145 426 1145 359.5 1070 c 128,-1,38
 293 995 293 995 254 893 c 128,-1,39
 215 791 215 791 215 670 c 0,20,21
501 1438 m 1,40,-1
 805 1727 l 1,41,42
 875 1704 875 1704 874 1647 c 0,43,44
 874 1596 874 1596 811 1550 c 2,45,-1
 669 1438 l 2,46,47
 644 1420 644 1420 621.5 1412.5 c 128,-1,48
 599 1405 599 1405 579 1405 c 0,49,50
 554 1405 554 1405 534 1414 c 128,-1,51
 514 1423 514 1423 501 1438 c 1,40,-1
EndSplineSet
EndChar

StartChar: Ocircumflex
Encoding: 212 212 150
Width: 1406
GlyphClass: 2
Flags: W
LayerCount: 2
Fore
SplineSet
68 670 m 0,0,1
 68 813 68 813 115 938 c 128,-1,2
 162 1063 162 1063 246 1155 c 128,-1,3
 330 1247 330 1247 447.5 1300.5 c 128,-1,4
 565 1354 565 1354 705 1354 c 0,5,6
 842 1354 842 1354 958.5 1301.5 c 128,-1,7
 1075 1249 1075 1249 1160 1157 c 128,-1,8
 1245 1065 1245 1065 1292 939 c 128,-1,9
 1339 813 1339 813 1339 670 c 0,10,11
 1339 525 1339 525 1292 398.5 c 128,-1,12
 1245 272 1245 272 1160 179 c 128,-1,13
 1075 86 1075 86 958.5 31.5 c 128,-1,14
 842 -23 842 -23 705 -23 c 0,15,16
 566 -23 566 -23 448 31.5 c 128,-1,17
 330 86 330 86 246 179 c 128,-1,18
 162 272 162 272 115 398 c 128,-1,19
 68 524 68 524 68 670 c 0,0,1
215 670 m 0,20,21
 215 547 215 547 254 442.5 c 128,-1,22
 293 338 293 338 358.5 262 c 128,-1,23
 424 186 424 186 513 144 c 128,-1,24
 602 102 602 102 702 102 c 256,25,26
 802 102 802 102 891.5 146 c 128,-1,27
 981 190 981 190 1047.5 266 c 128,-1,28
 1114 342 1114 342 1153 445.5 c 128,-1,29
 1192 549 1192 549 1192 670 c 0,30,31
 1192 789 1192 789 1153 891 c 128,-1,32
 1114 993 1114 993 1047.5 1068 c 128,-1,33
 981 1143 981 1143 892 1186 c 128,-1,34
 803 1229 803 1229 705 1229 c 0,35,36
 605 1229 605 1229 515.5 1187 c 128,-1,37
 426 1145 426 1145 359.5 1070 c 128,-1,38
 293 995 293 995 254 893 c 128,-1,39
 215 791 215 791 215 670 c 0,20,21
441 1423 m 1,40,-1
 627 1681 l 2,41,42
 652 1722 652 1722 701 1722 c 0,43,44
 756 1722 756 1722 781 1681 c 2,45,-1
 969 1421 l 1,46,47
 957 1417 957 1417 936.5 1414 c 128,-1,48
 916 1411 916 1411 899 1411 c 0,49,50
 856 1411 856 1411 834 1442 c 2,51,-1
 705 1626 l 1,52,-1
 580 1444 l 2,53,54
 557 1411 557 1411 512 1411 c 0,55,56
 487 1411 487 1411 469 1415 c 128,-1,57
 451 1419 451 1419 441 1423 c 1,40,-1
EndSplineSet
EndChar

StartChar: Otilde
Encoding: 213 213 151
Width: 1406
GlyphClass: 2
Flags: W
LayerCount: 2
Fore
SplineSet
68 670 m 0,0,1
 68 813 68 813 115 938 c 128,-1,2
 162 1063 162 1063 246 1155 c 128,-1,3
 330 1247 330 1247 447.5 1300.5 c 128,-1,4
 565 1354 565 1354 705 1354 c 0,5,6
 842 1354 842 1354 958.5 1301.5 c 128,-1,7
 1075 1249 1075 1249 1160 1157 c 128,-1,8
 1245 1065 1245 1065 1292 939 c 128,-1,9
 1339 813 1339 813 1339 670 c 0,10,11
 1339 525 1339 525 1292 398.5 c 128,-1,12
 1245 272 1245 272 1160 179 c 128,-1,13
 1075 86 1075 86 958.5 31.5 c 128,-1,14
 842 -23 842 -23 705 -23 c 0,15,16
 566 -23 566 -23 448 31.5 c 128,-1,17
 330 86 330 86 246 179 c 128,-1,18
 162 272 162 272 115 398 c 128,-1,19
 68 524 68 524 68 670 c 0,0,1
215 670 m 0,20,21
 215 547 215 547 254 442.5 c 128,-1,22
 293 338 293 338 358.5 262 c 128,-1,23
 424 186 424 186 513 144 c 128,-1,24
 602 102 602 102 702 102 c 256,25,26
 802 102 802 102 891.5 146 c 128,-1,27
 981 190 981 190 1047.5 266 c 128,-1,28
 1114 342 1114 342 1153 445.5 c 128,-1,29
 1192 549 1192 549 1192 670 c 0,30,31
 1192 789 1192 789 1153 891 c 128,-1,32
 1114 993 1114 993 1047.5 1068 c 128,-1,33
 981 1143 981 1143 892 1186 c 128,-1,34
 803 1229 803 1229 705 1229 c 0,35,36
 605 1229 605 1229 515.5 1187 c 128,-1,37
 426 1145 426 1145 359.5 1070 c 128,-1,38
 293 995 293 995 254 893 c 128,-1,39
 215 791 215 791 215 670 c 0,20,21
412 1467 m 1,40,41
 435 1557 435 1557 478 1605 c 128,-1,42
 521 1653 521 1653 592 1653 c 0,43,44
 629 1653 629 1653 661 1634.5 c 128,-1,45
 693 1616 693 1616 720.5 1592.5 c 128,-1,46
 748 1569 748 1569 771.5 1550.5 c 128,-1,47
 795 1532 795 1532 818 1532 c 0,48,49
 836 1532 836 1532 848.5 1549.5 c 128,-1,50
 861 1567 861 1567 871 1586.5 c 128,-1,51
 881 1606 881 1606 895.5 1623.5 c 128,-1,52
 910 1641 910 1641 932 1641 c 0,53,54
 965 1641 965 1641 996 1608 c 1,55,56
 965 1514 965 1514 925 1468 c 128,-1,57
 885 1422 885 1422 811 1422 c 0,58,59
 776 1422 776 1422 744.5 1440.5 c 128,-1,60
 713 1459 713 1459 684.5 1480.5 c 128,-1,61
 656 1502 656 1502 631.5 1520 c 128,-1,62
 607 1538 607 1538 588 1538 c 0,63,64
 565 1538 565 1538 554 1522 c 128,-1,65
 543 1506 543 1506 533 1486.5 c 128,-1,66
 523 1467 523 1467 509.5 1450.5 c 128,-1,67
 496 1434 496 1434 472 1434 c 0,68,69
 439 1434 439 1434 412 1467 c 1,40,41
EndSplineSet
EndChar

StartChar: Odieresis
Encoding: 214 214 152
Width: 1406
GlyphClass: 2
Flags: W
LayerCount: 2
Fore
SplineSet
68 670 m 0,0,1
 68 813 68 813 115 938 c 128,-1,2
 162 1063 162 1063 246 1155 c 128,-1,3
 330 1247 330 1247 447.5 1300.5 c 128,-1,4
 565 1354 565 1354 705 1354 c 0,5,6
 842 1354 842 1354 958.5 1301.5 c 128,-1,7
 1075 1249 1075 1249 1160 1157 c 128,-1,8
 1245 1065 1245 1065 1292 939 c 128,-1,9
 1339 813 1339 813 1339 670 c 0,10,11
 1339 525 1339 525 1292 398.5 c 128,-1,12
 1245 272 1245 272 1160 179 c 128,-1,13
 1075 86 1075 86 958.5 31.5 c 128,-1,14
 842 -23 842 -23 705 -23 c 0,15,16
 566 -23 566 -23 448 31.5 c 128,-1,17
 330 86 330 86 246 179 c 128,-1,18
 162 272 162 272 115 398 c 128,-1,19
 68 524 68 524 68 670 c 0,0,1
215 670 m 0,20,21
 215 547 215 547 254 442.5 c 128,-1,22
 293 338 293 338 358.5 262 c 128,-1,23
 424 186 424 186 513 144 c 128,-1,24
 602 102 602 102 702 102 c 256,25,26
 802 102 802 102 891.5 146 c 128,-1,27
 981 190 981 190 1047.5 266 c 128,-1,28
 1114 342 1114 342 1153 445.5 c 128,-1,29
 1192 549 1192 549 1192 670 c 0,30,31
 1192 789 1192 789 1153 891 c 128,-1,32
 1114 993 1114 993 1047.5 1068 c 128,-1,33
 981 1143 981 1143 892 1186 c 128,-1,34
 803 1229 803 1229 705 1229 c 0,35,36
 605 1229 605 1229 515.5 1187 c 128,-1,37
 426 1145 426 1145 359.5 1070 c 128,-1,38
 293 995 293 995 254 893 c 128,-1,39
 215 791 215 791 215 670 c 0,20,21
440 1534 m 256,40,41
 440 1571 440 1571 466 1597.5 c 128,-1,42
 492 1624 492 1624 528 1624 c 0,43,44
 565 1624 565 1624 592 1597.5 c 128,-1,45
 619 1571 619 1571 619 1534 c 256,46,47
 619 1497 619 1497 592 1471.5 c 128,-1,48
 565 1446 565 1446 528 1446 c 256,49,50
 491 1446 491 1446 465.5 1471.5 c 128,-1,51
 440 1497 440 1497 440 1534 c 256,40,41
786 1534 m 256,52,53
 786 1571 786 1571 812 1597.5 c 128,-1,54
 838 1624 838 1624 875 1624 c 0,55,56
 914 1624 914 1624 939.5 1597.5 c 128,-1,57
 965 1571 965 1571 965 1534 c 256,58,59
 965 1497 965 1497 939.5 1471.5 c 128,-1,60
 914 1446 914 1446 875 1446 c 0,61,62
 838 1446 838 1446 812 1471.5 c 128,-1,63
 786 1497 786 1497 786 1534 c 256,52,53
EndSplineSet
EndChar

StartChar: multiply
Encoding: 215 215 153
Width: 1232
GlyphClass: 2
Flags: W
LayerCount: 2
Fore
SplineSet
176 152 m 1,0,-1
 528 504 l 1,1,-1
 209 821 l 2,2,3
 193 839 193 839 193 858 c 0,4,5
 193 878 193 878 221 905 c 0,6,7
 233 917 233 917 245.5 926.5 c 128,-1,8
 258 936 258 936 268 940 c 1,9,-1
 618 594 l 1,10,-1
 936 913 l 2,11,12
 954 931 954 931 973 932 c 0,13,14
 993 932 993 932 1020 901 c 0,15,16
 1032 889 1032 889 1041.5 876.5 c 128,-1,17
 1051 864 1051 864 1055 854 c 1,18,-1
 709 504 l 1,19,-1
 1024 184 l 2,20,21
 1042 166 1042 166 1042 150 c 0,22,23
 1042 130 1042 130 1012 100 c 0,24,25
 1000 88 1000 88 987.5 79 c 128,-1,26
 975 70 975 70 965 66 c 1,27,-1
 618 414 l 1,28,-1
 297 92 l 2,29,30
 281 76 281 76 264 76 c 0,31,32
 239 76 239 76 213 104 c 0,33,34
 199 116 199 116 190.5 128.5 c 128,-1,35
 182 141 182 141 176 152 c 1,0,-1
EndSplineSet
EndChar

StartChar: Oslash
Encoding: 216 216 154
Width: 1423
GlyphClass: 2
Flags: W
LayerCount: 2
Fore
SplineSet
76 670 m 0,0,1
 76 813 76 813 123 938 c 128,-1,2
 170 1063 170 1063 254 1155 c 128,-1,3
 338 1247 338 1247 454.5 1300.5 c 128,-1,4
 571 1354 571 1354 711 1354 c 0,5,6
 809 1354 809 1354 893 1327 c 128,-1,7
 977 1300 977 1300 1049 1253 c 1,8,-1
 1106 1335 l 2,9,10
 1120 1358 1120 1358 1138.5 1373.5 c 128,-1,11
 1157 1389 1157 1389 1190 1389 c 0,12,13
 1206 1389 1206 1389 1226.5 1384.5 c 128,-1,14
 1247 1380 1247 1380 1264 1374 c 1,15,-1
 1137 1188 l 1,16,17
 1235 1094 1235 1094 1291.5 960.5 c 128,-1,18
 1348 827 1348 827 1348 670 c 0,19,20
 1348 525 1348 525 1300.5 398.5 c 128,-1,21
 1253 272 1253 272 1168 179 c 128,-1,22
 1083 86 1083 86 966.5 31.5 c 128,-1,23
 850 -23 850 -23 711 -23 c 0,24,25
 615 -23 615 -23 528.5 5 c 128,-1,26
 442 33 442 33 371 80 c 1,27,-1
 317 6 l 2,28,29
 301 -19 301 -19 279.5 -36 c 128,-1,30
 258 -53 258 -53 221 -53 c 0,31,32
 205 -53 205 -53 185.5 -48 c 128,-1,33
 166 -43 166 -43 154 -37 c 1,34,-1
 283 147 l 1,35,36
 185 243 185 243 130.5 377.5 c 128,-1,37
 76 512 76 512 76 670 c 0,0,1
223 670 m 0,38,39
 223 545 223 545 261 441.5 c 128,-1,40
 299 338 299 338 367 264 c 1,41,-1
 969 1143 l 1,42,43
 914 1184 914 1184 848 1206.5 c 128,-1,44
 782 1229 782 1229 711 1229 c 0,45,46
 611 1229 611 1229 522.5 1187 c 128,-1,47
 434 1145 434 1145 367.5 1070 c 128,-1,48
 301 995 301 995 262 893 c 128,-1,49
 223 791 223 791 223 670 c 0,38,39
446 188 m 1,50,51
 503 147 503 147 570 124.5 c 128,-1,52
 637 102 637 102 711 102 c 0,53,54
 809 102 809 102 898 145 c 128,-1,55
 987 188 987 188 1053.5 265 c 128,-1,56
 1120 342 1120 342 1160 445.5 c 128,-1,57
 1200 549 1200 549 1200 670 c 0,58,59
 1200 781 1200 781 1162 887 c 128,-1,60
 1124 993 1124 993 1051 1067 c 1,61,-1
 446 188 l 1,50,51
EndSplineSet
EndChar

StartChar: Ugrave
Encoding: 217 217 155
Width: 1323
GlyphClass: 2
Flags: W
LayerCount: 2
Fore
SplineSet
135 551 m 2,0,-1
 135 1280 l 2,1,2
 135 1305 135 1305 152.5 1320 c 128,-1,3
 170 1335 170 1335 211 1335 c 0,4,5
 229 1335 229 1335 247.5 1333 c 128,-1,6
 266 1331 266 1331 276 1327 c 1,7,-1
 276 541 l 2,8,9
 276 445 276 445 301 364 c 128,-1,10
 326 283 326 283 374 225.5 c 128,-1,11
 422 168 422 168 493.5 136 c 128,-1,12
 565 104 565 104 659 104 c 0,13,14
 749 104 749 104 822 136 c 128,-1,15
 895 168 895 168 945 224.5 c 128,-1,16
 995 281 995 281 1022 361.5 c 128,-1,17
 1049 442 1049 442 1049 541 c 2,18,-1
 1049 1280 l 2,19,20
 1049 1305 1049 1305 1065 1320 c 128,-1,21
 1081 1335 1081 1335 1122 1335 c 0,22,23
 1140 1335 1140 1335 1159 1333 c 128,-1,24
 1178 1331 1178 1331 1188 1327 c 1,25,-1
 1188 549 l 2,26,27
 1188 430 1188 430 1154 325.5 c 128,-1,28
 1120 221 1120 221 1053.5 143.5 c 128,-1,29
 987 66 987 66 887.5 20.5 c 128,-1,30
 788 -25 788 -25 659 -25 c 0,31,32
 528 -25 528 -25 430 20.5 c 128,-1,33
 332 66 332 66 266.5 143.5 c 128,-1,34
 201 221 201 221 168 325.5 c 128,-1,35
 135 430 135 430 135 551 c 2,0,-1
459 1647 m 0,36,37
 459 1704 459 1704 529 1727 c 1,38,-1
 832 1438 l 1,39,40
 820 1424 820 1424 799.5 1414.5 c 128,-1,41
 779 1405 779 1405 754 1405 c 0,42,43
 734 1405 734 1405 711.5 1412 c 128,-1,44
 689 1419 689 1419 664 1438 c 2,45,-1
 523 1550 l 2,46,47
 460 1595 460 1595 459 1647 c 0,36,37
EndSplineSet
EndChar

StartChar: Uacute
Encoding: 218 218 156
Width: 1323
GlyphClass: 2
Flags: W
LayerCount: 2
Fore
SplineSet
135 551 m 2,0,-1
 135 1280 l 2,1,2
 135 1305 135 1305 152.5 1320 c 128,-1,3
 170 1335 170 1335 211 1335 c 0,4,5
 229 1335 229 1335 247.5 1333 c 128,-1,6
 266 1331 266 1331 276 1327 c 1,7,-1
 276 541 l 2,8,9
 276 445 276 445 301 364 c 128,-1,10
 326 283 326 283 374 225.5 c 128,-1,11
 422 168 422 168 493.5 136 c 128,-1,12
 565 104 565 104 659 104 c 0,13,14
 749 104 749 104 822 136 c 128,-1,15
 895 168 895 168 945 224.5 c 128,-1,16
 995 281 995 281 1022 361.5 c 128,-1,17
 1049 442 1049 442 1049 541 c 2,18,-1
 1049 1280 l 2,19,20
 1049 1305 1049 1305 1065 1320 c 128,-1,21
 1081 1335 1081 1335 1122 1335 c 0,22,23
 1140 1335 1140 1335 1159 1333 c 128,-1,24
 1178 1331 1178 1331 1188 1327 c 1,25,-1
 1188 549 l 2,26,27
 1188 430 1188 430 1154 325.5 c 128,-1,28
 1120 221 1120 221 1053.5 143.5 c 128,-1,29
 987 66 987 66 887.5 20.5 c 128,-1,30
 788 -25 788 -25 659 -25 c 0,31,32
 528 -25 528 -25 430 20.5 c 128,-1,33
 332 66 332 66 266.5 143.5 c 128,-1,34
 201 221 201 221 168 325.5 c 128,-1,35
 135 430 135 430 135 551 c 2,0,-1
559 1438 m 1,36,-1
 863 1727 l 1,37,38
 933 1704 933 1704 932 1647 c 0,39,40
 932 1596 932 1596 869 1550 c 2,41,-1
 727 1438 l 2,42,43
 702 1420 702 1420 679.5 1412.5 c 128,-1,44
 657 1405 657 1405 637 1405 c 0,45,46
 612 1405 612 1405 592 1414 c 128,-1,47
 572 1423 572 1423 559 1438 c 1,36,-1
EndSplineSet
EndChar

StartChar: Ucircumflex
Encoding: 219 219 157
Width: 1323
GlyphClass: 2
Flags: W
LayerCount: 2
Fore
SplineSet
135 551 m 2,0,-1
 135 1280 l 2,1,2
 135 1305 135 1305 152.5 1320 c 128,-1,3
 170 1335 170 1335 211 1335 c 0,4,5
 229 1335 229 1335 247.5 1333 c 128,-1,6
 266 1331 266 1331 276 1327 c 1,7,-1
 276 541 l 2,8,9
 276 445 276 445 301 364 c 128,-1,10
 326 283 326 283 374 225.5 c 128,-1,11
 422 168 422 168 493.5 136 c 128,-1,12
 565 104 565 104 659 104 c 0,13,14
 749 104 749 104 822 136 c 128,-1,15
 895 168 895 168 945 224.5 c 128,-1,16
 995 281 995 281 1022 361.5 c 128,-1,17
 1049 442 1049 442 1049 541 c 2,18,-1
 1049 1280 l 2,19,20
 1049 1305 1049 1305 1065 1320 c 128,-1,21
 1081 1335 1081 1335 1122 1335 c 0,22,23
 1140 1335 1140 1335 1159 1333 c 128,-1,24
 1178 1331 1178 1331 1188 1327 c 1,25,-1
 1188 549 l 2,26,27
 1188 430 1188 430 1154 325.5 c 128,-1,28
 1120 221 1120 221 1053.5 143.5 c 128,-1,29
 987 66 987 66 887.5 20.5 c 128,-1,30
 788 -25 788 -25 659 -25 c 0,31,32
 528 -25 528 -25 430 20.5 c 128,-1,33
 332 66 332 66 266.5 143.5 c 128,-1,34
 201 221 201 221 168 325.5 c 128,-1,35
 135 430 135 430 135 551 c 2,0,-1
428 1423 m 1,36,-1
 614 1681 l 2,37,38
 639 1722 639 1722 688 1722 c 0,39,40
 743 1722 743 1722 768 1681 c 2,41,-1
 956 1421 l 1,42,43
 944 1417 944 1417 923.5 1414 c 128,-1,44
 903 1411 903 1411 886 1411 c 0,45,46
 843 1411 843 1411 821 1442 c 2,47,-1
 692 1626 l 1,48,-1
 567 1444 l 2,49,50
 544 1411 544 1411 499 1411 c 0,51,52
 474 1411 474 1411 456 1415 c 128,-1,53
 438 1419 438 1419 428 1423 c 1,36,-1
EndSplineSet
EndChar

StartChar: Udieresis
Encoding: 220 220 158
Width: 1323
GlyphClass: 2
Flags: W
LayerCount: 2
Fore
SplineSet
135 551 m 2,0,-1
 135 1280 l 2,1,2
 135 1305 135 1305 152.5 1320 c 128,-1,3
 170 1335 170 1335 211 1335 c 0,4,5
 229 1335 229 1335 247.5 1333 c 128,-1,6
 266 1331 266 1331 276 1327 c 1,7,-1
 276 541 l 2,8,9
 276 445 276 445 301 364 c 128,-1,10
 326 283 326 283 374 225.5 c 128,-1,11
 422 168 422 168 493.5 136 c 128,-1,12
 565 104 565 104 659 104 c 0,13,14
 749 104 749 104 822 136 c 128,-1,15
 895 168 895 168 945 224.5 c 128,-1,16
 995 281 995 281 1022 361.5 c 128,-1,17
 1049 442 1049 442 1049 541 c 2,18,-1
 1049 1280 l 2,19,20
 1049 1305 1049 1305 1065 1320 c 128,-1,21
 1081 1335 1081 1335 1122 1335 c 0,22,23
 1140 1335 1140 1335 1159 1333 c 128,-1,24
 1178 1331 1178 1331 1188 1327 c 1,25,-1
 1188 549 l 2,26,27
 1188 430 1188 430 1154 325.5 c 128,-1,28
 1120 221 1120 221 1053.5 143.5 c 128,-1,29
 987 66 987 66 887.5 20.5 c 128,-1,30
 788 -25 788 -25 659 -25 c 0,31,32
 528 -25 528 -25 430 20.5 c 128,-1,33
 332 66 332 66 266.5 143.5 c 128,-1,34
 201 221 201 221 168 325.5 c 128,-1,35
 135 430 135 430 135 551 c 2,0,-1
428 1532 m 256,36,37
 428 1569 428 1569 454 1595.5 c 128,-1,38
 480 1622 480 1622 516 1622 c 0,39,40
 553 1622 553 1622 580 1595.5 c 128,-1,41
 607 1569 607 1569 607 1532 c 256,42,43
 607 1495 607 1495 580 1469.5 c 128,-1,44
 553 1444 553 1444 516 1444 c 256,45,46
 479 1444 479 1444 453.5 1469.5 c 128,-1,47
 428 1495 428 1495 428 1532 c 256,36,37
774 1532 m 256,48,49
 774 1569 774 1569 800 1595.5 c 128,-1,50
 826 1622 826 1622 863 1622 c 0,51,52
 902 1622 902 1622 927.5 1595.5 c 128,-1,53
 953 1569 953 1569 953 1532 c 256,54,55
 953 1495 953 1495 927.5 1469.5 c 128,-1,56
 902 1444 902 1444 863 1444 c 0,57,58
 826 1444 826 1444 800 1469.5 c 128,-1,59
 774 1495 774 1495 774 1532 c 256,48,49
EndSplineSet
EndChar

StartChar: Yacute
Encoding: 221 221 159
Width: 1093
GlyphClass: 2
Flags: W
LayerCount: 2
Fore
SplineSet
-2 1315 m 1,0,1
 14 1325 14 1325 36.5 1330 c 128,-1,2
 59 1335 59 1335 82 1335 c 0,3,4
 111 1335 111 1335 133.5 1326 c 128,-1,5
 156 1317 156 1317 172 1294 c 2,6,-1
 551 707 l 1,7,-1
 926 1290 l 2,8,9
 944 1319 944 1319 967.5 1329 c 128,-1,10
 991 1339 991 1339 1022 1339 c 0,11,12
 1067 1339 1067 1339 1100 1323 c 1,13,-1
 621 584 l 1,14,-1
 621 43 l 2,15,16
 621 18 621 18 603.5 3 c 128,-1,17
 586 -12 586 -12 545 -12 c 0,18,19
 527 -12 527 -12 508 -10 c 128,-1,20
 489 -8 489 -8 479 -4 c 1,21,-1
 479 582 l 1,22,-1
 -2 1315 l 1,0,1
454 1438 m 1,23,-1
 758 1727 l 1,24,25
 828 1704 828 1704 827 1647 c 0,26,27
 827 1596 827 1596 764 1550 c 2,28,-1
 622 1438 l 2,29,30
 597 1420 597 1420 574.5 1412.5 c 128,-1,31
 552 1405 552 1405 532 1405 c 0,32,33
 507 1405 507 1405 487 1414 c 128,-1,34
 467 1423 467 1423 454 1438 c 1,23,-1
EndSplineSet
EndChar

StartChar: Thorn
Encoding: 222 222 160
Width: 1083
GlyphClass: 2
Flags: W
LayerCount: 2
Fore
SplineSet
164 -4 m 1,0,-1
 164 1280 l 2,1,2
 164 1305 164 1305 181.5 1320 c 128,-1,3
 199 1335 199 1335 240 1335 c 0,4,5
 256 1335 256 1335 275.5 1333 c 128,-1,6
 295 1331 295 1331 305 1327 c 1,7,-1
 305 1118 l 1,8,-1
 543 1118 l 2,9,10
 662 1118 662 1118 753 1084.5 c 128,-1,11
 844 1051 844 1051 907.5 992.5 c 128,-1,12
 971 934 971 934 1003.5 854 c 128,-1,13
 1036 774 1036 774 1036 682 c 0,14,15
 1036 588 1036 588 1002.5 509 c 128,-1,16
 969 430 969 430 905.5 373.5 c 128,-1,17
 842 317 842 317 752 285.5 c 128,-1,18
 662 254 662 254 549 254 c 2,19,-1
 305 254 l 1,20,-1
 305 43 l 2,21,22
 305 18 305 18 287.5 3 c 128,-1,23
 270 -12 270 -12 229 -12 c 0,24,25
 211 -12 211 -12 192.5 -10 c 128,-1,26
 174 -8 174 -8 164 -4 c 1,0,-1
305 379 m 1,27,-1
 530 379 l 2,28,29
 706 379 706 379 798.5 459 c 128,-1,30
 891 539 891 539 891 682 c 256,31,32
 891 825 891 825 798 908 c 128,-1,33
 705 991 705 991 535 991 c 2,34,-1
 305 991 l 1,35,-1
 305 379 l 1,27,-1
EndSplineSet
EndChar

StartChar: germandbls
Encoding: 223 223 161
Width: 1214
GlyphClass: 2
Flags: W
LayerCount: 2
Fore
SplineSet
137 -4 m 1,0,-1
 137 1067 l 2,1,2
 137 1157 137 1157 168 1222.5 c 128,-1,3
 199 1288 199 1288 252 1331 c 128,-1,4
 305 1374 305 1374 379 1394.5 c 128,-1,5
 453 1415 453 1415 537 1415 c 0,6,7
 643 1415 643 1415 721 1385.5 c 128,-1,8
 799 1356 799 1356 850 1304.5 c 128,-1,9
 901 1253 901 1253 925.5 1187.5 c 128,-1,10
 950 1122 950 1122 950 1049 c 0,11,12
 950 1010 950 1010 942 964 c 128,-1,13
 934 918 934 918 918 889 c 1,14,15
 801 885 801 885 743.5 845 c 128,-1,16
 686 805 686 805 686 741 c 0,17,18
 686 682 686 682 720 644 c 128,-1,19
 754 606 754 606 805 579.5 c 128,-1,20
 856 553 856 553 916.5 530.5 c 128,-1,21
 977 508 977 508 1028 475 c 128,-1,22
 1079 442 1079 442 1113 394 c 128,-1,23
 1147 346 1147 346 1147 268 c 0,24,25
 1147 211 1147 211 1124.5 160 c 128,-1,26
 1102 109 1102 109 1054 70 c 128,-1,27
 1006 31 1006 31 933 8.5 c 128,-1,28
 860 -14 860 -14 760 -14 c 0,29,30
 676 -14 676 -14 594 2 c 128,-1,31
 512 18 512 18 438 51 c 1,32,33
 428 96 428 96 445.5 125 c 128,-1,34
 463 154 463 154 494 154 c 0,35,36
 514 154 514 154 537.5 145.5 c 128,-1,37
 561 137 561 137 592 127 c 128,-1,38
 623 117 623 117 664 108.5 c 128,-1,39
 705 100 705 100 764 100 c 0,40,41
 893 100 893 100 951.5 146.5 c 128,-1,42
 1010 193 1010 193 1010 264 c 0,43,44
 1010 315 1010 315 976 348 c 128,-1,45
 942 381 942 381 891 405.5 c 128,-1,46
 840 430 840 430 780.5 454.5 c 128,-1,47
 721 479 721 479 669.5 514 c 128,-1,48
 618 549 618 549 584.5 600 c 128,-1,49
 551 651 551 651 551 733 c 0,50,51
 551 835 551 835 623.5 905 c 128,-1,52
 696 975 696 975 819 993 c 1,53,54
 823 1009 823 1009 825 1024.5 c 128,-1,55
 827 1040 827 1040 827 1057 c 0,56,57
 827 1157 827 1157 754.5 1226.5 c 128,-1,58
 682 1296 682 1296 541 1296 c 0,59,60
 273 1296 273 1296 272 1051 c 2,61,-1
 272 43 l 2,62,63
 272 18 272 18 257 3 c 128,-1,64
 242 -12 242 -12 201 -12 c 0,65,66
 183 -12 183 -12 165 -10 c 128,-1,67
 147 -8 147 -8 137 -4 c 1,0,-1
EndSplineSet
EndChar

StartChar: agrave
Encoding: 224 224 162
Width: 1048
GlyphClass: 2
Flags: W
LayerCount: 2
Fore
SplineSet
76 279 m 0,0,1
 76 420 76 420 175 506 c 128,-1,2
 274 592 274 592 496 592 c 0,3,4
 621 592 621 592 786 561 c 1,5,-1
 786 645 l 2,6,7
 786 770 786 770 729 824.5 c 128,-1,8
 672 879 672 879 532 879 c 0,9,10
 458 879 458 879 407 870.5 c 128,-1,11
 356 862 356 862 320.5 852 c 128,-1,12
 285 842 285 842 260.5 833.5 c 128,-1,13
 236 825 236 825 215 825 c 0,14,15
 184 825 184 825 168 853 c 128,-1,16
 152 881 152 881 160 934 c 1,17,18
 211 950 211 950 312.5 972.5 c 128,-1,19
 414 995 414 995 537 995 c 0,20,21
 650 995 650 995 723.5 968.5 c 128,-1,22
 797 942 797 942 840 892 c 128,-1,23
 883 842 883 842 900.5 769 c 128,-1,24
 918 696 918 696 918 604 c 2,25,-1
 918 391 l 2,26,27
 918 323 918 323 920 272 c 128,-1,28
 922 221 922 221 929 178 c 128,-1,29
 936 135 936 135 948.5 94 c 128,-1,30
 961 53 961 53 979 6 c 1,31,32
 965 -2 965 -2 949.5 -7 c 128,-1,33
 934 -12 934 -12 911 -12 c 0,34,35
 882 -12 882 -12 864 0 c 128,-1,36
 846 12 846 12 838 31 c 0,37,38
 828 51 828 51 818.5 89 c 128,-1,39
 809 127 809 127 803 180 c 1,40,-1
 799 180 l 1,41,42
 746 96 746 96 652.5 39 c 128,-1,43
 559 -18 559 -18 418 -18 c 0,44,45
 332 -18 332 -18 267.5 5.5 c 128,-1,46
 203 29 203 29 160 70 c 128,-1,47
 117 111 117 111 96.5 165 c 128,-1,48
 76 219 76 219 76 279 c 0,0,1
211 285 m 0,49,50
 211 201 211 201 272.5 148.5 c 128,-1,51
 334 96 334 96 440 96 c 0,52,53
 559 96 559 96 645 151.5 c 128,-1,54
 731 207 731 207 786 311 c 1,55,-1
 786 465 l 1,56,57
 630 494 630 494 524 494 c 0,58,59
 364 494 364 494 287.5 438.5 c 128,-1,60
 211 383 211 383 211 285 c 0,49,50
323 1352 m 0,61,62
 323 1409 323 1409 393 1432 c 1,63,-1
 696 1143 l 1,64,65
 684 1129 684 1129 663.5 1119.5 c 128,-1,66
 643 1110 643 1110 618 1110 c 0,67,68
 598 1110 598 1110 575.5 1117 c 128,-1,69
 553 1124 553 1124 528 1143 c 2,70,-1
 387 1255 l 2,71,72
 324 1300 324 1300 323 1352 c 0,61,62
EndSplineSet
EndChar

StartChar: aacute
Encoding: 225 225 163
Width: 1048
GlyphClass: 2
Flags: W
LayerCount: 2
Fore
SplineSet
76 279 m 0,0,1
 76 420 76 420 175 506 c 128,-1,2
 274 592 274 592 496 592 c 0,3,4
 621 592 621 592 786 561 c 1,5,-1
 786 645 l 2,6,7
 786 770 786 770 729 824.5 c 128,-1,8
 672 879 672 879 532 879 c 0,9,10
 458 879 458 879 407 870.5 c 128,-1,11
 356 862 356 862 320.5 852 c 128,-1,12
 285 842 285 842 260.5 833.5 c 128,-1,13
 236 825 236 825 215 825 c 0,14,15
 184 825 184 825 168 853 c 128,-1,16
 152 881 152 881 160 934 c 1,17,18
 211 950 211 950 312.5 972.5 c 128,-1,19
 414 995 414 995 537 995 c 0,20,21
 650 995 650 995 723.5 968.5 c 128,-1,22
 797 942 797 942 840 892 c 128,-1,23
 883 842 883 842 900.5 769 c 128,-1,24
 918 696 918 696 918 604 c 2,25,-1
 918 391 l 2,26,27
 918 323 918 323 920 272 c 128,-1,28
 922 221 922 221 929 178 c 128,-1,29
 936 135 936 135 948.5 94 c 128,-1,30
 961 53 961 53 979 6 c 1,31,32
 965 -2 965 -2 949.5 -7 c 128,-1,33
 934 -12 934 -12 911 -12 c 0,34,35
 882 -12 882 -12 864 0 c 128,-1,36
 846 12 846 12 838 31 c 0,37,38
 828 51 828 51 818.5 89 c 128,-1,39
 809 127 809 127 803 180 c 1,40,-1
 799 180 l 1,41,42
 746 96 746 96 652.5 39 c 128,-1,43
 559 -18 559 -18 418 -18 c 0,44,45
 332 -18 332 -18 267.5 5.5 c 128,-1,46
 203 29 203 29 160 70 c 128,-1,47
 117 111 117 111 96.5 165 c 128,-1,48
 76 219 76 219 76 279 c 0,0,1
211 285 m 0,49,50
 211 201 211 201 272.5 148.5 c 128,-1,51
 334 96 334 96 440 96 c 0,52,53
 559 96 559 96 645 151.5 c 128,-1,54
 731 207 731 207 786 311 c 1,55,-1
 786 465 l 1,56,57
 630 494 630 494 524 494 c 0,58,59
 364 494 364 494 287.5 438.5 c 128,-1,60
 211 383 211 383 211 285 c 0,49,50
362 1143 m 1,61,-1
 666 1432 l 1,62,63
 736 1409 736 1409 735 1352 c 0,64,65
 735 1301 735 1301 672 1255 c 2,66,-1
 530 1143 l 2,67,68
 505 1125 505 1125 482.5 1117.5 c 128,-1,69
 460 1110 460 1110 440 1110 c 0,70,71
 415 1110 415 1110 395 1119 c 128,-1,72
 375 1128 375 1128 362 1143 c 1,61,-1
EndSplineSet
EndChar

StartChar: acircumflex
Encoding: 226 226 164
Width: 1048
GlyphClass: 2
Flags: W
LayerCount: 2
Fore
SplineSet
76 279 m 0,0,1
 76 420 76 420 175 506 c 128,-1,2
 274 592 274 592 496 592 c 0,3,4
 621 592 621 592 786 561 c 1,5,-1
 786 645 l 2,6,7
 786 770 786 770 729 824.5 c 128,-1,8
 672 879 672 879 532 879 c 0,9,10
 458 879 458 879 407 870.5 c 128,-1,11
 356 862 356 862 320.5 852 c 128,-1,12
 285 842 285 842 260.5 833.5 c 128,-1,13
 236 825 236 825 215 825 c 0,14,15
 184 825 184 825 168 853 c 128,-1,16
 152 881 152 881 160 934 c 1,17,18
 211 950 211 950 312.5 972.5 c 128,-1,19
 414 995 414 995 537 995 c 0,20,21
 650 995 650 995 723.5 968.5 c 128,-1,22
 797 942 797 942 840 892 c 128,-1,23
 883 842 883 842 900.5 769 c 128,-1,24
 918 696 918 696 918 604 c 2,25,-1
 918 391 l 2,26,27
 918 323 918 323 920 272 c 128,-1,28
 922 221 922 221 929 178 c 128,-1,29
 936 135 936 135 948.5 94 c 128,-1,30
 961 53 961 53 979 6 c 1,31,32
 965 -2 965 -2 949.5 -7 c 128,-1,33
 934 -12 934 -12 911 -12 c 0,34,35
 882 -12 882 -12 864 0 c 128,-1,36
 846 12 846 12 838 31 c 0,37,38
 828 51 828 51 818.5 89 c 128,-1,39
 809 127 809 127 803 180 c 1,40,-1
 799 180 l 1,41,42
 746 96 746 96 652.5 39 c 128,-1,43
 559 -18 559 -18 418 -18 c 0,44,45
 332 -18 332 -18 267.5 5.5 c 128,-1,46
 203 29 203 29 160 70 c 128,-1,47
 117 111 117 111 96.5 165 c 128,-1,48
 76 219 76 219 76 279 c 0,0,1
211 285 m 0,49,50
 211 201 211 201 272.5 148.5 c 128,-1,51
 334 96 334 96 440 96 c 0,52,53
 559 96 559 96 645 151.5 c 128,-1,54
 731 207 731 207 786 311 c 1,55,-1
 786 465 l 1,56,57
 630 494 630 494 524 494 c 0,58,59
 364 494 364 494 287.5 438.5 c 128,-1,60
 211 383 211 383 211 285 c 0,49,50
263 1120 m 1,61,-1
 449 1378 l 2,62,63
 474 1419 474 1419 523 1419 c 0,64,65
 578 1419 578 1419 603 1378 c 2,66,-1
 791 1118 l 1,67,68
 779 1114 779 1114 758.5 1111 c 128,-1,69
 738 1108 738 1108 721 1108 c 0,70,71
 678 1108 678 1108 656 1139 c 2,72,-1
 527 1323 l 1,73,-1
 402 1141 l 2,74,75
 379 1108 379 1108 334 1108 c 0,76,77
 309 1108 309 1108 291 1112 c 128,-1,78
 273 1116 273 1116 263 1120 c 1,61,-1
EndSplineSet
EndChar

StartChar: atilde
Encoding: 227 227 165
Width: 1048
GlyphClass: 2
Flags: W
LayerCount: 2
Fore
SplineSet
76 279 m 0,0,1
 76 420 76 420 175 506 c 128,-1,2
 274 592 274 592 496 592 c 0,3,4
 621 592 621 592 786 561 c 1,5,-1
 786 645 l 2,6,7
 786 770 786 770 729 824.5 c 128,-1,8
 672 879 672 879 532 879 c 0,9,10
 458 879 458 879 407 870.5 c 128,-1,11
 356 862 356 862 320.5 852 c 128,-1,12
 285 842 285 842 260.5 833.5 c 128,-1,13
 236 825 236 825 215 825 c 0,14,15
 184 825 184 825 168 853 c 128,-1,16
 152 881 152 881 160 934 c 1,17,18
 211 950 211 950 312.5 972.5 c 128,-1,19
 414 995 414 995 537 995 c 0,20,21
 650 995 650 995 723.5 968.5 c 128,-1,22
 797 942 797 942 840 892 c 128,-1,23
 883 842 883 842 900.5 769 c 128,-1,24
 918 696 918 696 918 604 c 2,25,-1
 918 391 l 2,26,27
 918 323 918 323 920 272 c 128,-1,28
 922 221 922 221 929 178 c 128,-1,29
 936 135 936 135 948.5 94 c 128,-1,30
 961 53 961 53 979 6 c 1,31,32
 965 -2 965 -2 949.5 -7 c 128,-1,33
 934 -12 934 -12 911 -12 c 0,34,35
 882 -12 882 -12 864 0 c 128,-1,36
 846 12 846 12 838 31 c 0,37,38
 828 51 828 51 818.5 89 c 128,-1,39
 809 127 809 127 803 180 c 1,40,-1
 799 180 l 1,41,42
 746 96 746 96 652.5 39 c 128,-1,43
 559 -18 559 -18 418 -18 c 0,44,45
 332 -18 332 -18 267.5 5.5 c 128,-1,46
 203 29 203 29 160 70 c 128,-1,47
 117 111 117 111 96.5 165 c 128,-1,48
 76 219 76 219 76 279 c 0,0,1
211 285 m 0,49,50
 211 201 211 201 272.5 148.5 c 128,-1,51
 334 96 334 96 440 96 c 0,52,53
 559 96 559 96 645 151.5 c 128,-1,54
 731 207 731 207 786 311 c 1,55,-1
 786 465 l 1,56,57
 630 494 630 494 524 494 c 0,58,59
 364 494 364 494 287.5 438.5 c 128,-1,60
 211 383 211 383 211 285 c 0,49,50
233 1182 m 1,61,62
 256 1272 256 1272 299 1320 c 128,-1,63
 342 1368 342 1368 413 1368 c 0,64,65
 450 1368 450 1368 482 1349.5 c 128,-1,66
 514 1331 514 1331 541.5 1307.5 c 128,-1,67
 569 1284 569 1284 592.5 1265.5 c 128,-1,68
 616 1247 616 1247 639 1247 c 0,69,70
 657 1247 657 1247 669.5 1264.5 c 128,-1,71
 682 1282 682 1282 692 1301.5 c 128,-1,72
 702 1321 702 1321 716.5 1338.5 c 128,-1,73
 731 1356 731 1356 753 1356 c 0,74,75
 786 1356 786 1356 817 1323 c 1,76,77
 786 1229 786 1229 746 1183 c 128,-1,78
 706 1137 706 1137 632 1137 c 0,79,80
 597 1137 597 1137 565.5 1155.5 c 128,-1,81
 534 1174 534 1174 505.5 1195.5 c 128,-1,82
 477 1217 477 1217 452.5 1235 c 128,-1,83
 428 1253 428 1253 409 1253 c 0,84,85
 386 1253 386 1253 375 1237 c 128,-1,86
 364 1221 364 1221 354 1201.5 c 128,-1,87
 344 1182 344 1182 330.5 1165.5 c 128,-1,88
 317 1149 317 1149 293 1149 c 0,89,90
 260 1149 260 1149 233 1182 c 1,61,62
EndSplineSet
EndChar

